<?xml version="1.0" encoding="UTF-8"?>
<svg width="362px" height="34px" viewBox="0 0 362 34" version="1.1" xmlns="http://www.w3.org/2000/svg" xmlns:xlink="http://www.w3.org/1999/xlink">
    <title>Spondulix|LoanApp</title>
    <g id="Design-Updates" stroke="none" stroke-width="1" fill="none" fill-rule="evenodd">
        <g id="Splash-Screen" transform="translate(-26.000000, -397.000000)" fill="#FFFFFF" fill-rule="nonzero">
            <path d="M35.419,424.34 C37.5043333,424.34 39.2723333,424.022667 40.723,423.388 C42.1736667,422.753333 43.256,421.903333 43.97,420.838 C44.684,419.772667 45.041,418.582667 45.041,417.268 C45.041,415.726667 44.6386667,414.502667 43.834,413.596 C43.0293333,412.689333 42.0603333,412.015 40.927,411.573 C39.7936667,411.131 38.343,410.706 36.575,410.298 C35.283,409.980667 34.263,409.697333 33.515,409.448 C32.767,409.198667 32.1493333,408.858667 31.662,408.428 C31.1746667,407.997333 30.931,407.442 30.931,406.762 C30.931,405.787333 31.356,405.005333 32.206,404.416 C33.056,403.826667 34.3536667,403.532 36.099,403.532 C37.1643333,403.532 38.2636667,403.690667 39.397,404.008 C40.5303333,404.325333 41.6183333,404.79 42.661,405.402 L42.661,405.402 L44.055,401.968 C43.035,401.288 41.8223333,400.766667 40.417,400.404 C39.0116667,400.041333 37.5836667,399.86 36.133,399.86 C34.0476667,399.86 32.2853333,400.177333 30.846,400.812 C29.4066667,401.446667 28.33,402.302333 27.616,403.379 C26.902,404.455667 26.545,405.651333 26.545,406.966 C26.545,408.53 26.9473333,409.771 27.752,410.689 C28.5566667,411.607 29.52,412.281333 30.642,412.712 C31.764,413.142667 33.2316667,413.573333 35.045,414.004 C36.337,414.321333 37.357,414.604667 38.105,414.854 C38.853,415.103333 39.4706667,415.449 39.958,415.891 C40.4453333,416.333 40.689,416.894 40.689,417.574 C40.689,418.503333 40.2526667,419.251333 39.38,419.818 C38.5073333,420.384667 37.187,420.668 35.419,420.668 C33.991,420.668 32.5686667,420.424333 31.152,419.937 C29.7353333,419.449667 28.5396667,418.820667 27.565,418.05 L27.565,418.05 L26.035,421.484 C27.0323333,422.345333 28.3866667,423.036667 30.098,423.558 C31.8093333,424.079333 33.583,424.34 35.419,424.34 Z M53.269,430.596 L53.269,421.79 C54.697,423.422 56.635,424.238 59.083,424.238 C60.851,424.238 62.432,423.852667 63.826,423.082 C65.22,422.311333 66.3136667,421.217667 67.107,419.801 C67.9003333,418.384333 68.297,416.758 68.297,414.922 C68.297,413.086 67.9003333,411.465333 67.107,410.06 C66.3136667,408.654667 65.22,407.566667 63.826,406.796 C62.432,406.025333 60.851,405.64 59.083,405.64 C57.8363333,405.64 56.6973333,405.855333 55.666,406.286 C54.6346667,406.716667 53.7676667,407.362667 53.065,408.224 L53.065,408.224 L53.065,405.844 L49.019,405.844 L49.019,430.596 L53.269,430.596 Z M58.607,420.6 C57.587,420.6 56.669,420.367667 55.853,419.903 C55.037,419.438333 54.391,418.775333 53.915,417.914 C53.439,417.052667 53.201,416.055333 53.201,414.922 C53.201,413.788667 53.439,412.791333 53.915,411.93 C54.391,411.068667 55.037,410.405667 55.853,409.941 C56.669,409.476333 57.587,409.244 58.607,409.244 C60.171,409.244 61.4573333,409.765333 62.466,410.808 C63.4746667,411.850667 63.979,413.222 63.979,414.922 C63.979,416.622 63.4746667,417.993333 62.466,419.036 C61.4573333,420.078667 60.171,420.6 58.607,420.6 Z M80.503,424.238 C82.3616667,424.238 84.0276667,423.841333 85.501,423.048 C86.9743333,422.254667 88.1246667,421.149667 88.952,419.733 C89.7793333,418.316333 90.193,416.712667 90.193,414.922 C90.193,413.131333 89.7793333,411.533333 88.952,410.128 C88.1246667,408.722667 86.9743333,407.623333 85.501,406.83 C84.0276667,406.036667 82.3616667,405.64 80.503,405.64 C78.667,405.64 77.0123333,406.036667 75.539,406.83 C74.0656667,407.623333 72.9153333,408.722667 72.088,410.128 C71.2606667,411.533333 70.847,413.131333 70.847,414.922 C70.847,416.712667 71.2606667,418.316333 72.088,419.733 C72.9153333,421.149667 74.0656667,422.254667 75.539,423.048 C77.0123333,423.841333 78.667,424.238 80.503,424.238 Z M80.503,420.6 C78.939,420.6 77.6526667,420.078667 76.644,419.036 C75.6353333,417.993333 75.131,416.622 75.131,414.922 C75.131,413.222 75.6353333,411.850667 76.644,410.808 C77.6526667,409.765333 78.939,409.244 80.503,409.244 C82.067,409.244 83.359,409.765333 84.379,410.808 C85.399,411.850667 85.909,413.222 85.909,414.922 C85.909,416.622 85.399,417.993333 84.379,419.036 C83.359,420.078667 82.067,420.6 80.503,420.6 Z M98.523,424 L98.523,414.82 C98.523,413.052 98.9763333,411.697667 99.883,410.757 C100.789667,409.816333 102.025,409.346 103.589,409.346 C104.971667,409.346 106.037,409.748333 106.785,410.553 C107.533,411.357667 107.907,412.553333 107.907,414.14 L107.907,414.14 L107.907,424 L112.157,424 L112.157,413.596 C112.157,410.966667 111.465667,408.983333 110.083,407.646 C108.700333,406.308667 106.864333,405.64 104.575,405.64 C103.237667,405.64 102.036333,405.855333 100.971,406.286 C99.9056667,406.716667 99.0216667,407.351333 98.319,408.19 L98.319,408.19 L98.319,405.844 L94.273,405.844 L94.273,424 L98.523,424 Z M125.417,424.238 C126.663667,424.238 127.802667,424.022667 128.834,423.592 C129.865333,423.161333 130.732333,422.515333 131.435,421.654 L131.435,421.654 L131.435,424 L135.515,424 L135.515,398.772 L131.265,398.772 L131.265,408.088 C130.562333,407.272 129.712333,406.66 128.715,406.252 C127.717667,405.844 126.618333,405.64 125.417,405.64 C123.671667,405.64 122.102,406.025333 120.708,406.796 C119.314,407.566667 118.220333,408.654667 117.427,410.06 C116.633667,411.465333 116.237,413.086 116.237,414.922 C116.237,416.758 116.633667,418.384333 117.427,419.801 C118.220333,421.217667 119.314,422.311333 120.708,423.082 C122.102,423.852667 123.671667,424.238 125.417,424.238 Z M125.927,420.6 C124.907,420.6 123.989,420.367667 123.173,419.903 C122.357,419.438333 121.711,418.775333 121.235,417.914 C120.759,417.052667 120.521,416.055333 120.521,414.922 C120.521,413.788667 120.759,412.791333 121.235,411.93 C121.711,411.068667 122.357,410.405667 123.173,409.941 C123.989,409.476333 124.907,409.244 125.927,409.244 C126.947,409.244 127.865,409.476333 128.681,409.941 C129.497,410.405667 130.143,411.068667 130.619,411.93 C131.095,412.791333 131.333,413.788667 131.333,414.922 C131.333,416.055333 131.095,417.052667 130.619,417.914 C130.143,418.775333 129.497,419.438333 128.681,419.903 C127.865,420.367667 126.947,420.6 125.927,420.6 Z M148.775,424.238 C149.953667,424.238 151.053,424.017 152.073,423.575 C153.093,423.133 153.943,422.504 154.623,421.688 L154.623,421.688 L154.623,424 L158.669,424 L158.669,405.844 L154.419,405.844 L154.419,415.024 C154.419,416.792 153.971333,418.146333 153.076,419.087 C152.180667,420.027667 150.973667,420.498 149.455,420.498 C148.095,420.498 147.046667,420.095667 146.31,419.291 C145.573333,418.486333 145.205,417.268 145.205,415.636 L145.205,415.636 L145.205,405.844 L140.955,405.844 L140.955,416.214 C140.955,418.866 141.652,420.866333 143.046,422.215 C144.44,423.563667 146.349667,424.238 148.775,424.238 Z M168.495,424 L168.495,398.772 L164.245,398.772 L164.245,424 L168.495,424 Z M176.213,402.852 C177.006333,402.852 177.658,402.597 178.168,402.087 C178.678,401.577 178.933,400.948 178.933,400.2 C178.933,399.497333 178.672333,398.913667 178.151,398.449 C177.629667,397.984333 176.983667,397.752 176.213,397.752 C175.442333,397.752 174.796333,397.995667 174.275,398.483 C173.753667,398.970333 173.493,399.576667 173.493,400.302 C173.493,401.027333 173.753667,401.633667 174.275,402.121 C174.796333,402.608333 175.442333,402.852 176.213,402.852 Z M178.321,424 L178.321,405.844 L174.071,405.844 L174.071,424 L178.321,424 Z M186.107,424 L190.799,417.71 L195.457,424 L200.251,424 L193.145,414.718 L199.945,405.844 L195.355,405.844 L190.901,411.794 L186.447,405.844 L181.721,405.844 L188.487,414.786 L181.415,424 L186.107,424 Z M215.415,430.596 L215.415,398.772 L214.327,398.772 L214.327,430.596 L215.415,430.596 Z M247.817,424 L247.817,422.946 L233.877,422.946 L233.877,400.2 L232.721,400.2 L232.721,424 L247.817,424 Z M258.289,424.102 C259.943667,424.102 261.428333,423.722333 262.743,422.963 C264.057667,422.203667 265.089,421.144 265.837,419.784 C266.585,418.424 266.959,416.882667 266.959,415.16 C266.959,413.437333 266.585,411.896 265.837,410.536 C265.089,409.176 264.057667,408.116333 262.743,407.357 C261.428333,406.597667 259.943667,406.218 258.289,406.218 C256.657,406.218 255.178,406.597667 253.852,407.357 C252.526,408.116333 251.489,409.176 250.741,410.536 C249.993,411.896 249.619,413.437333 249.619,415.16 C249.619,416.882667 249.993,418.424 250.741,419.784 C251.489,421.144 252.526,422.203667 253.852,422.963 C255.178,423.722333 256.657,424.102 258.289,424.102 Z M258.289,423.082 C256.861,423.082 255.574667,422.747667 254.43,422.079 C253.285333,421.410333 252.384333,420.475333 251.727,419.274 C251.069667,418.072667 250.741,416.701333 250.741,415.16 C250.741,413.618667 251.069667,412.253 251.727,411.063 C252.384333,409.873 253.285333,408.943667 254.43,408.275 C255.574667,407.606333 256.861,407.272 258.289,407.272 C259.717,407.272 261.003333,407.606333 262.148,408.275 C263.292667,408.943667 264.193667,409.873 264.851,411.063 C265.508333,412.253 265.837,413.618667 265.837,415.16 C265.837,416.701333 265.508333,418.072667 264.851,419.274 C264.193667,420.475333 263.292667,421.410333 262.148,422.079 C261.003333,422.747667 259.717,423.082 258.289,423.082 Z M277.125,424.102 C278.689,424.102 280.032,423.779 281.154,423.133 C282.276,422.487 283.120333,421.597333 283.687,420.464 L283.687,420.464 L283.687,424 L284.775,424 L284.775,412.576 C284.775,410.513333 284.214,408.938 283.092,407.85 C281.97,406.762 280.355,406.218 278.247,406.218 C276.909667,406.218 275.634667,406.444667 274.422,406.898 C273.209333,407.351333 272.172333,407.986 271.311,408.802 L271.311,408.802 L271.923,409.618 C272.693667,408.892667 273.623,408.314667 274.711,407.884 C275.799,407.453333 276.966333,407.238 278.213,407.238 C280.003667,407.238 281.358,407.691333 282.276,408.598 C283.194,409.504667 283.653,410.830667 283.653,412.576 L283.653,412.576 L283.653,414.31 L277.227,414.31 C274.983,414.31 273.351,414.757667 272.331,415.653 C271.311,416.548333 270.801,417.71 270.801,419.138 C270.801,420.634 271.362,421.835333 272.484,422.742 C273.606,423.648667 275.153,424.102 277.125,424.102 Z M277.193,423.15 C275.561,423.15 274.274667,422.787333 273.334,422.062 C272.393333,421.336667 271.923,420.339333 271.923,419.07 C271.923,417.891333 272.348,416.956333 273.198,416.265 C274.048,415.573667 275.391,415.228 277.227,415.228 L277.227,415.228 L283.653,415.228 L283.653,418.9 C282.519667,421.733333 280.366333,423.15 277.193,423.15 Z M293.241,424 L293.241,414.48 C293.241,412.281333 293.875667,410.530333 295.145,409.227 C296.414333,407.923667 298.148333,407.272 300.347,407.272 C302.296333,407.272 303.798,407.821667 304.852,408.921 C305.906,410.020333 306.433,411.612667 306.433,413.698 L306.433,413.698 L306.433,424 L307.555,424 L307.555,413.63 C307.555,411.25 306.920333,409.419667 305.651,408.139 C304.381667,406.858333 302.647667,406.218 300.449,406.218 C298.703667,406.218 297.202,406.614667 295.944,407.408 C294.686,408.201333 293.773667,409.289333 293.207,410.672 L293.207,410.672 L293.207,406.354 L292.119,406.354 L292.119,424 L293.241,424 Z M321.223,424 L324.419,417.03 L338.665,417.03 L341.861,424 L343.119,424 L332.103,400.2 L330.981,400.2 L319.965,424 L321.223,424 Z M338.223,416.044 L324.861,416.044 L331.559,401.526 L338.223,416.044 Z M348.287,430.596 L348.287,419.274 C348.944333,420.77 349.947333,421.948667 351.296,422.81 C352.644667,423.671333 354.169,424.102 355.869,424.102 C357.478333,424.102 358.940333,423.722333 360.255,422.963 C361.569667,422.203667 362.606667,421.149667 363.366,419.801 C364.125333,418.452333 364.505,416.916667 364.505,415.194 C364.505,413.471333 364.125333,411.924333 363.366,410.553 C362.606667,409.181667 361.569667,408.116333 360.255,407.357 C358.940333,406.597667 357.478333,406.218 355.869,406.218 C354.146333,406.218 352.610667,406.66 351.262,407.544 C349.913333,408.428 348.910333,409.640667 348.253,411.182 L348.253,411.182 L348.253,406.354 L347.165,406.354 L347.165,430.596 L348.287,430.596 Z M355.835,423.082 C354.407,423.082 353.120667,422.747667 351.976,422.079 C350.831333,421.410333 349.930333,420.481 349.273,419.291 C348.615667,418.101 348.287,416.735333 348.287,415.194 C348.287,413.652667 348.615667,412.281333 349.273,411.08 C349.930333,409.878667 350.831333,408.943667 351.976,408.275 C353.120667,407.606333 354.407,407.272 355.835,407.272 C357.263,407.272 358.549333,407.606333 359.694,408.275 C360.838667,408.943667 361.739667,409.878667 362.397,411.08 C363.054333,412.281333 363.383,413.652667 363.383,415.194 C363.383,416.735333 363.054333,418.101 362.397,419.291 C361.739667,420.481 360.838667,421.410333 359.694,422.079 C358.549333,422.747667 357.263,423.082 355.835,423.082 Z M371.169,430.596 L371.169,419.274 C371.826333,420.77 372.829333,421.948667 374.178,422.81 C375.526667,423.671333 377.051,424.102 378.751,424.102 C380.360333,424.102 381.822333,423.722333 383.137,422.963 C384.451667,422.203667 385.488667,421.149667 386.248,419.801 C387.007333,418.452333 387.387,416.916667 387.387,415.194 C387.387,413.471333 387.007333,411.924333 386.248,410.553 C385.488667,409.181667 384.451667,408.116333 383.137,407.357 C381.822333,406.597667 380.360333,406.218 378.751,406.218 C377.028333,406.218 375.492667,406.66 374.144,407.544 C372.795333,408.428 371.792333,409.640667 371.135,411.182 L371.135,411.182 L371.135,406.354 L370.047,406.354 L370.047,430.596 L371.169,430.596 Z M378.717,423.082 C377.289,423.082 376.002667,422.747667 374.858,422.079 C373.713333,421.410333 372.812333,420.481 372.155,419.291 C371.497667,418.101 371.169,416.735333 371.169,415.194 C371.169,413.652667 371.497667,412.281333 372.155,411.08 C372.812333,409.878667 373.713333,408.943667 374.858,408.275 C376.002667,407.606333 377.289,407.272 378.717,407.272 C380.145,407.272 381.431333,407.606333 382.576,408.275 C383.720667,408.943667 384.621667,409.878667 385.279,411.08 C385.936333,412.281333 386.265,413.652667 386.265,415.194 C386.265,416.735333 385.936333,418.101 385.279,419.291 C384.621667,420.481 383.720667,421.410333 382.576,422.079 C381.431333,422.747667 380.145,423.082 378.717,423.082 Z" id="Spondulix|LoanApp"></path>
        </g>
    </g>
</svg>