<?xml version="1.0" encoding="UTF-8"?>
<svg width="64px" height="45px" viewBox="0 0 64 45" version="1.1" xmlns="http://www.w3.org/2000/svg" xmlns:xlink="http://www.w3.org/1999/xlink">
    <title>icon-burger-menu</title>
    <g id="Icons" stroke="none" stroke-width="1" fill="none" fill-rule="evenodd">
        <g id="Artboard" transform="translate(-341.000000, -519.000000)" fill-rule="nonzero">
            <g id="icon-burger-menu" transform="translate(341.000000, 519.000000)">
                <path d="M61.5,20 L2.5,20 C1.11925,20 0,21.11925 0,22.5 C0,23.88075 1.11925,25 2.5,25 L61.5,25 C62.88075,25 64,23.88075 64,22.5 C64,21.11925 62.88075,20 61.5,20 Z" id="Path"></path>
                <path d="M61.5,0 L2.5,0 C1.11925,0 0,1.11925 0,2.5 C0,3.88075 1.11925,5 2.5,5 L61.5,5 C62.88075,5 64,3.88075 64,2.5 C64,1.11925 62.88075,0 61.5,0 Z" id="Path"></path>
                <path d="M61.5,40 L2.5,40 C1.11925,40 0,41.11925 0,42.5 C0,43.88075 1.11925,45 2.5,45 L61.5,45 C62.88075,45 64,43.88075 64,42.5 C64,41.11925 62.88075,40 61.5,40 Z" id="Path"></path>
            </g>
        </g>
    </g>
</svg>