<?xml version="1.0" encoding="UTF-8"?>
<svg width="20px" height="20px" viewBox="0 0 20 20" version="1.1" xmlns="http://www.w3.org/2000/svg" xmlns:xlink="http://www.w3.org/1999/xlink">
    <title>icon-search</title>
    <g id="Icons" stroke="none" stroke-width="1" fill="none" fill-rule="evenodd">
        <g id="Artboard" transform="translate(-177.000000, -49.000000)" fill="#000000" fill-rule="nonzero">
            <g id="icon-search" transform="translate(177.000000, 49.000000)">
                <path d="M13.0283871,2.23225806 C10.0522581,-0.743870968 5.2083871,-0.743870968 2.23225806,2.23225806 C-0.743225806,5.20903226 -0.743225806,10.0522581 2.23225806,13.0290323 C4.88258065,15.6787097 9.01032258,15.9625806 11.9845161,13.8935484 C12.0470968,14.1896774 12.1903226,14.4722581 12.4206452,14.7025806 L16.7548387,19.0367742 C17.3864516,19.6670968 18.4070968,19.6670968 19.0354839,19.0367742 C19.6664516,18.4058065 19.6664516,17.3851613 19.0354839,16.756129 L14.7012903,12.4206452 C14.4722581,12.1922581 14.1890323,12.0483871 13.8929032,11.9858065 C15.9632258,9.01096774 15.6793548,4.88387097 13.0283871,2.23225806 Z M11.66,11.6606452 C9.43806452,13.8825806 5.82193548,13.8825806 3.60064516,11.6606452 C1.38,9.43870968 1.38,5.82322581 3.60064516,3.60129032 C5.82193548,1.38 9.43806452,1.38 11.66,3.60129032 C13.8819355,5.82322581 13.8819355,9.43870968 11.66,11.6606452 Z" id="Shape"></path>
            </g>
        </g>
    </g>
</svg>