<?xml version="1.0" encoding="UTF-8"?>
<svg width="64px" height="64px" viewBox="0 0 64 64" version="1.1" xmlns="http://www.w3.org/2000/svg" xmlns:xlink="http://www.w3.org/1999/xlink">
    <title>icon-calendar</title>
    <g id="Icons" stroke="none" stroke-width="1" fill="none" fill-rule="evenodd">
        <g id="Artboard" transform="translate(-341.000000, -418.000000)" fill="#000000" fill-rule="nonzero">
            <g id="icon-calendar" transform="translate(341.000000, 418.000000)">
                <path d="M34.8568831,45.4763636 C34.8568831,48.2319314 37.0987179,50.4737662 39.8542857,50.4737662 L45.7262338,50.4737662 C48.4818016,50.4737662 50.7236364,48.2319314 50.7236364,45.4763636 L50.7236364,39.6044156 C50.7236364,36.8488478 48.4818016,34.607013 45.7262338,34.607013 L39.8542857,34.607013 C37.0987179,34.607013 34.8568831,36.8488478 34.8568831,39.6044156 L34.8568831,45.4763636 Z M39.8542857,39.6044156 L45.7262338,39.6044156 L45.7293571,45.4762387 C45.7293571,45.4762387 45.7284826,45.4763636 45.7262338,45.4763636 L39.8542857,45.4763636 L39.8542857,39.6044156 Z" id="Shape"></path>
                <circle id="Oval" cx="48.2249351" cy="26.2363636" r="2.4987013"></circle>
                <circle id="Oval" cx="37.3555844" cy="26.2363636" r="2.4987013"></circle>
                <path d="M61.4680519,43.9771429 C62.8480847,43.9771429 63.9667532,42.8584743 63.9667532,41.4784416 L63.9667532,14.9922078 C63.9667532,9.48107221 59.4830836,4.9974026 53.9719481,4.9974026 L50.7236364,4.9974026 L50.7236364,2.4987013 C50.7236364,1.11866857 49.6049678,0 48.2249351,0 C46.8449023,0 45.7262338,1.11866857 45.7262338,2.4987013 L45.7262338,4.9974026 L34.3571429,4.9974026 L34.3571429,2.4987013 C34.3571429,1.11866857 33.2384743,0 31.8584416,0 C30.4784088,0 29.3597403,1.11866857 29.3597403,2.4987013 L29.3597403,4.9974026 L18.1155844,4.9974026 L18.1155844,2.4987013 C18.1155844,1.11866857 16.9969158,0 15.6168831,0 C14.2368504,0 13.1181818,1.11866857 13.1181818,2.4987013 L13.1181818,4.9974026 L9.99480519,4.9974026 C4.48366961,4.9974026 0,9.48107221 0,14.9922078 L0,53.9719481 C0,59.4830836 4.48366961,63.9667532 9.99480519,63.9667532 L53.9719481,63.9667532 C59.4830836,63.9667532 63.9667532,59.4830836 63.9667532,53.9719481 C63.9667532,52.5919153 62.8480847,51.4732468 61.4680519,51.4732468 C60.0880192,51.4732468 58.9693506,52.5919153 58.9693506,53.9719481 C58.9693506,56.7275158 56.7275158,58.9693506 53.9719481,58.9693506 L9.99480519,58.9693506 C7.2392374,58.9693506 4.9974026,56.7275158 4.9974026,53.9719481 L4.9974026,14.9922078 C4.9974026,12.23664 7.2392374,9.99480519 9.99480519,9.99480519 L13.1181818,9.99480519 L13.1181818,12.4935065 C13.1181818,13.8735392 14.2368504,14.9922078 15.6168831,14.9922078 C16.9969158,14.9922078 18.1155844,13.8735392 18.1155844,12.4935065 L18.1155844,9.99480519 L29.3597403,9.99480519 L29.3597403,12.4935065 C29.3597403,13.8735392 30.4784088,14.9922078 31.8584416,14.9922078 C33.2384743,14.9922078 34.3571429,13.8735392 34.3571429,12.4935065 L34.3571429,9.99480519 L45.7262338,9.99480519 L45.7262338,12.4935065 C45.7262338,13.8735392 46.8449023,14.9922078 48.2249351,14.9922078 C49.6049678,14.9922078 50.7236364,13.8735392 50.7236364,12.4935065 L50.7236364,9.99480519 L53.9719481,9.99480519 C56.7275158,9.99480519 58.9693506,12.23664 58.9693506,14.9922078 L58.9693506,41.4784416 C58.9693506,42.8584743 60.0880192,43.9771429 61.4680519,43.9771429 Z" id="Path"></path>
                <circle id="Oval" cx="15.6168831" cy="47.9750649" r="2.4987013"></circle>
                <circle id="Oval" cx="15.6168831" cy="26.2363636" r="2.4987013"></circle>
                <circle id="Oval" cx="15.6168831" cy="37.1057143" r="2.4987013"></circle>
                <circle id="Oval" cx="26.4862338" cy="37.1057143" r="2.4987013"></circle>
                <circle id="Oval" cx="26.4862338" cy="26.2363636" r="2.4987013"></circle>
                <circle id="Oval" cx="26.4862338" cy="47.9750649" r="2.4987013"></circle>
            </g>
        </g>
    </g>
</svg>