<?xml version="1.0" encoding="UTF-8"?>
<svg width="40px" height="40px" viewBox="0 0 40 40" version="1.1" xmlns="http://www.w3.org/2000/svg" xmlns:xlink="http://www.w3.org/1999/xlink">
    <title>loantype-payments</title>
    <g id="Icons" stroke="none" stroke-width="1" fill="none" fill-rule="evenodd">
        <g id="Artboard" transform="translate(-86.000000, -188.000000)" fill="#000000" fill-rule="nonzero">
            <g id="loantype-payments" transform="translate(86.000000, 188.000000)">
                <path d="M39.7177124,20.8758545 C39.1513062,22.2418213 37.8292847,23.1240845 36.3497925,23.1240845 L31.4834595,23.1240845 L31.4834595,27.6556397 C31.4834595,28.5186767 30.7839966,29.2181397 29.9209595,29.2181397 C29.0579223,29.2181397 28.3581543,28.5186767 28.3581543,27.6556397 L28.3581543,21.5615845 C28.3581543,20.6985473 29.0579223,19.9990845 29.9209595,19.9990845 L36.3497925,19.9990845 C36.652832,19.9990845 36.781311,19.798584 36.8307495,19.6789551 C36.8908691,19.5339966 36.920166,19.3191528 36.7190552,19.1177368 L21.2017822,3.58032227 C20.5914306,2.97119141 19.5965577,2.97119141 18.9846802,3.58184812 L3.27331547,19.1223145 C3.07678219,19.3185425 3.10607906,19.5336914 3.16589359,19.6786499 C3.21563719,19.7982788 3.34381102,19.9990845 3.64746094,19.9990845 L10.3887939,19.9990845 C11.2518311,19.9990845 11.9512939,20.6988525 11.9512939,21.5615845 L11.9512939,27.6556397 C11.9512939,28.5186767 11.2518311,29.2184448 10.3887939,29.2184448 C9.52575688,29.2184448 8.82598875,28.5186767 8.82598875,27.6556397 L8.82598875,23.1243897 L3.64746094,23.1243897 C2.16644289,23.1243897 0.84411625,22.2406006 0.278320313,20.8734131 C-0.286865234,19.5077515 0.0241089063,17.9501343 1.07055664,16.9055176 L16.7819214,1.36535641 C18.6056519,-0.455932656 21.5820313,-0.455932656 23.4112548,1.37023922 L38.9303589,16.9094848 C39.9743652,17.9550171 40.2832031,19.5117188 39.7177124,20.8758545 Z M10.3887939,36.875 C9.52575688,36.875 8.82598875,37.5744629 8.82598875,38.4375 C8.82598875,39.3005371 9.52575688,40 10.3887939,40 C11.2518311,40 11.9512939,39.3005371 11.9512939,38.4375 C11.9512939,37.5744629 11.2518311,36.875 10.3887939,36.875 Z M10.3887939,31.4059448 C9.52575688,31.4059448 8.82598875,32.1054077 8.82598875,32.9684448 C8.82598875,33.831482 9.52575688,34.5309448 10.3887939,34.5309448 C11.2518311,34.5309448 11.9512939,33.831482 11.9512939,32.9684448 C11.9512939,32.1054077 11.2518311,31.4059448 10.3887939,31.4059448 Z M29.9206543,36.875 C29.0579223,36.875 28.3581543,37.5744629 28.3581543,38.4375 C28.3581543,39.3005371 29.0579223,40 29.9206543,40 C30.7836914,40 31.4834595,39.3005371 31.4834595,38.4375 C31.4834595,37.5744629 30.7836914,36.875 29.9206543,36.875 Z M29.9206543,31.4059448 C29.0579223,31.4059448 28.3581543,32.1054077 28.3581543,32.9684448 C28.3581543,33.831482 29.0579223,34.5309448 29.9206543,34.5309448 C30.7836914,34.5309448 31.4834595,33.831482 31.4834595,32.9684448 C31.4834595,32.1054077 30.7836914,31.4059448 29.9206543,31.4059448 Z M20.9857178,19.9209595 L19.553833,19.9209595 C18.8653564,19.9209595 18.2836914,19.3127441 18.2836914,18.5928345 L18.2836914,18.0230713 C18.2836914,17.3233032 18.8296509,16.7959595 19.553833,16.7959595 L20.9075928,16.7959595 C21.3058472,16.7959595 21.7172241,17.062378 21.7172241,17.5082398 C21.7172241,18.3709717 22.4169922,19.0707398 23.2797241,19.0707398 C24.1427613,19.0707398 24.8425293,18.3709717 24.8425293,17.5082398 C24.8425293,15.6353759 23.4594727,14.0728759 21.6375733,13.7380981 L21.6375733,12.7331543 C21.6375733,11.8701172 20.9381103,11.1706543 20.0750733,11.1706543 C19.2120361,11.1706543 18.5125733,11.8701172 18.5125733,12.7331543 L18.5125733,13.7918091 C17.7392578,13.9743042 17.0306397,14.3597412 16.4562988,14.921875 C15.6195069,15.7406616 15.1586914,16.842041 15.1586914,18.0230713 L15.1586914,18.5928345 C15.1586914,21.0482788 17.130127,23.0462647 19.553833,23.0462647 L20.9857178,23.0462647 C21.7025757,23.0462647 22.2640991,23.5897827 22.2640991,24.2837524 L22.2640991,25.2337647 C22.2640991,26.0031128 21.6210938,26.4056397 20.9857178,26.4056397 L18.6584473,26.4056397 C18.286438,26.4056397 17.8857422,26.1917114 17.8857422,25.7220459 C17.8857422,24.8590087 17.1862793,24.1595459 16.3232422,24.1595459 C15.4602051,24.1595459 14.7607422,24.8590087 14.7607422,25.7220459 C14.7607422,27.8100586 16.3970947,29.4546509 18.5125733,29.5272827 L18.5125733,30.3903198 C18.5125733,31.253357 19.2120361,31.9528198 20.0750733,31.9528198 C20.9381103,31.9528198 21.6375733,31.253357 21.6375733,30.3903198 L21.6375733,29.4854736 C23.7872314,29.1864014 25.3894043,27.4264527 25.3894043,25.2337647 L25.3894043,24.2837524 C25.3894043,23.1030273 24.9273681,22.000122 24.0881348,21.1779785 C23.260498,20.3674316 22.1585083,19.9209595 20.9857178,19.9209595 L20.9857178,19.9209595 Z" id="Shape"></path>
            </g>
        </g>
    </g>
</svg>