
<svg width="237px" height="186px" viewBox="0 0 237 186" version="1.1" xmlns="http://www.w3.org/2000/svg" xmlns:xlink="http://www.w3.org/1999/xlink">
    <!-- Generator: Sketch 51.1 (57501) - http://www.bohemiancoding.com/sketch -->
    <desc>Created with Sketch.</desc>
    <defs>
        <linearGradient x1="0.0418254486%" y1="50.0117741%" x2="100%" y2="50.0117741%" id="linearGradient-1">
            <stop stop-color="#808080" stop-opacity="0.25" offset="0%"></stop>
            <stop stop-color="#808080" stop-opacity="0.12" offset="54%"></stop>
            <stop stop-color="#808080" stop-opacity="0.1" offset="100%"></stop>
        </linearGradient>
    </defs>
    <g id="TIBCO-NOW-VD-v2" stroke="none" stroke-width="1" fill="none" fill-rule="evenodd">
        <g id="TIBCO-BPME-Instance---Loan-App_v2-06" transform="translate(-89.000000, -272.000000)" fill-rule="nonzero">
            <g id="illustration-empty" transform="translate(89.000000, 272.000000)">
                <ellipse id="Oval" fill="#4EDDB2" opacity="0.1" cx="84" cy="176" rx="41" ry="8"></ellipse>
                <path d="M137.699159,26.2121624 C122.505523,25.6850796 108.034947,20.7672092 94.2170015,15.3881415 C80.3990564,10.0090737 66.7125766,4.05115605 51.882818,1.20161489 C42.3445388,-0.631409522 31.4352641,-0.892597853 23.7515852,4.22763466 C16.3543128,9.16903552 13.9644609,17.6753041 12.6803264,25.5744864 C11.7131172,31.5182857 11.1449991,37.7750404 13.7930865,43.339999 C15.6336011,47.2037038 18.8967584,50.4509101 21.1551449,54.1522547 C29.0125459,67.0281335 23.4581358,82.9065016 14.9457557,95.4788372 C10.9548439,101.375576 6.31834348,107.008773 3.23595104,113.279646 C0.153558589,119.550519 -1.27143167,126.760258 1.42595517,133.174667 C4.09751846,139.527896 10.4665441,144.290465 17.3661263,147.643559 C31.3789218,154.455633 47.8848634,156.403957 63.9917138,157.509889 C99.6352512,159.952353 135.466596,158.895835 171.204037,157.83461 C184.430388,157.444004 197.713082,157.046339 210.723454,154.996834 C217.949352,153.857959 225.407662,152.050818 230.654537,147.688267 C237.312317,142.151545 238.962676,132.777001 234.499898,125.83551 C227.015765,114.187922 206.328756,111.296026 201.091271,98.798988 C198.21312,91.9186755 201.168742,84.2571511 205.354504,77.8780379 C214.331708,64.1903576 229.377445,52.1827535 230.168585,36.5396902 C230.713227,25.7956729 223.480286,15.0351843 212.296343,9.95024746 C200.5748,4.62059368 184.317704,5.29121237 175.673858,14.1127894 C166.764735,23.1861426 151.115665,26.6804189 137.699159,26.2121624 Z" id="Path" fill="#4EDDB2" opacity="0.1"></path>
                <path d="M125,85.2265446 L117.839346,80.3889887 L121.451233,75.0009119 L102.538505,73.4899077 L95.7425469,78.7561671 L87.2353258,73.9771773 L80.1401304,74.8322416 L80.0559699,72.958128 C79.9681461,71.0043594 79.7722501,69.0569757 79.4691844,67.1249492 C79.4995757,66.5392887 79.5206158,65.8669504 79.518278,65.1360461 C79.518278,62.0554717 79.1021512,57.9722466 77.2739987,55.2500965 L77.6948011,51.4597016 L74.2816264,47.418644 C74.8297555,46.3245354 75.4547387,45.270819 76.1518591,44.2654477 C76.2687486,44.0967775 76.3856382,43.9327926 76.5118789,43.7734929 C80.9419927,43.4525509 84.4369901,39.8027146 84.4369901,35.3399814 C84.4369901,35.1338289 84.4369901,34.9276764 84.4136122,34.7238665 C84.4136122,34.641874 84.3972476,34.5575389 84.3878965,34.4755465 C84.8203878,34.7098107 85.2575547,34.9440749 85.6947216,35.1783391 C85.7765442,35.2954712 85.8700559,35.4126033 85.9729187,35.5508192 L85.9939588,35.5765882 L86.1248751,35.7382305 L86.1669553,35.787426 C86.2137111,35.8436494 86.2628048,35.8975302 86.3118984,35.9537536 L86.3446274,35.9912359 C86.4685304,36.1294518 86.5994466,36.2700103 86.7397141,36.4082262 C86.7564127,36.4218426 86.7720438,36.436723 86.7864699,36.4527364 L86.9618042,36.6167213 L87.0108978,36.6612315 C87.1605165,36.7947621 87.3194862,36.9236074 87.478456,37.0454248 L87.5298874,37.0829071 L87.7309374,37.221123 L87.7963956,37.2632905 C87.8735427,37.3101434 87.9530276,37.3593389 88.0301747,37.4038491 L88.0582282,37.4202476 C88.149402,37.469443 88.2429136,37.5162959 88.3364253,37.5608061 L88.3831811,37.5795472 C88.462666,37.613906 88.5405924,37.646703 88.6169602,37.6779382 L88.6894317,37.7037073 C88.7712544,37.731819 88.8507393,37.757588 88.9348998,37.7810144 L88.9863312,37.7950703 C89.089194,37.8208394 89.1920568,37.8419231 89.2972573,37.8583216 L89.3089463,37.8583216 C89.4080052,37.8743792 89.5079256,37.8845484 89.6081835,37.888776 L89.6759795,37.888776 C89.7655335,37.8934733 89.8552714,37.8934733 89.9448254,37.888776 L90.0032702,37.888776 C90.1154075,37.8823046 90.2270483,37.8690051 90.3375743,37.8489511 C90.8606416,37.7800341 91.3628733,37.5994945 91.8103826,37.3195139 C91.9243185,37.2431654 92.0253394,37.1490527 92.1096198,37.0407395 C92.577178,36.4269673 92.062864,35.754629 92.062864,35.754629 C91.8805163,35.3188976 90.6975941,35.0120115 90.6975941,35.0120115 C90.6975941,35.0120115 86.9571287,33.4471266 86.9571287,32.200841 C86.9571287,30.9545554 86.0220123,24.4888633 76.3692737,23.0106561 C76.3692737,23.0106561 70.0899673,22.6569171 68.3249352,26.0256365 L68.2875305,26.4192003 C67.7685409,26.7448276 67.3383874,27.3984247 66.8264112,27.5905214 C66.6052188,27.638128 66.3919039,27.7170052 66.1928699,27.8247856 L66.1928699,27.7802754 C66.1337665,27.8320753 66.0853251,27.894941 66.0502646,27.9653441 C65.9402907,28.1846182 65.8743641,28.4234015 65.856228,28.6681367 C65.8035599,28.9670965 65.699966,29.2547502 65.5499774,29.5185158 C65.5081603,29.5934656 65.4612959,29.6654734 65.4097099,29.7340389 L65.3699675,29.7972902 C65.6413801,29.8184854 65.9139146,29.7743075 66.1648164,29.6684449 C66.1252789,29.9891749 66.0467705,30.3038602 65.9310373,30.6055017 C66.2345306,30.6153331 66.5158725,30.4469099 66.6510769,30.1744556 L66.6510769,30.1557145 L66.6814682,30.1135469 C66.740256,30.0051003 66.7887821,29.8913763 66.8264112,29.7738638 L66.8006955,29.8019755 C66.8474513,29.6497038 66.8895316,29.4950894 66.940963,29.3451603 C66.9645266,29.2607085 67.0033533,29.1813059 67.0555147,29.1108961 C67.1820542,28.9830661 67.3616667,28.923071 67.5394374,28.9492538 L67.443588,30.9803245 L67.4856682,30.9803245 C67.4293589,31.1280666 67.3605325,31.2707076 67.2799426,31.4066853 C66.9479763,31.945493 66.3448263,32.3132878 66.1227361,32.9036336 C66.026978,33.1883636 65.9903811,33.4897188 66.0151978,33.7891523 C66.0151978,33.9648505 66.0362379,34.1428913 66.0502646,34.3185894 L66.0502646,34.3045336 C66.0829937,34.773062 66.0923449,35.218164 65.8398634,35.5953294 C65.6668669,35.85302 65.3886698,36.0474593 65.2928204,36.3402896 C65.266306,36.4218862 65.2544335,36.507546 65.2577535,36.5932949 C65.27651,36.8500157 65.3299891,37.1029923 65.4167233,37.345283 C65.417737,37.3406528 65.417737,37.3358574 65.4167233,37.3312272 C65.4750296,37.5094577 65.4886782,37.6993262 65.4564657,37.8840907 C65.3512651,38.3526191 64.7831819,38.7438403 64.8112354,39.191285 C64.8096315,39.2501321 64.8183351,39.3088053 64.8369511,39.3646405 C64.9462522,39.583192 65.1355193,39.7510326 65.3652919,39.8331689 C65.7257265,40.0385564 66.1396832,40.1300118 66.5528897,40.0955448 C66.7077608,40.0675057 66.8575126,40.0161685 66.9970699,39.9432731 C66.8334246,40.3204385 66.6651036,40.6929185 66.4944449,41.0466575 C66.4687292,41.1028809 66.4406757,41.1591043 66.4126222,41.2153277 C66.4126222,41.2153277 64.9678674,40.2478166 64.1473028,42.2203212 C63.9077615,42.6302281 63.7364197,43.0764829 63.6400022,43.5415713 C63.5988925,43.7276149 63.5409887,43.9095279 63.4670057,44.0850643 C63.1027159,44.7030647 62.5575049,45.1937913 61.9053613,45.4906495 C60.2315031,46.2590361 53.4706118,54.7089461 53.3513844,56.8969738 C53.2928728,57.751088 53.1487627,58.5971372 52.9212309,59.422342 C52.3890186,61.365659 52.2522739,63.3963886 52.5191309,65.3937367 C52.6026671,66.0392453 52.7411005,66.6764196 52.9329199,67.2983047 C53.6506217,69.4839898 54.1298688,73.5625296 54.1298688,73.5625296 L54.9060154,80.641994 C54.8772027,81.6190914 54.9193944,82.5969945 55.0322561,83.567954 C54.239745,84.4745565 51.0580116,88.2532381 52.2736628,89.281658 C53.2087792,90.0922122 54.8452328,89.9586816 55.7639846,89.792354 C54.9901759,91.7109779 53.7721868,95.0469002 53.6108792,97.3380041 C53.3771001,100.727807 54.0106415,105.218652 55.0135538,106.942837 C56.0164661,108.667021 59.3595071,113.08993 59.3595071,113.08993 C59.3595071,113.08993 59.2028751,119.157373 60.3974862,121.361799 C61.5920974,123.566225 62.0736823,128.139062 62.0736823,128.139062 C62.0736823,128.139062 63.1888086,131.999736 62.6300765,133.419378 C62.0713445,134.839019 63.6657179,136.01971 61.9918596,136.963795 C60.3180013,137.90788 58.1765849,159.186098 58.1765849,159.186098 C58.1765849,159.186098 57.31394,173.131846 58.1765849,173.841667 C58.222746,173.875294 58.2720737,173.904325 58.3238657,173.928344 L58.3238657,178.613629 C58.3238657,178.613629 57.7253912,179.597538 60.1590315,179.796663 C61.8258765,179.930193 66.5505519,180.232394 69.3535632,180.408092 L71.5253709,180.543966 C71.5253709,180.543966 76.6685109,181.570043 78.9408436,180.543966 C81.2131764,179.517888 85.2411901,179.541315 84.6427157,176.830878 C84.5633582,176.462023 84.4570929,176.099501 84.3247761,175.746235 C83.6678569,174.064218 82.5527306,173.872121 80.4978124,173.403593 C80.3785851,173.377824 80.2640333,173.354397 80.1588327,173.335656 C77.9940383,172.958491 77.2833499,173.968169 76.0700364,172.653947 C75.0156927,171.517766 71.658625,170.245711 70.5154452,169.842777 C70.5434987,169.758442 70.5785656,169.676449 70.6066191,169.589771 C70.2829052,169.534738 69.9818248,169.387545 69.7392987,169.165753 L72.8368716,169.362535 L74.6813886,169.477324 C74.6813886,169.477324 79.0530576,170.35113 80.9934241,169.477324 C82.9337905,168.603519 86.3469652,168.626945 85.8373268,166.324128 C85.7701956,166.010328 85.6803425,165.701845 85.5684809,165.401127 C85.0097488,163.972116 84.0606057,163.815159 82.3142759,163.419252 C82.2137509,163.398168 82.1202393,163.377084 82.0267276,163.360686 C80.1868862,163.039744 79.5837361,163.897151 78.5527704,162.782053 C77.6690854,161.830941 74.8801009,160.765039 73.8771886,160.401929 C73.8771886,159.881862 73.1758513,159.141588 72.7340088,158.39897 C72.2150192,157.532192 73.1735135,154.498471 73.1735135,154.498471 L73.7205566,141.911455 C73.9288782,141.818473 74.1492401,141.755381 74.375138,141.724044 C74.375138,141.724044 76.8485208,139.357975 76.2897888,136.837292 C76.1759459,136.074902 76.1165709,135.30534 76.1121167,134.534475 C76.9256679,133.777802 78.0454697,132.660361 78.3634093,131.971625 C78.8823989,130.849499 78.3634093,125.412227 78.3634093,125.412227 L78.3634093,104.621278 L82.5012992,105.040611 L86.2557914,105.427147 L87.3989711,105.544279 L91.1534633,105.923787 L99.7822495,106.797593 L107.557742,105.321728 L110.921823,104.68453 L117.839346,103.37265 L117.839346,86.4119215 L125,85.2265446 Z M68.0490758,29.0242183 L67.5674909,28.9726802 C67.7264607,28.9797081 67.8947816,29.0101625 68.0490758,29.0242183 Z" id="Shape" fill="url(#linearGradient-1)"></path>
                <path d="M107.803361,96.8629401 C105.50793,100.363594 97.2558567,98.5092991 97.2558567,98.5092991 L90.8607865,92.1317985 L90,91.268255 L91.443826,88 C91.443826,88 91.9029121,88.1345464 92.6902449,88.3742837 C96.8243157,89.6536979 109.740705,93.9200428 107.803361,96.8629401 Z" id="Path" fill="#EFB7B9"></path>
                <path d="M94,87.3623446 C93.6846154,88.3759621 92.8205128,89.8940201 91.9615385,91 L91,90.1640024 L92.6128205,87 C92.6128205,87 93.1307692,87.1302546 94,87.3623446 Z" id="Path" fill="#000000" opacity="0.1"></path>
                <path d="M70.7829789,53.0979849 C70.7829789,53.0979849 64.7127752,55.7542119 65.0106123,62.2770098 C65.2249168,66.4793052 65.6890169,70.6655705 66.4005187,74.8142146 C66.4005187,74.8142146 65.1595308,84.6298945 70.3267681,87.1601897 C75.4940053,89.690485 80.2759453,91.7706908 80.2759453,91.7706908 C80.2759453,91.7706908 88.3600951,92.6288924 89.3647043,92.9833669 C90.3693136,93.3378414 93.508422,87.9181123 92.9292943,87.0739032 C92.3501666,86.2296941 84.9302409,84.4596534 83.9847263,83.0510836 C83.0392117,81.6425137 80.8527092,80.7726518 80.8527092,80.7726518 C80.8527092,80.7726518 78.5952932,79.4247157 78.441647,78.2073755 C78.2880009,76.9900353 78.8836751,76.0828603 79.0349574,75.5488165 C79.1862398,75.0147726 79.5691732,69.8585673 79.5691732,69.8585673 C79.5691732,69.8585673 82.117335,51.5051815 70.7829789,53.0979849 Z" id="Path" fill="#DCE6F2"></path>
                <path d="M74,75 C74,75 66.3060571,76.2945694 67.0507731,79 C67.0507731,79 69.8440041,76.0795392 74,75 Z" id="Path" fill="#000000" opacity="0.1"></path>
                <path d="M75,76 C75,76 70.1790622,79.7987956 71.1223433,79.9934208 C72.0656244,80.188046 75,76 75,76 Z" id="Path" fill="#000000" opacity="0.1"></path>
                <path d="M76.9332307,77 C76.9332307,77 75.3382553,79.1377595 76.3185966,78.992963 C77.2989379,78.8481665 76.9332307,77 76.9332307,77 Z" id="Path" fill="#000000" opacity="0.1"></path>
                <path d="M93.2798677,88.729501 L92.7756451,88.5852495 C92.9193721,88.1122936 92.9594272,87.7291994 92.8416181,87.5518409 C92.2643539,86.6957908 84.8730155,84.9032881 83.9328995,83.4725966 C82.9927834,82.0419051 80.8109603,81.1622072 80.8109603,81.1622072 C80.8109603,81.1622072 78.5608078,79.7953648 78.4076561,78.56095 C78.2545044,77.3265352 78.8482619,76.406636 78.9990574,75.8651016 C79.149853,75.3235671 79.5315542,70.0926753 79.5315542,70.0926753 C79.5315542,70.0926753 82.0644483,51.4842269 70.7665626,53.0993712 C70.7665626,53.0993712 64.715891,55.7952196 65.0104135,62.4095073 C65.2241096,66.6708474 65.6875076,70.9158713 66.3982039,75.1225609 C66.3982039,75.1225609 65.1612091,85.075917 70.3118198,87.6417025 C75.4624304,90.2074881 80.2289837,92.3168712 80.2289837,92.3168712 C80.2289837,92.3168712 88.284765,93.1847452 89.2884979,93.5465565 C89.6678429,93.6837137 90.3534915,92.9766447 91.0250029,92.0047204 L91.4067042,92.361802 L97.9710232,98.5244169 C97.9710232,98.5244169 106.441492,100.319284 108.797673,96.9352852 C110.788645,94.0880909 97.5327736,89.9639158 93.2798677,88.729501 Z" id="Path" fill="#000000" opacity="0.1"></path>
                <path d="M67.3248854,27.2406872 C67.1094343,27.2819701 66.9030782,27.360103 66.715262,27.4715098 C66.4951814,27.6505592 66.4951814,27.9568845 66.4401612,28.2243799 C66.3755285,28.5964854 66.2249736,28.9491856 66,29.2555315 C66.2504333,29.2735402 66.5016436,29.2328707 66.7328685,29.1368844 C66.6951984,29.4321463 66.6213037,29.7218714 66.5127879,29.9997727 C66.7928811,30.0067563 67.0511885,29.8523094 67.1730297,29.6050013 C67.2894797,29.3619143 67.381611,29.1083331 67.4481305,28.8478168 C67.4688025,28.769898 67.5046761,28.6966415 67.5537692,28.6320947 C67.7562434,28.3969576 68.1325812,28.5026614 68.4450957,28.5328625 C68.9747279,28.5766352 69.4869392,28.3355107 69.7831859,27.902954 C70.1155077,27.4089504 70.1353149,26.144819 69.3430247,26.0110713 C68.5155215,25.8773236 68.0005329,26.994764 67.3248854,27.2406872 Z" id="Path" fill="#965D7B"></path>
                <g id="Group" opacity="0.1" transform="translate(65.000000, 29.000000)" fill="#000000">
                    <path d="M0.860526316,0.4275 C0.884210526,0.305 0.9,0.1775 0.928947368,0.055 C0.678947368,0.2625 0.665789474,0.615 0.6,0.9275 C0.566853021,1.1078038 0.514840711,1.28451342 0.444736842,1.455 C0.651943416,1.14125263 0.79314585,0.792312818 0.860526316,0.4275 Z" id="Path"></path>
                    <path d="M0.944736842,2.4925 C1.07578173,2.17082772 1.16418027,1.83491326 1.20789474,1.4925 C0.944405211,1.59786027 0.659133711,1.64488057 0.373684211,1.63 C0.290593837,1.80582886 0.189212774,1.973328 0.0710526316,2.13 C0.369450458,2.15193517 0.669037962,2.10564349 0.944736842,1.995 C0.901022377,2.33741326 0.812623835,2.67332772 0.681578947,2.995 C1.01631677,3.00245745 1.32484978,2.82366257 1.47105263,2.5375 C1.53661469,2.42386801 1.58953211,2.30405414 1.62894737,2.18 C1.47202624,2.3883433 1.21401943,2.50618295 0.944736842,2.4925 Z" id="Path"></path>
                    <path d="M3.25526316,0.7925 C2.88157895,0.7575 2.42894737,0.635 2.18684211,0.9075 C2.12920811,0.982912854 2.08641346,1.06761058 2.06052632,1.1575 C2.03684211,1.2225 2.01578947,1.29 1.99736842,1.3575 C2.24736842,1.17 2.65263158,1.27 2.99210526,1.3025 C3.62508906,1.35160409 4.23673596,1.07254019 4.59210526,0.5725 C4.67186872,0.451105676 4.73134651,0.318701007 4.76842105,0.18 C4.40246002,0.610291833 3.83543608,0.839813263 3.25526316,0.7925 Z" id="Path"></path>
                </g>
                <polygon id="Path" fill="#DCE6F2" points="74.2659158 47 78 51.4792402 77.5127326 56 73 48.953867"></polygon>
                <polygon id="Path" fill="#000000" opacity="0.1" points="78 51.4792402 77.5418912 55.7313433 77.5124939 56 73.4385105 49.6401628 73 48.953867 73.1273885 48.756038 74.2640862 47 74.5164135 47.3028494"></polygon>
                <path d="M79.3593206,41.2087833 C78.1047149,41.549748 76.9060316,42.7200864 75.8629582,44.1415407 C75.157947,45.1222993 74.5274331,46.1493195 73.9761869,47.2148308 C73.6333586,47.8645068 73.3318642,48.4888409 73.0814293,49.0325414 L72.906368,49.4195824 C72.4833033,50.3664507 72.2474569,51 72.2474569,51 C72.2474569,51 62.6434017,44.1576674 64.1630307,43.6969042 C64.673626,43.5425486 65.3446942,42.5058315 66.0084681,41.199568 L66.091136,41.0336933 C66.5117693,40.1951044 66.9251083,39.2597552 67.2922507,38.3796976 C68.0435553,36.5712023 68.6003473,35 68.6003473,35 C68.6003473,35 83.1887857,40.1720662 79.3593206,41.2087833 Z" id="Path" fill="#EFB7B9"></path>
                <path d="M86,35 C86,35 88.1562462,38.4230372 91.0525199,37.9562594 C93.9487935,37.4894816 92.7571838,36.1181921 92.7571838,36.1181921 L86,35 Z" id="Path" fill="#444053"></path>
                <path d="M81.2057605,169.59586 C79.3132607,170.505175 75.0340562,169.59586 75.0340562,169.59586 L73.2305601,169.477575 C70.8883573,169.319862 66.9675099,169.053721 65.5809259,168.935436 C63.5572627,168.760473 64.0538097,167.888122 64.0538097,167.888122 L64.0538097,162.617053 L73.8723237,160 C73.8723237,160 77.7533537,161.39724 78.8167137,162.617053 C79.8262031,163.780187 80.4164382,162.885658 82.2175921,163.220798 C82.3065958,163.238048 82.4002839,163.257762 82.4986565,163.282405 C84.2084645,163.693938 85.1359768,163.85658 85.6840522,165.347462 C85.7941874,165.660683 85.8826413,165.981876 85.9487211,166.308526 C86.4546369,168.708724 83.0959182,168.691474 81.2057605,169.59586 Z" id="Path" fill="#A36468"></path>
                <path d="M86,164.379283 C85.6430466,164.638054 85.2678272,164.86125 84.8783723,165.046475 C83.5713909,165.73848 82.3285704,166.582119 81.007331,167.235526 C79.6860916,167.888933 78.26267,168.354864 76.8321194,168.2308 C76.0835755,168.167389 75.3183973,167.9551 74.603122,168.20323 C74.1607689,168.401388 73.7441392,168.669514 73.3650541,169 C70.9887242,168.823553 67.0107481,168.525798 65.6039608,168.393462 C63.5508118,168.197716 64.0545937,167.221741 64.0545937,167.221741 L64.0545937,166.532493 C64.1282599,166.532493 64.2114315,166.50768 64.3064847,166.499409 C64.7982585,166.49029 65.2879782,166.57505 65.7560459,166.750295 C66.787373,167.07562 67.8139476,167.395431 68.8452747,167.715242 C69.0167061,166.964717 69.4462655,166.328797 70.0334396,165.956282 C70.6220892,165.593744 71.2827638,165.417808 71.9487615,165.446239 C73.5480315,165.471052 75.0617536,166.350532 76.6586473,166.438755 C77.1050998,166.48638 77.5545717,166.398993 77.9632524,166.185112 C78.1818747,166.058291 78.3743575,165.873572 78.5882272,165.732966 C78.9305019,165.540869 79.2921311,165.399164 79.6647046,165.311146 C80.7118998,165.008716 81.7400736,164.62368 82.7420518,164.158724 C83.0272113,164.029145 83.3598975,163.794801 83.3218762,163.441906 C83.2719733,162.973218 82.6374932,162.918078 82.4711502,162.487987 C82.4116503,162.330764 82.4186785,162.150355 82.4901608,162 C82.5804613,162.019299 82.6755145,162.041355 82.7753204,162.068925 C84.5029122,162.529342 85.4439388,162.711304 86,164.379283 Z" id="Path" fill="#000000" opacity="0.1"></path>
                <path d="M79.3311722,180.555731 C77.0962429,181.555336 72.0382451,180.555731 72.0382451,180.555731 L69.9091808,180.43366 C67.1519839,180.260917 62.508036,179.973013 60.8683037,179.837122 C58.4757531,179.64365 59.0638924,178.685504 59.0638924,178.685504 L59.0638924,172.879045 L70.6690568,170 C70.6690568,170 75.2565433,171.536259 76.5128088,172.879045 C77.7055552,174.157341 78.3948545,173.173859 80.5333289,173.542377 C80.639194,173.560803 80.7497642,173.583835 80.8650395,173.609171 C82.8858861,174.069818 83.9821777,174.242561 84.6291309,175.882465 C84.7601127,176.22676 84.8646991,176.580134 84.942021,176.939651 C85.5254552,179.579159 81.5661015,179.55843 79.3311722,180.555731 Z" id="Path" fill="#A36468"></path>
                <path d="M85,175.369267 C84.5944328,175.627897 84.1683196,175.851312 83.7261478,176.037161 C82.2411346,176.72849 80.8272734,177.572146 79.3261936,178.225979 C77.8251137,178.879813 76.2069772,179.343823 74.5796597,179.221962 C73.7304249,179.158688 72.8605331,178.940743 72.0549077,179.19384 C71.5501132,179.394566 71.0750564,179.665876 70.6433417,180 C67.9533332,179.824238 63.4225509,179.531302 61.8227762,179.393036 C59.4885281,179.196183 60.0623354,178.221292 60.0623354,178.221292 L60.0623354,177.532307 C60.1573701,177.516461 60.2531259,177.505511 60.3492391,177.499498 C60.90839,177.48907 61.4653367,177.573814 61.9972136,177.750251 L65.5066189,178.715768 C65.7041935,177.963088 66.1964283,177.326594 66.8676898,176.955809 C67.5366682,176.591689 68.2883173,176.415393 69.0458623,176.444928 C70.8636837,176.470706 72.5828104,177.349515 74.3983366,177.438567 C74.9039492,177.485659 75.4129315,177.399314 75.8764642,177.187814 C76.1266442,177.058922 76.33551,176.873786 76.5879852,176.735521 C76.9761662,176.54143 77.3873909,176.399635 77.8113423,176.313693 C78.9950003,176.008724 80.1574327,175.623538 81.2909097,175.160696 C81.614537,175.029461 81.9932498,174.795112 81.9496405,174.443589 C81.8922597,173.974891 81.1715578,173.918647 80.9810538,173.487446 C80.9160098,173.329799 80.9244502,173.150548 81.0040061,173 C81.1072914,173.018748 81.2151672,173.042183 81.3276334,173.067961 C83.2992352,173.517911 84.368812,173.700703 85,175.369267 Z" id="Path" fill="#000000" opacity="0.1"></path>
                <path d="M73.9313531,140 L73.2851305,154.610644 C73.2851305,154.610644 72.3170069,157.594165 72.842214,158.447595 C73.367421,159.301026 74.2532542,160.152132 73.9313531,160.656749 C73.609452,161.161366 69.7369573,166.616813 68.4856575,164.523931 C67.2343577,162.431048 66,153.361891 66,153.361891 L67.1544875,142.16032 L73.9313531,140 Z" id="Path" fill="#444053"></path>
                <path d="M76.8487123,102 L78.7525421,104.368741 L78.7525421,124.971056 C78.7525421,124.971056 79.3093224,130.463097 78.7525421,131.597323 C78.1957617,132.731548 75.3733726,135 75.3733726,135 L73,123.657742 L73.5131616,111.658828 L76.8487123,102 Z" id="Path" fill="#444053"></path>
                <path d="M73.9313531,140 L73.2851305,154.610644 C73.2851305,154.610644 72.3170069,157.594165 72.842214,158.447595 C73.367421,159.301026 74.2532542,160.152132 73.9313531,160.656749 C73.609452,161.161366 69.7369573,166.616813 68.4856575,164.523931 C67.2343577,162.431048 66,153.361891 66,153.361891 L67.1544875,142.16032 L73.9313531,140 Z" id="Path" fill="#000000" opacity="0.1"></path>
                <path d="M76.8487123,102 L78.7525421,104.368741 L78.7525421,124.971056 C78.7525421,124.971056 79.3093224,130.463097 78.7525421,131.597323 C78.1957617,132.731548 75.3733726,135 75.3733726,135 L73,123.657742 L73.5131616,111.658828 L76.8487123,102 Z" id="Path" fill="#000000" opacity="0.1"></path>
                <path d="M79,93.6573469 L79,104.658529 L77.0693327,113.222338 C77.0693327,113.222338 76.4504993,133.888155 76.9905299,136.40096 C77.5305605,138.913765 75.1363476,141.27335 75.1363476,141.27335 C75.1363476,141.27335 73.7457109,141.431284 73.7457109,142.529753 C73.7457109,143.628221 71.427983,146.772763 71.427983,146.772763 L71.5044681,152.901555 C71.5044681,152.901555 72.510362,164.374183 70.9644375,166.573477 C69.418513,168.772771 71.5044681,169.088639 71.5044681,169.088639 C69.5738007,175.530943 60.3028892,174.038818 59.4661895,173.331649 C58.6294897,172.624481 59.4661895,158.716836 59.4661895,158.716836 C59.4661895,158.716836 61.5382382,137.501785 63.1606477,136.558894 C64.7830572,135.616003 63.2394505,134.437389 63.7794811,133.023052 C64.3195117,131.608716 63.2394505,127.759363 63.2394505,127.759363 C63.2394505,127.759363 62.7759049,123.200484 61.617041,121.00119 C60.458177,118.801897 60.6111471,112.750893 60.6111471,112.750893 C60.6111471,112.750893 57.366328,108.349948 56.4021532,106.6221 C55.4379784,104.894252 54.8168274,100.415519 55.0486002,97.0352545 C55.2062057,94.7511006 56.3859291,91.4250521 57.1345552,89.5109831 C57.4938031,88.5940214 57.7533886,88 57.7533886,88 L57.9735727,88.0589307 L70.6330024,91.4297666 L79,93.6573469 Z" id="Path" fill="#444053"></path>
                <path d="M80.3951997,41.7974827 C79.2106866,42.1698097 78.0789716,43.4477968 77.0941729,44.9999977 L76.8370693,44.9999977 C73.8988759,45.0022747 71.1841467,43.2815249 69.7208084,40.4893069 C69.4203727,39.9208993 69.1786142,39.3176029 69,38.6905652 C69.7093305,36.7157229 70.2350156,35 70.2350156,35 C70.2350156,35 84.0107194,40.6654075 80.3951997,41.7974827 Z" id="Path" fill="#000000" opacity="0.1"></path>
                <path d="M84.9999888,36.496122 C85.0057631,40.0569362 82.7861515,43.2429762 79.441275,44.4751236 C76.0963986,45.7072709 72.3371126,44.7236689 70.0266572,42.0118267 C67.7162019,39.2999846 67.3455966,35.4362247 69.0985271,32.3355685 C69.3561987,31.875838 69.6571373,31.4416727 69.997264,31.0389577 C70.5579462,30.3717903 71.2169443,29.7936599 71.9516601,29.3243917 C74.4761408,27.7220862 77.6580146,27.5629835 80.3300977,28.9054461 C83.0021807,30.2479086 84.7711475,32.8943286 84.9881007,35.8739388 C84.9928559,36.0829163 84.9999888,36.2895191 84.9999888,36.496122 Z" id="Path" fill="#EFB7B9"></path>
                <path d="M77,55.7357463 L76.9707759,56 L72.9207966,49.7540038 C72.4970465,50.7413517 72.260818,51.4019859 72.260818,51.4019859 C72.260818,51.4019859 62.641204,44.2575272 64.1632948,43.777066 C64.6747173,43.6161115 65.3468726,42.5350737 66.0117219,41.172966 L66.0945236,41 C66.8007738,43.0755926 70.9043307,47.2243754 72.6115077,48.8867713 C72.8087707,49.0789558 72.9719388,49.237508 73.0985768,49.3528187 L73.3591587,49.5930493 L73.4955381,49.7275785 C74.1165511,50.359385 76.7369827,53.1460602 77,55.7357463 Z" id="Path" fill="#000000" opacity="0.1"></path>
                <path d="M81,76.9205329 L80.567341,90.5694371 L80.4912691,93 C80.4912691,93 75.3659237,92.5339285 70.582902,92.0212498 C66.7317613,91.6087765 63.1017046,91.1636783 62.5430514,90.9026782 C61.8298772,90.5740978 60.3013072,90.3200888 59.0960427,90.1592941 C58.1641618,90.0357852 57.4319696,89.9705352 57.4319696,89.9705352 C57.4319696,89.9705352 57.1585861,90.0497673 56.7378133,90.1243388 C55.8201959,90.2874638 54.2084221,90.4202942 53.2694094,89.6209816 C52.0688995,88.5979546 55.2235068,84.8810343 56.0103756,83.9885074 L56.1839147,83.7950877 L55.8867588,81.1035247 L55.1141534,74.1241038 C55.1141534,74.1241038 54.6387039,70.1042371 53.9255297,67.9486563 C53.7348637,67.3357952 53.5972878,66.7082568 53.5142659,66.0727185 C53.2492863,64.1039647 53.3850279,62.1032496 53.9136435,60.1862353 C54.1394937,59.3716642 54.2828225,58.5372399 54.341548,57.6950831 C54.4604104,55.5395024 61.1761342,47.2084741 62.8402073,46.4511079 C63.5887826,46.1089106 64.1911411,45.5200826 64.5423165,44.7872327 C64.6582524,44.556806 64.7452606,44.3134499 64.8014364,44.0624915 C65.5146106,41.0330266 67.3189414,42.2354911 67.3189414,42.2354911 C67.7539777,44.6054648 74.4887195,50.8787873 74.4887195,50.8787873 L74.6218453,51.0092873 C75.2898518,51.6804303 78.2661655,54.8310737 78.0545905,57.5203063 C78.0123131,58.521217 78.1647938,59.5208678 78.5038903,60.4658782 C79.8737844,64.6942479 80.6612797,69.0830693 80.8454789,73.5158805 L81,76.9205329 Z" id="Path" fill="#DCE6F2"></path>
                <path d="M70.9511573,60 C70.9511573,60 69.37808,63.9470281 68.198272,64.5855179 C67.0184641,65.2240078 71.5129706,65.932151 70.9511573,60 Z" id="Path" fill="#000000" opacity="0.1"></path>
                <path d="M72,68 C72,68 68,68.7050781 68,69.7626953 C68,70.8203125 72,68 72,68 Z" id="Path" fill="#000000" opacity="0.1"></path>
                <path d="M76,72 C76,72 70.6692151,83.6398601 69.1788882,83.9925831 C67.6885612,84.3453061 76,72 76,72 Z" id="Path" fill="#000000" opacity="0.1"></path>
                <path d="M74,51.0442588 L69.4688973,53 L64,44.7980519 C64.1149128,44.5667308 64.2011531,44.32243 64.2568332,44.0704975 C64.9637135,41.0292731 66.7521206,42.2364052 66.7521206,42.2364052 C67.1833176,44.6155784 73.8586239,50.9132522 73.8586239,50.9132522 L74,51.0442588 Z" id="Path" fill="#000000" opacity="0.1"></path>
                <path d="M75,50.0442588 L70.4688973,52 L65,43.7980519 C65.1149128,43.5667308 65.2011531,43.32243 65.2568332,43.0704975 C65.9637135,40.0292731 67.7521206,41.2364052 67.7521206,41.2364052 C68.1833176,43.6155784 74.8586239,49.9132522 74.8586239,49.9132522 L75,50.0442588 Z" id="Path" fill="#DCE6F2"></path>
                <path d="M78.9272538,92.7577432 C78.9272538,92.7577432 74.0259785,92.2899909 69.452061,91.7754634 L77.6587419,93.9855928 L77.6587419,96.5582301 C77.2995575,96.892673 76.9881129,97.0657413 76.7857875,96.9768684 C75.8400869,96.5675852 68.1221695,95.2812665 68.1221695,95.2812665 C68.1221695,95.2812665 63.6391849,92.9425053 58.8015624,90.1359918 C58.684139,90.069068 58.5703079,89.9956804 58.4605646,89.9161483 C57.8964973,89.5221459 57.4104562,89.0213194 57.0283738,88.44039 C56.1349595,87.1096349 55.6984823,85.4000004 55.5097968,83.7231086 C55.4037209,82.7620835 55.3642171,81.7945137 55.3915842,80.8277223 C55.415017,79.7314754 55.5122447,78.6382157 55.6825691,77.5557953 C55.2147162,73.3634254 54.9869909,69.1463711 55.0005734,64.9264849 C55.0574064,58.3779535 61.0248682,56.0391923 61.0248682,56.0391923 C71.9936315,55.0452188 68.5927465,73.2875561 68.5927465,73.2875561 C68.5927465,73.2875561 67.9584906,78.4328308 67.7857184,78.9590521 C67.6129461,79.4852733 66.9923301,80.3623088 67.0764429,81.5901584 C67.1605557,82.818008 69.2565556,84.2867501 69.2565556,84.2867501 C69.2565556,84.2867501 71.3025425,85.2737073 72.1459438,86.7354331 C72.7597399,87.813602 76.7471411,89.2753277 79,90.3184152 L78.9272538,92.7577432 Z" id="Path" fill="#000000" opacity="0.1"></path>
                <path d="M83.9998335,29.6106596 C84.0041675,30.0272409 83.9238462,30.4398198 83.7644761,30.8195983 C83.6438201,31.1295021 83.5038573,31.4303113 83.3455399,31.7199795 C83.0978328,32.2528191 82.7462394,32.7220796 82.3146744,33.0958428 C81.7709988,33.5131543 81.0837551,33.6294957 80.431815,33.7989494 C79.779875,33.9684032 79.1020456,34.2390233 78.7301809,34.8359052 C78.5286456,35.219609 78.3938596,35.639564 78.3324269,36.0751939 C78.2700791,36.5104486 78.1083567,36.922325 77.8617121,37.2740159 C77.597557,37.6271932 77.1445611,37.7436903 76.7602393,37.5572819 C76.5634036,37.4146833 76.4141405,37.2082032 76.3342424,36.9679875 C76.065935,36.3179933 75.9976813,35.5971825 75.8894169,34.8966051 C75.7811525,34.1960276 75.6281702,33.4752169 75.2280626,32.9112141 C74.8279549,32.3472113 74.1195291,31.9754247 73.4911248,32.1954616 C73.0661296,32.3712809 72.7261733,32.7256398 72.5496952,33.1767759 C72.3757765,33.6237526 72.2563246,34.093002 72.1943055,34.5728725 C71.9024623,36.2893295 71.5580559,37.9956697 71.1610864,39.6918934 C71.1489753,39.7614258 71.1224274,39.8271278 71.0834184,39.8841096 C71.0208478,39.9511277 70.9363985,39.9892426 70.848061,39.9903343 C70.3208604,40.0662091 69.814842,39.6691309 69.2829342,39.7121267 C69.2281248,39.7160496 69.1737652,39.7253622 69.1205376,39.7399474 C67.3588938,36.449904 67.6983224,32.3275052 69.9701779,29.4209726 L70.0125422,29.4083268 C70.3663716,29.2733503 70.6879129,29.0556666 70.9539719,28.7709783 C71.2937236,28.4056257 71.6083595,28.0142645 71.8954015,27.599977 L72.0836875,27.347061 C72.6246704,26.6467182 73.2408856,26.0176402 73.9194753,25.472953 C74.1047089,25.3098777 74.3171898,25.186269 74.545526,25.1087539 C74.7409343,25.0678454 74.9411973,25.0610136 75.1386267,25.0885206 C75.9514305,25.1933737 76.7708714,25.2263635 77.5886975,25.1871579 C78.158555,25.0908964 78.7329114,25.0284159 79.3091602,25 C80.7989726,25.0455249 82.0699027,26.1760596 83.0113323,27.4153483 C83.5173508,28.0501676 83.969237,28.781095 83.9998335,29.6106596 Z" id="Path" fill="#000000" opacity="0.1"></path>
                <path d="M68.4011743,31.0570569 C68.0776887,31.6132425 67.4935527,31.9913512 67.2747926,32.6012039 C66.9536342,33.48671 67.4958799,34.5893236 66.9978517,35.3796927 C66.832618,35.6455885 66.5603315,35.8431807 66.4672421,36.1481071 C66.3089901,36.6628228 66.7418558,37.2116902 66.6301485,37.7410423 C66.5184413,38.2703944 65.8528521,38.7168066 66.0297219,39.2339617 C66.1342435,39.4595027 66.3175857,39.6342114 66.5417136,39.7218438 C66.8943484,39.9338829 67.3002247,40.0283306 67.7053311,39.9926184 C68.3406662,39.8828449 68.8130949,39.2290829 69.457739,39.1802946 C69.9813669,39.1412641 70.4817224,39.5218121 71.003023,39.4510692 C71.0903913,39.4478828 71.173439,39.410451 71.2357465,39.3461746 C71.2752947,39.291809 71.3016501,39.228186 71.3125452,39.1607794 C71.7035207,37.5263742 72.0448485,35.880585 72.3365286,34.223412 C72.3959615,33.7604371 72.5133334,33.307689 72.6856139,32.8768573 C72.8614672,32.4426987 73.1971513,32.1013901 73.6165078,31.9303659 C74.2378796,31.7205766 74.9360501,32.0767306 75.3340072,32.6207192 C75.7319644,33.1647078 75.8832347,33.8599398 75.9902875,34.5356566 C76.0973403,35.2113734 76.1648301,35.9066054 76.4278077,36.533534 C76.5077144,36.76605 76.6560353,36.9659402 76.8513644,37.1043561 C77.2004497,37.3165848 77.6705511,37.1482655 77.9381831,36.8311421 C78.1833628,36.4917965 78.3433975,36.0933936 78.4036301,35.672422 C78.4643448,35.2530129 78.5976329,34.8487551 78.7969328,34.4795501 C79.1646359,33.9038492 79.8372068,33.6428323 80.4795237,33.4793917 C81.1218405,33.3159512 81.7990659,33.2012989 82.3413117,32.7987961 C82.7674765,32.4386769 83.1150586,31.9870001 83.3606406,31.4741961 C83.7050713,30.8448281 84.0262298,30.1617931 83.9983029,29.4372881 C83.9680489,28.6469191 83.5212198,27.9419294 83.0441366,27.3271978 C82.1132426,26.1318866 80.8542085,25.04147 79.3810688,25 C78.8111012,25.024982 78.2430408,25.0852593 77.6798601,25.1805164 C76.8711259,25.2186376 76.0607673,25.185999 75.2572085,25.08294 C75.0618132,25.058441 74.8639754,25.0658472 74.6707453,25.1048947 C74.4447015,25.1772558 74.2349333,25.2967373 74.054028,25.4561698 C73.3823772,25.9806539 72.7722804,26.5865862 72.2364575,27.2613338 C71.8909704,27.7415075 71.5162828,28.1978123 71.1147303,28.6274038 C70.8515414,28.9024261 70.5336818,29.1131629 70.1838363,29.2445747 C69.9511128,29.3128782 69.7183893,29.26409 69.497302,29.3397117 C68.8107677,29.5665769 68.7200055,30.50575 68.4011743,31.0570569 Z" id="Path" fill="#965D7B"></path>
                <path d="M91.0534967,37.9558822 C89.161687,38.261019 87.5938497,36.9180022 86.725982,35.9382435 C86.4594334,35.6406908 86.2168509,35.3271823 86,35 L92.4936368,36.0752437 L92.7561254,36.1188346 C92.7561254,36.1188346 93.9503303,37.490912 91.0534967,37.9558822 Z" id="Path" fill="#000000" opacity="0.1"></path>
                <g id="Group" opacity="0.1" transform="translate(66.000000, 29.000000)" fill="#000000">
                    <path d="M0.795189873,7.92478261 C0.820688503,7.61204323 0.775407378,7.29740617 0.663037975,7.00652174 C0.663037975,7.03043478 0.642531646,7.05434783 0.635696203,7.07826087 C0.537721519,7.39869565 0.669873418,7.73108696 0.754177215,8.06347826 C0.772282964,8.01882134 0.786024236,7.97235143 0.795189873,7.92478261 Z" id="Path"></path>
                    <path d="M1.33746835,4.01021739 C1.31402724,4.34088678 1.32012981,4.67313313 1.3556962,5.0026087 C1.37905744,4.67193701 1.37295502,4.33969849 1.33746835,4.01021739 Z" id="Path"></path>
                    <path d="M17.161519,1.77434783 C16.9217152,2.27814414 16.5813398,2.72182681 16.1635443,3.07521739 C15.6372152,3.46978261 14.9741772,3.57978261 14.3407595,3.74 C13.7073418,3.90021739 13.0534177,4.15608696 12.6934177,4.72043478 C12.498637,5.08337731 12.3681724,5.48037808 12.3083544,5.89217391 C12.249008,6.30473294 12.0923635,6.69518535 11.8526582,7.02804348 C11.5906329,7.33891304 11.1303797,7.50630435 10.7886076,7.29586957 C10.5973705,7.16018326 10.4521568,6.96423505 10.3739241,6.73630435 C10.1164557,6.12173913 10.0481013,5.4426087 9.94556962,4.77782609 C9.84303797,4.11304348 9.69037975,3.43391304 9.30303797,2.90065217 C8.9156962,2.3673913 8.22987342,2.01586957 7.62151899,2.22391304 C7.21051749,2.39086037 6.88163837,2.72566964 6.71012658,3.15173913 C6.54145532,3.57407463 6.42654228,4.01789434 6.36835443,4.47173913 C6.0843038,6.09623188 5.75012658,7.70956522 5.36582278,9.31173913 C5.35515589,9.37781653 5.32935261,9.44018484 5.29063291,9.49347826 C5.22963067,9.55648711 5.14832277,9.59318074 5.06278481,9.59630435 C4.55240506,9.66565217 4.06253165,9.2926087 3.54987342,9.33086957 C2.91873418,9.37869565 2.45620253,10.0195652 1.83417722,10.1247826 C1.43741051,10.1621287 1.03937458,10.0693892 0.694936709,9.85934783 C0.536566767,9.78783686 0.394451674,9.68188175 0.277974684,9.54847826 C0.169957577,9.71081146 0.138883207,9.91618569 0.193670886,10.1056522 C0.294032026,10.3282855 0.47423067,10.5002141 0.694936709,10.583913 C1.03937458,10.7939544 1.43741051,10.8866939 1.83417722,10.8493478 C2.45620253,10.7441304 2.91873418,10.1032609 3.54987342,10.0554348 C4.06253165,10.0171739 4.55240506,10.3902174 5.06278481,10.3208696 C5.14832277,10.317746 5.22963067,10.2810523 5.29063291,10.2180435 C5.32935261,10.1647501 5.35515589,10.1023817 5.36582278,10.0363043 C5.74860759,8.44210145 6.08278481,6.82876812 6.36835443,5.19630435 C6.42654228,4.74245956 6.54145532,4.29863985 6.71012658,3.87630435 C6.88163837,3.45023486 7.21051749,3.11542559 7.62151899,2.94847826 C8.22987342,2.74043478 8.91341772,3.09195652 9.30303797,3.62521739 C9.69265823,4.15847826 9.84075949,4.84 9.94556962,5.5023913 C10.0503797,6.16478261 10.1164557,6.84630435 10.3739241,7.46086957 C10.4521568,7.68880026 10.5973705,7.88474848 10.7886076,8.02043478 C11.1303797,8.22847826 11.5906329,8.06347826 11.8526582,7.7526087 C12.0923635,7.41975057 12.249008,7.02929815 12.3083544,6.61673913 C12.3681724,6.2049433 12.498637,5.80794253 12.6934177,5.445 C13.0534177,4.88065217 13.7118987,4.62717391 14.3407595,4.46456522 C14.9696203,4.30195652 15.6326582,4.19434783 16.1635443,3.79978261 C16.5813398,3.44639203 16.9217152,3.00270936 17.161519,2.49891304 C17.4987342,1.88434783 17.8131646,1.21478261 17.7858228,0.504565217 C17.7813392,0.413249622 17.7722123,0.322250478 17.758481,0.231956522 C17.6485503,0.779279023 17.4463908,1.30160541 17.161519,1.77434783 Z" id="Path"></path>
                </g>
                <path d="M83.9342913,31.4183283 C84.5484356,32.518036 84.9124335,33.7413729 85,35 C82.8661877,33.7940499 80.8593025,32.4699168 79.8462805,32.0092439 C78.0812753,31.2060811 71.4810657,31.3266761 69,31.401445 C69.25954,30.9345216 69.5626608,30.4935635 69.9052537,30.0845476 C70.4721837,29.4063786 71.1384147,28.8191748 71.8810058,28.3431557 C73.8685352,27.072802 76.2875501,26.6821361 78.5698237,27.2629256 C80.8520973,27.8437151 82.7964906,29.3447744 83.9462655,31.4135045 L83.9342913,31.4183283 Z" id="Path" fill="#000000" opacity="0.1"></path>
                <path d="M89.8272264,35.9239102 C88.6529927,36.2086489 86.7366237,35.6584106 84.7494589,34.8696074 C84.4742907,34.5938218 84.2238635,34.3032477 84,34 L90.7036295,34.9965855 C91.1479342,35.2351503 91.2602309,35.5756824 89.8272264,35.9239102 Z" id="Path" fill="#000000" opacity="0.1"></path>
                <path d="M77.6788149,24.0101792 C77.6788149,24.0101792 71.5579419,23.6736301 69.8371022,26.8708463 L69.5596227,29.7045895 L69.0932704,29.655229 L69,31.5825334 C69,31.5825334 78.3550256,31.1898928 80.4839235,32.1142809 C82.6128214,33.0386691 89.2280276,37.6965083 91.87924,36.9112271 C94.5304524,36.1259459 91.6460639,35.3967562 91.6460639,35.3967562 C91.6460639,35.3967562 87.9968578,33.9092093 87.9968578,32.7425059 C87.9968578,31.5758024 87.0921345,25.412467 77.6788149,24.0101792 Z" id="Path" fill="#444053"></path>
                <path d="M64,133 C64,133 68.1875,137.313609 70,136.981793 C70,136.981793 64.875,136.517251 64,133 Z" id="Path" fill="#000000" opacity="0.1"></path>
                <path d="M63,135 C63,135 63.4627497,137.200983 64.6967488,136.985097 C65.9307479,136.769211 63,135 63,135 Z" id="Path" fill="#000000" opacity="0.1"></path>
                <path d="M70,168 C70,168 64.1213098,172.866 65.112628,172.997513 C66.1039463,173.129027 70,168 70,168 Z" id="Path" fill="#000000" opacity="0.1"></path>
                <polygon id="Path" fill="#4EDDB2" points="77 81.0938272 95 78 95 96 77.8976623 95.054321"></polygon>
                <polygon id="Path" fill="#000000" opacity="0.05" points="77 81.0938272 95 78 95 96 77.8976623 95.054321"></polygon>
                <polygon id="Path" fill="#4EDDB2" points="95 78 117 79.7061728 115.782543 95.3703704 95 96"></polygon>
                <polygon id="Path" fill="#000000" opacity="0.1" points="95 78 117 79.7061728 115.782543 95.3703704 95 96"></polygon>
                <polygon id="Path" fill="#4EDDB2" points="102.606628 74 96 79.3412209 117.488411 81 121 75.5339506"></polygon>
                <polygon id="Path" fill="#4EDDB2" points="71 75.8045205 86.8627002 74 95 78.3210141 77.3798627 81"></polygon>
                <polygon id="Path" fill="#4EDDB2" points="100 83.4481003 100 106 91.5472944 105.162817 87.8704729 104.800792 86.7503196 104.687659 83.0758415 104.323371 78 103.821062 78 82 96.0419685 83.1856321"></polygon>
                <polygon id="Path" fill="#4EDDB2" points="117 80 117 103.49718 110.103896 104.83884 106.750066 105.491539 99 107 99 82.9057212"></polygon>
                <polygon id="Path" fill="#000000" opacity="0.05" points="117 80 117 103.49718 110.103896 104.83884 106.750066 105.491539 99 107 99 82.9057212"></polygon>
                <polygon id="Path" fill="#4EDDB2" points="71 86.9481132 77.4113009 82 99 83.509434 95.8219448 89"></polygon>
                <polygon id="Path" fill="#FFFFFF" opacity="0.1" points="71 86.9481132 77.4113009 82 99 83.509434 95.8219448 89"></polygon>
                <polygon id="Path" fill="#4EDDB2" points="117.184173 80 100 82.8265726 105.592941 88 124 84.8112875"></polygon>
                <polygon id="Path" fill="#FFFFFF" opacity="0.1" points="117.184173 80 100 82.8265726 105.592941 88 124 84.8112875"></polygon>
                <polygon id="Path" fill="#FFFFFF" opacity="0.1" points="112 104.327522 109 105 109 99.8268991 111.8101 99"></polygon>
                <polygon id="Path" fill="#FFFFFF" opacity="0.1" points="92 102 92 105 88 104.650655 88 102"></polygon>
                <polygon id="Path" fill="#FFFFFF" opacity="0.1" points="86 103 86 105 82 104.559508 82 103"></polygon>
                <path d="M98.7681744,101.273411 C96.2618383,104.461146 87.9851005,102.258711 87.9851005,102.258711 L81.8346682,95.8786041 L81,95.0138585 L82.6320328,92 C82.6320328,92 83.0983279,92.1530113 83.8770407,92.4219402 C87.9990893,93.8546822 100.87816,98.5910768 98.7681744,101.273411 Z" id="Path" fill="#000000" opacity="0.1"></path>
                <path d="M96.7681744,100.273411 C94.2618383,103.461146 85.9851005,101.258711 85.9851005,101.258711 L79.8346682,94.8786041 L79,94.0138585 L80.6320328,91 C80.6320328,91 81.0983279,91.1530113 81.8770407,91.4219402 C85.9990893,92.8546822 98.8781597,97.5910768 96.7681744,100.273411 Z" id="Path" fill="#EFB7B9"></path>
                <path d="M82,91.4351464 C81.6450567,92.4393305 80.7431118,93.9264794 79.8703404,95 L79,94.1081889 L80.7017828,91 C80.7017828,91 81.1904376,91.1578004 82,91.4351464 Z" id="Path" fill="#000000" opacity="0.1"></path>
                <path d="M62.1240311,54.0400872 C62.1240311,54.0400872 56.0583512,56.3793592 56.0005829,62.9293207 C55.9867768,67.1501285 56.2182502,71.3681038 56.6938034,75.5613892 C56.6938034,75.5613892 54.960752,85.3278496 59.8710643,88.134976 C64.7813765,90.9421023 69.3450785,93.2813743 69.3450785,93.2813743 C69.3450785,93.2813743 77.1900244,94.5679739 78.153601,94.9773465 C79.1171775,95.386719 82.4654328,90.1233571 81.9455174,89.2461302 C81.425602,88.3689032 74.2831195,86.2050766 73.4350797,84.7430317 C72.5870399,83.2809867 70.4981353,82.2961532 70.4981353,82.2961532 C70.4981353,82.2961532 68.3676375,80.8247511 68.2821403,79.5966334 C68.1966431,78.3685156 68.8251631,77.4912886 69.0030897,76.9649524 C69.1810163,76.4386162 69.8257114,71.2922179 69.8257114,71.2922179 C69.8257114,71.2922179 73.2733283,53.0342003 62.1240311,54.0400872 Z" id="Path" fill="#DCE6F2"></path>
                <path d="M65,77 C65,77 56.3682801,77.969697 57.0369345,81 C57.0369345,81 60.316988,77.9430303 65,77 Z" id="Path" fill="#000000" opacity="0.1"></path>
                <path d="M64,77 C64,77 59.2317913,80.7358186 60.1073433,80.9890944 C60.9828953,81.2423702 64,77 64,77 Z" id="Path" fill="#000000" opacity="0.1"></path>
                <path d="M66.9790501,79 C66.9790501,79 65.3684294,81.1058124 66.2787802,80.9958377 C67.1891311,80.885863 66.9790501,79 66.9790501,79 Z" id="Path" fill="#000000" opacity="0.1"></path>
                <path d="M152.824341,27.0110186 C152.824341,27.0110186 144.059083,26.4983739 145.083234,32.4665432 C145.083234,32.4665432 144.877943,33.5209346 145.862881,34 C145.862881,34 145.879027,33.5522754 146.762473,33.7067404 C147.077085,33.7581274 147.396862,33.7731563 147.715118,33.7515128 C148.146417,33.7235958 148.556399,33.5592493 148.882282,33.2836406 C148.882282,33.2836406 151.348087,32.2964078 152.307653,28.3832946 C152.307653,28.3832946 153.0181,27.5281405 152.999647,27.3087555 L151.518779,27.9243768 C151.518779,27.9243768 152.023935,28.9608593 151.624885,29.8227292 C151.624885,29.8227292 151.578752,27.9624334 151.292728,28.0049672 C151.235062,28.0049672 150.524614,28.3653856 150.524614,28.3653856 C150.524614,28.3653856 151.39422,30.1697158 150.736826,31.4837876 C150.736826,31.4837876 150.985944,29.2585962 150.25243,28.4952257 L149.209826,29.0862222 C149.209826,29.0862222 150.227057,30.9509953 149.537369,32.473259 C149.537369,32.473259 149.714981,30.1383751 148.990694,29.2294941 L148.044969,29.9436149 C148.044969,29.9436149 149.002227,31.7837631 148.418646,33.0463465 C148.418646,33.0463465 148.342526,30.3286581 147.839677,30.1227047 C147.839677,30.1227047 147.013898,30.8301096 146.889339,31.1211306 C146.889339,31.1211306 147.54212,32.4643045 147.13615,33.1605163 C147.13615,33.1605163 146.887032,31.3494702 146.674821,31.3405157 C146.674821,31.3405157 145.851348,32.5404177 145.766002,33.3552765 C145.805883,32.5956023 146.050026,31.859303 146.474142,31.2196301 C145.999544,31.3067745 145.561679,31.5270333 145.214713,31.8531604 C145.214713,31.8531604 145.341579,31.0047222 146.677127,30.9308477 C146.677127,30.9308477 147.369121,30.0197281 147.539813,29.9637625 C147.539813,29.9637625 146.211185,29.8563086 145.406165,30.2032952 C145.406165,30.2032952 146.114305,29.4041067 147.784318,29.7555705 L148.706977,29.0168249 C148.706977,29.0168249 146.958538,28.7929626 146.215798,29.0414498 C146.215798,29.0414498 147.069257,28.3340448 148.958401,28.8489282 L149.973326,28.2601703 C149.973326,28.2601703 148.483232,27.946763 147.595173,28.0609328 C147.595173,28.0609328 148.531671,27.5706744 150.270883,28.101228 L150.997477,27.7855822 C150.997477,27.7855822 149.904126,27.5773902 149.585809,27.5438109 C149.267492,27.5102315 149.249039,27.4251639 149.249039,27.4251639 C149.94073,27.3134365 150.650817,27.3909558 151.299648,27.6490262 C151.299648,27.6490262 152.856635,27.1050407 152.824341,27.0110186 Z" id="Path" fill="#4EDDB2"></path>
                <path d="M179.844268,58.0110186 C179.844268,58.0110186 171.056687,57.4983739 172.083446,63.4665432 C172.083446,63.4665432 171.877632,64.5209346 172.865078,65 C172.865078,65 172.881266,64.5522754 173.769274,64.7067404 C174.084687,64.7581274 174.405279,64.7731563 174.724346,64.7515128 C175.151663,64.7215212 175.557395,64.5581304 175.880606,64.2858792 C175.880606,64.2858792 178.355004,63.2964078 179.317013,59.3832946 C179.317013,59.3832946 180.026957,58.5303791 179.999207,58.3109941 L178.514568,58.9243768 C178.514568,58.9243768 179.021011,59.9608593 178.623257,60.8227292 C178.623257,60.8227292 178.574694,58.9624334 178.290254,59.0049672 C178.232441,59.0049672 177.517872,59.3653856 177.517872,59.3653856 C177.517872,59.3653856 178.392005,61.1719544 177.732936,62.4837876 C177.732936,62.4837876 177.982688,60.2585962 177.244994,59.4952257 L176.211297,60.0795063 C176.211297,60.0795063 177.231119,61.9442794 176.539675,63.4665432 C176.539675,63.4665432 176.717739,61.1316592 175.991607,60.2227782 L175.045786,60.9391376 C175.045786,60.9391376 176.00317,62.7770472 175.420415,64.0396307 C175.420415,64.0396307 175.344101,61.3219422 174.839972,61.1159889 C174.839972,61.1159889 174.012089,61.8233938 173.8849,62.1144148 C173.8849,62.1144148 174.541656,63.4575887 174.134653,64.1538005 C174.134653,64.1538005 173.8849,62.3427543 173.672148,62.3337998 C173.672148,62.3337998 172.846578,63.5337018 172.761015,64.3485607 C172.802331,63.5887936 173.047846,62.852634 173.473272,62.2129142 C172.996864,62.3002712 172.557201,62.5204693 172.208322,62.8464445 C172.208322,62.8464445 172.337823,61.9980064 173.676773,61.9241318 C173.676773,61.9241318 174.358967,61.0130122 174.541656,60.9570466 C174.541656,60.9570466 173.209644,60.8495927 172.402574,61.1965793 C172.402574,61.1965793 173.112518,60.3973908 174.784471,60.7600478 L175.70948,60.0213021 C175.70948,60.0213021 173.954276,59.7974398 173.211957,60.045927 C173.211957,60.045927 174.06759,59.3385221 175.961545,59.8534054 L176.979054,59.2646475 C176.979054,59.2646475 175.482853,58.9534789 174.592532,59.0654101 C174.592532,59.0654101 175.533728,58.5751516 177.277369,59.1057053 L178.005814,58.7900594 C178.005814,58.7900594 176.909678,58.5818675 176.588238,58.5482881 C176.266797,58.5147088 176.25061,58.4296411 176.25061,58.4296411 C176.944823,58.3178468 177.657479,58.3953618 178.308754,58.6535034 C178.308754,58.6535034 179.872018,58.1050407 179.844268,58.0110186 Z" id="Path" fill="#4EDDB2" opacity="0.1"></path>
                <path d="M126.653483,51.8958604 C126.653483,51.8958604 128.898137,43.1173622 121.961514,43.0865937 C121.961514,43.0865937 120.809685,42.6889696 120.0837,43.5978246 C120.0837,43.5978246 120.578807,43.6948638 120.24275,44.5611163 C120.126523,44.8674328 120.04905,45.1851143 120.011871,45.5078403 C119.96218,45.9477859 120.069356,46.3906814 120.317144,46.76935 C120.317144,46.76935 120.96617,49.4438452 125.191251,51.1195467 C125.191251,51.1195467 126.022414,51.9905328 126.273815,52 L125.863364,50.392936 C125.863364,50.392936 124.596096,50.717189 123.698235,50.156255 C123.698235,50.156255 125.809492,50.442639 125.812058,50.156255 C125.812058,50.0970848 125.555526,49.3136707 125.555526,49.3136707 C125.555526,49.3136707 123.351917,49.8675042 121.992297,48.9657496 C121.992297,48.9657496 124.457569,49.6189892 125.460609,49.0154526 L124.998852,47.8509821 C124.998852,47.8509821 122.690064,48.5444575 121.109828,47.5716986 C121.109828,47.5716986 123.713627,48.1728683 124.878282,47.6048339 L124.249778,46.5208349 C124.249778,46.5208349 121.992297,47.15514 120.676289,46.3385906 C120.676289,46.3385906 123.754672,46.7504155 124.088163,46.2817871 C124.088163,46.2817871 123.446833,45.3184955 123.14156,45.1386179 C123.14156,45.1386179 121.510017,45.5599101 120.791728,45.0226442 C120.791728,45.0226442 122.882463,45.0960153 122.931204,44.8924697 C122.931204,44.8924697 121.7332,43.8439729 120.819947,43.6072919 C121.671012,43.7860729 122.456974,44.1661814 123.100515,44.7102253 C123.091108,44.2141901 122.925306,43.7314226 122.623366,43.3209079 C122.623366,43.3209079 123.557142,43.6049251 123.392962,44.9776748 C123.392962,44.9776748 124.290823,45.8297264 124.319042,46.0238048 C124.319042,46.0238048 124.691013,44.7007581 124.452439,43.8226716 C124.452439,43.8226716 125.222034,44.6841904 124.496049,46.3054552 L125.152771,47.3823538 C125.152771,47.3823538 125.747925,45.6545825 125.596571,44.8593343 C125.596571,44.8593343 126.235335,45.8486609 125.293863,47.666371 L125.768447,48.8000729 C125.768447,48.8000729 126.402081,47.3468516 126.443126,46.433263 C126.443126,46.433263 126.820228,47.4699257 125.889017,49.1337931 L126.109635,49.9243077 C126.109635,49.9243077 126.55087,48.8568764 126.648352,48.5397238 C126.745834,48.2225713 126.845881,48.2202045 126.845881,48.2202045 C126.841972,48.940254 126.620787,49.645071 126.207117,50.2556611 C126.207117,50.2556611 126.543174,51.9076944 126.653483,51.8958604 Z" id="Path" fill="#4EDDB2" opacity="0.1"></path>
                <path d="M107,55.4281697 C107,55.4281697 99.23471,49.657461 96.4588478,55.9084301 C96.4588478,55.9084301 95.6115865,56.780482 96.219681,57.8244166 C96.219681,57.8244166 96.5097344,57.4174591 97.2374123,58.0923514 C97.4951579,58.3305702 97.7804162,58.5375995 98.0872179,58.7091069 C98.5027739,58.9389834 98.982531,59.0277393 99.4535222,58.9618756 C99.4535222,58.9618756 102.343879,59.515439 105.671861,56.4038567 C105.671861,56.4038567 106.860062,56.0247037 106.972012,55.8022673 L105.21897,55.4964172 C105.21897,55.4964172 105.035779,56.7779543 104.132542,57.3517392 C104.132542,57.3517392 105.249502,55.5671924 104.959449,55.4382804 C104.900929,55.4104759 104.02568,55.3118961 104.02568,55.3118961 C104.02568,55.3118961 103.700006,57.5413157 102.275182,58.3830354 C102.275182,58.3830354 103.895919,56.434189 103.694918,55.2714531 L102.364234,55.2006779 C102.364234,55.2006779 102.137789,57.5741756 100.550128,58.595361 C100.550128,58.595361 102.170865,56.4999088 102.076725,55.2057332 L100.758763,55.3118961 C100.758763,55.3118961 100.491608,57.619674 99.1660131,58.458866 C99.1660131,58.458866 100.791839,55.8502933 100.458532,55.3548668 C100.458532,55.3548668 99.2550646,55.5242218 98.9573782,55.7213813 C98.9573782,55.7213813 98.7258444,57.3744884 97.9116593,57.7940844 C97.9116593,57.7940844 98.8148958,55.9362347 98.6317042,55.8073227 C98.6317042,55.8073227 97.1229175,56.441772 96.530089,57.1646904 C97.0429113,56.4725158 97.7287484,55.9253436 98.5197538,55.5773032 C98.0275918,55.3740859 97.4864587,55.3178669 96.9626248,55.4155312 C96.9626248,55.4155312 97.6088842,54.6926129 98.886137,55.4281697 C98.886137,55.4281697 100.081971,54.9807691 100.285518,55.0363782 C100.285518,55.0363782 99.1278482,54.1339941 98.1686365,53.9772775 C98.1686365,53.9772775 99.3237615,53.6486783 100.634091,54.9883522 L101.954597,54.8543848 C101.954597,54.8543848 100.48652,53.5905415 99.6443469,53.3782158 C99.6443469,53.3782158 100.873257,53.2240269 102.290448,54.8468017 L103.593144,54.9049385 C103.593144,54.9049385 102.41512,53.7118704 101.52715,53.2821637 C101.52715,53.2821637 102.694997,53.3832712 103.967161,54.9327431 L104.834777,55.0717659 C104.834777,55.0717659 103.956983,54.2174078 103.682196,53.9949713 C103.407408,53.7725349 103.445573,53.6790105 103.445573,53.6790105 C104.153402,53.9904047 104.760293,54.4909434 105.198616,55.1248473 C105.198616,55.1248473 106.966924,55.5318048 107,55.4281697 Z" id="Path" fill="#4EDDB2" opacity="0.1"></path>
                <path d="M131,5.42987884 C131,5.42987884 123.23471,-0.344755247 120.458848,5.91025558 C120.458848,5.91025558 119.611587,6.78251861 120.219681,7.82670595 C120.219681,7.82670595 120.509734,7.41964987 121.237412,8.0947056 C121.496508,8.33175135 121.78256,8.53793835 122.089762,8.70908217 C122.505254,8.93919084 122.985071,9.02797931 123.456067,8.96191204 C123.456067,8.96191204 126.346424,9.51560944 129.674405,6.40074552 C129.674405,6.40074552 130.862606,6.02402902 130.972012,5.79901044 L129.21897,5.4981429 C129.21897,5.4981429 129.038323,6.77999031 128.132542,7.3539141 C128.132542,7.3539141 129.252046,5.56893526 128.961993,5.43999203 C128.903473,5.41218075 128.028225,5.3135771 128.028225,5.3135771 C128.028225,5.3135771 127.692373,7.5485931 126.267549,8.38545995 C126.267549,8.38545995 127.885742,6.4361417 127.687285,5.27312432 L126.356601,5.20233196 C126.356601,5.20233196 126.127611,7.57640438 124.542495,8.59530873 C124.542495,8.59530873 126.163232,6.49934916 126.069092,5.20486026 L124.753674,5.3110488 C124.753674,5.3110488 124.483975,7.62191376 123.15838,8.46130891 C123.15838,8.46130891 124.78675,5.85210471 124.453443,5.35655818 C124.453443,5.35655818 123.249976,5.52595419 122.95229,5.72316148 C122.95229,5.72316148 122.720756,7.37666879 121.906571,7.79636636 C121.906571,7.79636636 122.809807,5.93806687 122.626616,5.80659534 C122.626616,5.80659534 121.117829,6.44372659 120.525,7.16682 C121.037048,6.47373981 121.723102,5.92626186 122.514665,5.57904846 C122.021998,5.37427026 121.479601,5.31799837 120.954992,5.41723735 C120.954992,5.41723735 121.603796,4.69414394 122.881048,5.42987884 C122.881048,5.42987884 124.076883,4.97984168 124.280429,5.03799255 C124.280429,5.03799255 123.12276,4.13538994 122.163548,3.97610712 C122.163548,3.97610712 123.316129,3.6499566 124.626458,4.98742658 L125.946964,4.85342675 C125.946964,4.85342675 124.481431,3.58927743 123.636714,3.37437205 C123.636714,3.37437205 124.865624,3.22267413 126.28536,4.84584185 L127.588056,4.90146442 C127.588056,4.90146442 126.410032,3.70810747 125.519517,3.280825 C125.519517,3.280825 126.689908,3.38195694 127.962072,4.93180401 L128.827144,5.07086043 C128.827144,5.07086043 127.946806,4.22640869 127.672019,4.00897501 C127.397231,3.79154132 127.435396,3.69546598 127.435396,3.69546598 C128.143438,4.00659352 128.750415,4.50732415 129.188438,5.1416528 C129.188438,5.1416528 130.956746,5.52595419 131,5.42987884 Z" id="Path" fill="#4EDDB2" opacity="0.1"></path>
                <path d="M158,12.6662521 C158,12.6662521 154.971202,3.1230356 149.258689,6.87319463 C149.258689,6.87319463 148.091857,7.13747646 148,8.38224383 C148,8.38224383 148.459285,8.20253219 148.66286,9.20680311 C148.738493,9.56403806 148.852622,9.91078163 149.002979,10.240145 C149.208165,10.6834025 149.542606,11.0440601 149.956306,11.2682013 C149.956306,11.2682013 151.972195,13.4485263 156.381331,12.727037 C156.381331,12.727037 157.54568,13.1023171 157.759186,12.9728191 L156.517875,11.6751953 C156.517875,11.6751953 155.658888,12.6715378 154.611221,12.6318955 C154.611221,12.6318955 156.505462,11.7544799 156.349057,11.4716983 C156.316783,11.4161991 155.668818,10.8162794 155.668818,10.8162794 C155.668818,10.8162794 154.16435,12.5420397 152.550645,12.4283985 C152.550645,12.4283985 154.936445,11.7042663 155.423039,10.5784258 L154.395233,9.73536675 C154.395233,9.73536675 152.890765,11.6434815 151.046177,11.5853395 C151.046177,11.5853395 153.528798,10.7369949 154.156902,9.56358357 L153.039722,8.87909365 C153.039722,8.87909365 151.550149,10.7105667 150.005958,10.6524247 C150.005958,10.6524247 152.766634,9.3653722 152.774081,8.74166711 C152.774081,8.74166711 151.714002,8.17874683 151.363952,8.17346119 C151.363952,8.17346119 150.256703,9.46051366 149.377855,9.34422966 C149.377855,9.34422966 151.135551,8.27388828 151.061072,8.05453437 C151.061072,8.05453437 149.497021,7.71361082 148.61569,7.98846392 C149.412825,7.69301256 150.268696,7.62468021 151.098312,7.79025255 C150.815015,7.32484779 150.410385,6.95747873 149.933962,6.73312527 C149.933962,6.73312527 150.857498,6.49262881 151.47567,7.87746555 C151.47567,7.87746555 152.68719,8.19724656 152.816286,8.3637441 C152.816286,8.3637441 152.389275,6.90755127 151.706554,6.20456163 C151.706554,6.20456163 152.816286,6.60362718 153.119166,8.53552729 L154.256207,9.19623184 C154.256207,9.19623184 153.786991,7.23790355 153.220953,6.55341363 C153.220953,6.55341363 154.295929,7.14540491 154.529295,9.37858629 L155.54717,10.1952171 C155.54717,10.1952171 155.264151,8.47209965 154.787488,7.5788271 C154.787488,7.5788271 155.671301,8.35581565 155.830189,10.4409992 L156.448361,11.0699899 C156.448361,11.0699899 156.21996,9.81729412 156.125621,9.46315648 C156.031281,9.10901884 156.108242,9.08523347 156.108242,9.08523347 C156.502906,9.77081734 156.7117,10.5592689 156.711519,11.3633428 C156.711519,11.3633428 157.913108,12.7349654 158,12.6662521 Z" id="Path" fill="#4EDDB2" opacity="0.1"></path>
                <path d="M138.844889,12.0563611 C138.844889,12.0563611 130.338748,11.068759 131.041234,17.3617974 C131.041234,17.3617974 130.78762,18.4523723 131.714543,19 C131.714543,19 131.752697,18.5319421 132.612289,18.7425682 C132.916071,18.8107259 133.226261,18.8429136 133.536967,18.83852 C133.95666,18.8306165 134.362443,18.6802631 134.692815,18.4102471 C134.692815,18.4102471 137.141417,17.504555 138.283798,13.4675557 C138.283798,13.4675557 139.015461,12.61335 138.999751,12.3816614 L137.529692,12.9480114 C137.529692,12.9480114 137.978565,14.0549683 137.529692,14.9349172 C137.529692,14.9349172 137.576823,12.9901366 137.305255,13.0205604 C137.249146,13.0205604 136.539927,13.3575621 136.539927,13.3575621 C136.539927,13.3575621 137.294033,15.2883009 136.589303,16.6339673 C136.589303,16.6339673 136.943913,14.3217613 136.268359,13.4886183 L135.224729,14.0502878 C135.224729,14.0502878 136.122475,16.0512353 135.370613,17.6051875 C135.370613,17.6051875 135.66238,15.175967 135.004782,14.1907051 L134.050927,14.892792 C134.050927,14.892792 134.88583,16.8609754 134.255164,18.1504749 C134.255164,18.1504749 134.32025,15.3093635 133.842201,15.0683137 C133.842201,15.0683137 133.002808,15.7704005 132.865902,16.0605964 C132.865902,16.0605964 133.433726,17.488173 133.005053,18.2019613 C133.005053,18.2019613 132.85468,16.2993059 132.657176,16.2805836 C132.657176,16.2805836 131.79534,17.4905133 131.669656,18.3447189 C131.747508,17.5527713 132.022985,16.7959123 132.46865,16.1495274 C132.002923,16.2166374 131.566111,16.4240442 131.211805,16.7463012 C131.211805,16.7463012 131.377888,15.8686927 132.67962,15.8593315 C132.67962,15.8593315 133.386595,14.9442783 133.577366,14.8951323 C133.577366,14.8951323 132.291345,14.71493 131.490107,15.0355496 C131.490107,15.0355496 132.219525,14.2351706 133.822001,14.7008882 L134.766879,13.9777388 C134.766879,13.9777388 133.058917,13.6173342 132.336232,13.8513632 C132.336232,13.8513632 133.202557,13.1492763 135.011515,13.7928559 L136.028212,13.2288462 C136.028212,13.2288462 134.594063,12.8263164 133.725494,12.8988653 C133.725494,12.8988653 134.661394,12.4308074 136.324468,13.0790676 L137.047153,12.7865314 C137.047153,12.7865314 135.994546,12.5127176 135.684824,12.4612312 C135.375102,12.4097448 135.36388,12.3208138 135.36388,12.3208138 C136.042382,12.2396376 136.72918,12.3562959 137.347898,12.6578155 C137.347898,12.6578155 138.8606,12.1546533 138.844889,12.0563611 Z" id="Path" fill="#4EDDB2" opacity="0.1"></path>
                <path d="M216.851414,82.0565129 C216.851414,82.0565129 208.337841,81.0679327 209.041312,87.3601751 C209.041312,87.3601751 208.787343,88.45183 209.715566,89 C209.715566,89 209.753773,88.5314786 210.61457,88.7399706 C210.918427,88.8105075 211.229311,88.842754 211.540545,88.8360175 C211.961035,88.8293085 212.367744,88.6786739 212.698013,88.4073204 C212.698013,88.4073204 215.150048,87.5007315 216.282794,83.4620771 C216.282794,83.4620771 217.015483,82.6046829 216.99975,82.3751074 L215.52763,82.9396757 C215.52763,82.9396757 215.977133,84.0500714 215.52763,84.9308917 C215.52763,84.9308917 215.574828,82.9818426 215.302879,83.0146391 C215.246691,83.0146391 214.536478,83.3496319 214.536478,83.3496319 C214.536478,83.3496319 215.291642,85.2822827 214.585923,86.6292817 C214.585923,86.6292817 214.94103,84.3171286 214.264529,83.4808179 L213.219436,84.0453862 C213.219436,84.0453862 214.118441,86.0483152 213.367772,87.6038062 C213.367772,87.6038062 213.657701,85.1721802 212.99918,84.1836 L212.043987,84.8863821 C212.043987,84.8863821 212.880062,86.8565146 212.248511,88.1449484 C212.248511,88.1449484 212.313689,85.3010236 211.834969,85.0620776 C211.834969,85.0620776 210.996647,85.7648597 210.857301,86.055343 C210.857301,86.055343 211.428169,87.4843333 210.996647,88.1988284 C210.996647,88.1988284 210.846064,86.2942889 210.648283,86.2755481 C210.648283,86.2755481 209.785238,87.4866759 209.659378,88.3417274 C209.737339,87.5489955 210.013202,86.7913871 210.459492,86.1443621 C209.992779,86.2103387 209.555038,86.4181011 209.200885,86.7417269 C209.200885,86.7417269 209.367201,85.8609066 210.670758,85.8515362 C210.670758,85.8515362 211.380972,84.9355769 211.569763,84.8887247 C211.569763,84.8887247 210.281938,84.7060014 209.479577,85.0269385 C209.479577,85.0269385 210.210018,84.2281096 211.816989,84.6942883 L212.760944,83.9704228 C212.760944,83.9704228 211.070815,83.6377726 210.335879,83.8673481 C210.335879,83.8673481 211.203418,83.164566 213.014912,83.8064403 L214.033035,83.2442146 C214.033035,83.2442146 212.596875,82.8412862 211.727088,82.913907 C211.727088,82.913907 212.664301,82.4453856 214.329707,83.0942878 L215.053405,82.7991193 C215.053405,82.7991193 213.999322,82.5250343 213.689166,82.4758395 C213.379009,82.4266448 213.367772,82.3352831 213.367772,82.3352831 C214.047032,82.252552 214.734979,82.368546 215.354572,82.6702759 C215.354572,82.6702759 216.87389,82.157245 216.851414,82.0565129 Z" id="Path" fill="#4EDDB2" opacity="0.1"></path>
                <path d="M230.860174,90.05621 C230.860174,90.05621 222.337102,89.0699295 223.041358,95.3601036 C223.041358,95.3601036 222.789356,96.4518061 223.716364,97 C223.716364,97 223.754614,96.5314582 224.616371,96.742302 C224.920041,96.8111049 225.230417,96.8425563 225.541129,96.8360104 C225.959954,96.8270863 226.364807,96.6775374 226.695389,96.4096373 C226.695389,96.4096373 229.147909,95.5030088 230.281919,91.4618355 C230.281919,91.4618355 231.017675,90.6067467 230.999675,90.3748185 L229.525913,90.9394114 C229.525913,90.9394114 229.975916,92.0498555 229.525913,92.9307142 C229.525913,92.9307142 229.573163,90.9839229 229.300911,91.0143781 C229.24466,91.0143781 228.533654,91.3493855 228.533654,91.3493855 C228.533654,91.3493855 229.289661,93.2821205 228.583155,94.6291783 C228.583155,94.6291783 228.938658,92.3169244 228.261402,91.4829199 L227.215143,92.0451701 C227.215143,92.0451701 228.115151,94.0481864 227.363645,95.6037453 C227.363645,95.6037453 227.653897,93.1720132 226.994641,92.1857327 L226.038383,92.8885454 C226.038383,92.8885454 226.87539,94.8587638 226.245385,96.1495966 C226.245385,96.1495966 226.308386,93.3032049 225.829132,93.0642486 C225.829132,93.0642486 224.989875,93.7670613 224.850373,94.0575573 C224.850373,94.0575573 225.421878,95.4866099 224.989875,96.2011362 C224.989875,96.2011362 224.839123,94.2965136 224.641122,94.2777719 C224.641122,94.2777719 223.777114,95.4889526 223.653363,96.3440414 C223.731258,95.5516229 224.006598,94.7941329 224.45212,94.1465802 C223.98522,94.2137596 223.547308,94.4213808 223.19211,94.7439711 C223.19211,94.7439711 223.360861,93.8631124 224.665872,93.8560843 C224.665872,93.8560843 225.374628,92.940085 225.565879,92.8908881 C225.565879,92.8908881 224.276619,92.7104995 223.473362,93.0314507 C223.473362,93.0314507 224.204618,92.2302441 225.813382,92.6964433 L226.758389,91.9725461 C226.758389,91.9725461 225.066375,91.6398814 224.330619,91.8694669 C224.330619,91.8694669 225.199126,91.1666542 227.012642,91.8108992 L228.0319,91.2463063 C228.0319,91.2463063 226.594138,90.8433603 225.723381,90.9159843 C225.723381,90.9159843 226.661639,90.4474425 228.328903,91.0963729 L229.053409,90.8035342 C229.053409,90.8035342 227.99815,90.5294373 227.689897,90.4778977 C227.381645,90.4263581 227.365895,90.3373351 227.365895,90.3373351 C228.046106,90.256075 228.734635,90.3728539 229.354911,90.6746852 C229.354911,90.6746852 230.882674,90.1569465 230.860174,90.05621 Z" id="Path" fill="#4EDDB2" opacity="0.1"></path>
                <path d="M201,20.4281697 C201,20.4281697 193.23471,14.657461 190.458848,20.9084301 C190.458848,20.9084301 189.611587,21.780482 190.219681,22.8244166 C190.219681,22.8244166 190.509734,22.4174591 191.237412,23.0923514 C191.495158,23.3305702 191.780416,23.5375995 192.087218,23.7091069 C192.502838,23.9388074 192.982535,24.0275522 193.453522,23.9618756 C193.453522,23.9618756 196.343879,24.515439 199.674405,21.4038567 C199.674405,21.4038567 200.860062,21.0247037 200.972012,20.8022673 L199.224059,20.4888342 C199.224059,20.4888342 199.040867,21.7703713 198.137631,22.3441562 C198.137631,22.3441562 199.254591,20.5596094 198.964537,20.4306974 C198.906018,20.4028928 198.033313,20.304313 198.033313,20.304313 C198.033313,20.304313 197.705095,22.5337327 196.280271,23.3754523 C196.280271,23.3754523 197.901008,21.4266059 197.700006,20.26387 L196.369322,20.1930948 C196.369322,20.1930948 196.142877,22.5665926 194.555216,23.587778 C194.555216,23.587778 196.178498,21.4923258 196.081813,20.1981502 L194.763851,20.304313 C194.763851,20.304313 194.509418,22.6120909 193.171102,23.4512829 C193.171102,23.4512829 194.799472,20.8427103 194.463621,20.3472837 C194.463621,20.3472837 193.260153,20.5166387 192.962467,20.7137983 C192.962467,20.7137983 192.733477,22.3669053 191.919292,22.7865013 C191.919292,22.7865013 192.819984,20.9286516 192.636793,20.7997396 C192.636793,20.7997396 191.128006,21.434189 190.535178,22.1571073 C191.048,21.4649327 191.733837,20.9177606 192.524842,20.5697201 C192.03268,20.3665028 191.491547,20.3102839 190.967713,20.4079482 C190.967713,20.4079482 191.616517,19.6850298 192.89377,20.4205866 C192.89377,20.4205866 194.08706,19.9731861 194.290606,20.0287952 C194.290606,20.0287952 193.132937,19.126411 192.173725,18.9696945 C192.173725,18.9696945 193.32885,18.6410952 194.639179,19.9807691 L195.959686,19.8468017 C195.959686,19.8468017 194.494153,18.5829584 193.649436,18.3706327 C193.649436,18.3706327 194.878346,18.2164439 196.295537,19.8392187 L197.600777,19.8973555 C197.600777,19.8973555 196.420209,18.7042874 195.532238,18.2745806 C195.532238,18.2745806 196.702629,18.3756881 197.972249,19.92516 L198.839865,20.0641828 C198.839865,20.0641828 197.962072,19.2098247 197.687285,18.9873883 C197.412497,18.7649519 197.453206,18.6916489 197.453206,18.6916489 C198.160032,19.003551 198.765974,19.504033 199.203704,20.1374857 C199.203704,20.1374857 200.966924,20.5318048 201,20.4281697 Z" id="Path" fill="#4EDDB2" opacity="0.1"></path>
                <path d="M207,59.6837611 C207,59.6837611 204.337383,50.3852139 198.349026,53.7233492 C198.349026,53.7233492 197.149329,53.9086601 197,55.1119119 C197,55.1119119 197.475829,54.9621401 197.640344,55.9343878 C197.701349,56.2836736 197.803296,56.6245047 197.944065,56.9497902 C198.131798,57.3872203 198.45715,57.7509825 198.870413,57.9855006 C198.870413,57.9855006 200.82941,60.1686157 205.349785,59.6812226 C205.349785,59.6812226 206.519109,60.0924605 206.741838,59.9807663 L205.544672,58.6759742 C205.544672,58.6759742 204.625917,59.5949134 203.562895,59.5086042 C203.562895,59.5086042 205.526955,58.7470524 205.375095,58.4754323 C205.344723,58.4195851 204.711972,57.8128822 204.711972,57.8128822 C204.711972,57.8128822 203.107315,59.4019869 201.467223,59.216676 C201.467223,59.216676 203.929891,58.6328196 204.471526,57.5818782 L203.459124,56.7238632 C203.459124,56.7238632 201.844343,58.4855863 199.968869,58.348507 C199.968869,58.348507 202.520121,57.6453408 203.223741,56.5512448 L202.115161,55.8430016 C202.115161,55.8430016 200.507973,57.5311081 198.948874,57.4041828 C198.948874,57.4041828 201.816502,56.2948557 201.851936,55.6983068 C201.851936,55.6983068 200.793976,55.1093734 200.437105,55.0890654 C200.437105,55.0890654 199.255125,56.2720091 198.356619,56.1196988 C198.356619,56.1196988 200.194128,55.1728361 200.128322,54.9596016 C200.128322,54.9596016 198.548975,54.5610561 197.640344,54.7819062 C198.463293,54.5371507 199.335641,54.5117776 200.171349,54.7082895 C199.903665,54.2489617 199.507719,53.8783169 199.032397,53.642117 C199.032397,53.642117 199.984055,53.4517291 200.551,54.8098297 C200.551,54.8098297 201.768413,55.1702976 201.894963,55.3378389 C201.894963,55.3378389 201.522906,53.9188141 200.857251,53.215648 C200.857251,53.215648 201.970893,53.647194 202.196153,55.5155344 L203.324981,56.2034695 C203.324981,56.2034695 202.930144,54.29959 202.383447,53.6294245 C202.383447,53.6294245 203.451531,54.2462814 203.595799,56.3989344 L204.6082,57.2290259 C204.6082,57.2290259 204.393065,55.563766 203.947608,54.6905199 C203.947608,54.6905199 204.815743,55.4774568 204.886611,57.4828764 L205.48899,58.1175029 C205.48899,58.1175029 205.31182,56.9040971 205.23589,56.5588603 C205.15996,56.2136235 205.23589,56.1653919 205.23589,56.1653919 C205.610424,56.8406143 205.790087,57.6071027 205.754746,58.378969 C205.754746,58.378969 206.908884,59.7446852 207,59.6837611 Z" id="Path" fill="#4EDDB2" opacity="0.1"></path>
                <path d="M152,78.743448 C152,78.743448 146.782132,70.7362162 141.937152,75.5286116 C141.937152,75.5286116 140.828706,76.0262643 141.022812,77.2081895 C141.022812,77.2081895 141.444225,76.9344805 141.878409,77.8053727 C142.034423,78.1140073 142.228237,78.4030928 142.455618,78.6663119 C142.760145,79.0255743 143.17743,79.2773674 143.643239,79.3829317 C143.643239,79.3829317 146.158951,80.8957959 150.398628,79.1838707 C150.398628,79.1838707 151.647545,79.2485655 151.831435,79.0818519 L150.299021,78.186077 C150.299021,78.186077 149.668178,79.3057956 148.613366,79.517298 C148.613366,79.517298 150.304129,78.2731662 150.076821,78.044246 C150.033403,77.9994573 149.246764,77.6063116 149.246764,77.6063116 C149.246764,77.6063116 148.140872,79.5421806 146.50119,79.8233544 C146.50119,79.8233544 148.720635,78.591664 148.950497,77.4520393 L147.727121,76.9270157 C147.727121,76.9270157 146.662093,79.0295983 144.807873,79.4152792 C144.807873,79.4152792 147.080953,78.0492225 147.451286,76.8249969 L146.174275,76.466687 C146.174275,76.466687 145.096477,78.4995982 143.551294,78.8106311 C143.551294,78.8106311 146.013371,76.9742927 145.878008,76.4019921 C145.878008,76.4019921 144.687834,76.1407245 144.345595,76.2203489 C144.345595,76.2203489 143.53597,77.6610534 142.62163,77.7655605 C142.62163,77.7655605 144.133611,76.3671564 144.008464,76.1830249 C144.008464,76.1830249 142.366227,76.2452315 141.54894,76.7055603 C142.277975,76.2454164 143.118065,75.97946 143.985478,75.9341986 C143.597121,75.5760966 143.109716,75.3365065 142.583319,75.2449496 C142.583319,75.2449496 143.449133,74.804527 144.371135,75.9242455 C144.371135,75.9242455 145.648146,75.9242455 145.824374,76.0486587 C145.824374,76.0486587 145.058167,74.804527 144.217894,74.3392217 C144.217894,74.3392217 145.418284,74.4387522 146.164059,76.1332597 L147.45384,76.466687 C147.45384,76.466687 146.531838,74.7871091 145.814158,74.3068743 C145.814158,74.3068743 147.02221,74.5905363 147.770539,76.5786588 L148.976037,77.0763115 C148.976037,77.0763115 148.296668,75.5709121 147.614744,74.8667336 C147.614744,74.8667336 148.677217,75.3643862 149.313168,77.2330721 L150.079375,77.6635417 C150.079375,77.6635417 149.568571,76.571194 149.387235,76.2701142 C149.205899,75.9690343 149.277412,75.8993629 149.277412,75.8993629 C149.830088,76.4312232 150.220058,77.102345 150.403736,77.8377201 C150.403736,77.8377201 151.931041,78.828049 152,78.743448 Z" id="Path" fill="#4EDDB2" opacity="0.1"></path>
                <path d="M183,38.9172913 C183,38.9172913 178.010956,30.8035748 172.985963,35.4208956 C172.985963,35.4208956 171.856175,35.8910408 172.015372,37.0639294 C172.015372,37.0639294 172.444178,36.8016379 172.855011,37.6800671 C173.001921,37.9923252 173.187271,38.2864221 173.407066,38.5560218 C173.701926,38.9209225 174.113497,39.1818588 174.577938,39.2983564 C174.577938,39.2983564 177.055771,40.8770545 181.372077,39.2983564 C181.372077,39.2983564 182.625116,39.3998088 182.815125,39.2389696 L181.307885,38.3036281 C181.307885,38.3036281 180.640282,39.3948599 179.572118,39.5754946 C179.572118,39.5754946 181.310452,38.380336 181.092198,38.1551612 C181.045979,38.1081467 180.270533,37.6924393 180.270533,37.6924393 C180.270533,37.6924393 179.097093,39.5853924 177.446061,39.8155161 C177.446061,39.8155161 179.71591,38.6574742 179.980383,37.5340746 L178.768428,36.9847471 C178.768428,36.9847471 177.630936,39.0459626 175.753946,39.3750643 C175.753946,39.3750643 178.082851,38.0858766 178.493684,36.8808202 L177.225239,36.4849085 C177.225239,36.4849085 176.074909,38.4644673 174.513746,38.7366566 C174.513746,38.7366566 177.0455,36.9847471 176.927385,36.4131495 C176.927385,36.4131495 175.741107,36.1162157 175.386764,36.1855002 C175.386764,36.1855002 174.526584,37.5934614 173.604779,37.6701693 C173.604779,37.6701693 175.16851,36.3290182 175.050396,36.1409601 C175.050396,36.1409601 173.396796,36.1533324 172.562293,36.5863609 C173.309845,36.151828 174.162209,35.912997 175.034989,35.8935153 C174.655457,35.5256812 174.172606,35.2728111 173.645863,35.1660274 C173.645863,35.1660274 174.53172,34.7527946 175.443254,35.8935153 C175.443254,35.8935153 176.727105,35.9355809 176.899141,36.0617778 C176.899141,36.0617778 176.172481,34.8245536 175.340546,34.3148172 C175.340546,34.3148172 176.54223,34.4484374 177.238077,36.1558068 L178.521928,36.5269741 C178.521928,36.5269741 177.651477,34.8295025 176.942792,34.3296639 C176.942792,34.3296639 178.149611,34.6488677 178.837756,36.6457476 L180.031737,37.1827029 C180.031737,37.1827029 179.397515,35.665866 178.747886,34.9556993 C178.747886,34.9556993 179.798076,35.4827569 180.380944,37.3583888 L181.133281,37.8087384 C181.133281,37.8087384 180.650553,36.7076088 180.481085,36.4032517 C180.311616,36.0988945 180.383512,36.0320844 180.383512,36.0320844 C180.921748,36.5772568 181.292415,37.2556886 181.454244,37.9918476 C181.454244,37.9918476 182.925537,38.9989481 183,38.9172913 Z" id="Path" fill="#4EDDB2"></path>
                <path d="M152.998928,55.8151826 C152.998928,55.8151826 153.216218,46.859677 147.464538,48.1219096 C147.464538,48.1219096 146.434581,47.9503212 146,48.9704497 C146,48.9704497 146.434581,48.9704497 146.312898,49.8754024 C146.273092,50.1980838 146.268716,50.5247265 146.299861,50.8485203 C146.339142,51.2877102 146.510947,51.7007095 146.788765,52.0237835 C146.788765,52.0237835 147.82524,54.5012383 151.651726,55.3427268 C151.651726,55.3427268 152.501332,56.0361321 152.714277,55.9985237 L152.062406,54.512991 C152.062406,54.512991 151.073734,55.0630142 150.224128,54.6892805 C150.224128,54.6892805 152.027639,54.5741047 151.977662,54.2873404 C151.977662,54.2285773 151.603923,53.5140172 151.603923,53.5140172 C151.603923,53.5140172 149.878636,54.4659804 148.585757,53.8407404 C148.585757,53.8407404 150.758662,54.0170299 151.469202,53.2437067 L150.862962,52.2024235 C150.862962,52.2024235 149.085525,53.3024699 147.586221,52.6537246 C147.586221,52.6537246 149.856907,52.7524467 150.717377,51.9838245 L149.9938,51.043614 C149.9938,51.043614 148.240265,52.0825467 146.997363,51.5325235 C146.997363,51.5325235 149.630925,51.360935 149.82214,50.8414687 C149.82214,50.8414687 149.109427,50.025836 148.822604,49.9012581 C148.822604,49.9012581 147.549281,50.6064161 146.853952,50.2256308 C146.853952,50.2256308 148.592276,49.9106602 148.60314,49.7014634 C148.60314,49.7014634 147.414561,48.9046349 146.612759,48.8458718 C147.352111,48.8601708 148.075085,49.0838517 148.709613,49.4946171 C148.610615,49.0141699 148.384048,48.5754629 148.057741,48.2323844 C148.057741,48.2323844 148.885618,48.333457 148.998609,49.6897108 C148.998609,49.6897108 149.904711,50.3525592 149.963379,50.5359003 C149.963379,50.5359003 150.026393,49.1796465 149.663518,48.3710654 C149.663518,48.3710654 150.463147,49.0644707 150.163286,50.775654 L150.908593,51.7017614 C150.908593,51.7017614 151.078079,49.9106602 150.806466,49.1655434 C150.806466,49.1655434 151.519179,50.0093824 151.080252,51.9509172 L151.682147,52.9639941 C151.682147,52.9639941 151.93855,51.4338014 151.801657,50.5335497 C151.801657,50.5335497 152.305771,51.4737603 151.845115,53.2625109 L152.175397,53.9911741 C152.175397,53.9911741 152.34271,52.869973 152.364439,52.5432498 C152.386168,52.2165267 152.468739,52.1953719 152.468739,52.1953719 C152.599541,52.896556 152.547633,53.623267 152.318808,54.294392 C152.318808,54.294392 152.90332,55.8457394 152.998928,55.8151826 Z" id="Path" fill="#4EDDB2"></path>
                <ellipse id="Oval" fill="#4EDDB2" opacity="0.1" cx="164.5" cy="168" rx="6.5" ry="1"></ellipse>
                <ellipse id="Oval" fill="#4EDDB2" opacity="0.1" cx="141.5" cy="185" rx="6.5" ry="1"></ellipse>
                <ellipse id="Oval" fill="#4EDDB2" opacity="0.1" cx="22.5" cy="177" rx="6.5" ry="1"></ellipse>
                <ellipse id="Oval" fill="#4EDDB2" opacity="0.1" cx="188.5" cy="184" rx="6.5" ry="1"></ellipse>
                <ellipse id="Oval" fill="#4EDDB2" cx="196" cy="170.5" rx="9" ry="1.5"></ellipse>
                <path d="M199.038222,167.491516 C199.484268,167.129781 199.808975,166.640706 199.968891,166.089742 C200.090389,165.531942 199.852254,164.865008 199.320096,164.66129 C198.722329,164.43332 198.083253,164.845606 197.597263,165.262743 C197.111274,165.67988 196.559676,166.157648 195.92546,166.07034 C196.58769,165.469915 196.886427,164.567166 196.712763,163.691204 C196.68523,163.512737 196.60964,163.345087 196.494068,163.206161 C196.161165,162.852079 195.560968,163.004868 195.162457,163.283768 C193.898885,164.171396 193.546542,165.883598 193.539253,167.426035 C193.412895,166.870661 193.519813,166.291035 193.517383,165.728385 C193.514953,165.165735 193.357007,164.515777 192.873447,164.219901 C192.576633,164.054723 192.241246,163.97104 191.901468,163.977379 C191.332861,163.957978 190.698645,164.013757 190.312283,164.428469 C189.826294,164.942615 189.955081,165.808417 190.373032,166.368641 C190.790983,166.928866 191.430059,167.290223 192.018106,167.683108 C192.488747,167.963614 192.890583,168.34561 193.1942,168.801132 C193.228799,168.864582 193.257277,168.931171 193.279248,169 L196.84155,169 C197.639043,168.599117 198.378069,168.091618 199.038222,167.491516 Z" id="Path" fill="#4EDDB2"></path>
                <path d="M18,171.001502 C18,171.001502 21.4906123,170.888146 22.548029,170.092244 C23.6054458,169.296342 27.9215253,168.348495 28.183037,169.62435 C28.4445486,170.900205 33.4314625,175.965035 29.4883213,175.998801 C25.5451801,176.032566 20.3263168,175.347608 19.2757221,174.667474 C18.2251274,173.98734 18,171.001502 18,171.001502 Z" id="Path" fill="#A8A8A8"></path>
                <path d="M29.5591821,175.55972 C25.6143638,175.593496 20.3932808,174.908332 19.3422392,174.227992 C18.5414456,173.711707 18.2229482,171.856455 18.1160241,171 L18,171 C18,171 18.2274982,173.98915 19.2717148,174.667077 C20.3159314,175.345003 25.5438394,176.03258 29.4886577,175.998804 C30.6261485,175.998804 31.0197204,175.55972 30.9992455,174.922807 C30.8399968,175.311227 30.4054753,175.552483 29.5591821,175.55972 Z" id="Path" fill="#000000" opacity="0.2"></path>
            </g>
        </g>
    </g>
</svg>