<?xml version="1.0" encoding="UTF-8"?>
<svg width="64px" height="64px" viewBox="0 0 64 64" version="1.1" xmlns="http://www.w3.org/2000/svg" xmlns:xlink="http://www.w3.org/1999/xlink">
    <title>bank-alpha</title>
    <defs>
        <linearGradient x1="0%" y1="50%" x2="100%" y2="50%" id="linearGradient-1">
            <stop stop-color="#00F2FE" offset="0%"></stop>
            <stop stop-color="#03EFFE" offset="2.1%"></stop>
            <stop stop-color="#24D2FE" offset="29.3%"></stop>
            <stop stop-color="#3CBDFE" offset="55.4%"></stop>
            <stop stop-color="#4AB0FE" offset="79.6%"></stop>
            <stop stop-color="#4FACFE" offset="100%"></stop>
        </linearGradient>
    </defs>
    <g id="Icons" stroke="none" stroke-width="1" fill="none" fill-rule="evenodd">
        <g id="Artboard" transform="translate(-75.000000, -63.000000)" fill="url(#linearGradient-1)" fill-rule="nonzero">
            <g id="bank-alpha" transform="translate(75.000000, 63.000000)">
                <path d="M61.5,52.75 C60.11925,52.75 59,53.86925 59,55.25 C59,59 57.6645,59 56.947125,59 C53.622375,59 51.930375,49.792875 50.478375,39.705 C52.189875,34.830875 53.591125,29.2965 54.66975,23.125375 C56.40775,13.181625 56.616125,5.388375 56.62425,5.061375 C56.658125,3.681125 55.566625,2.534625 54.18625,2.50075 C54.165375,2.50025 54.144625,2.5 54.12375,2.5 C52.771625,2.5 51.659,3.57925 51.62575,4.938625 C51.621375,5.118 51.316375,15.6985 48.692,27.560625 C47.24425,19.933625 44.67,13.521 41.172625,8.87975 C36.795,3.070625 30.986625,0 24.375,0 C20.982,0 17.7005,0.8905 14.621625,2.646625 C11.713875,4.30525 9.115625,6.661875 6.898875,9.65125 C2.450125,15.650875 0,23.58775 0,32 C0,40.41225 2.450125,48.349125 6.898875,54.34875 C9.1155,57.338125 11.713875,59.69475 14.6215,61.353375 C17.7005,63.1095 20.982,64 24.375,64 C27.02975,64 29.567,63.583875 31.916125,62.763 C33.219625,62.3075 33.907125,60.88175 33.451625,59.57825 C32.996,58.27475 31.57,57.5875 30.266875,58.04275 C28.44925,58.678 26.46675,59 24.375,59 C19.3435,59 14.5635,56.2905 10.915125,51.3705 C7.10075,46.2265 5,39.34725 5,32 C5,24.65275 7.10075,17.7735 10.915125,12.6295 C14.5635,7.7095 19.3435,5 24.375,5 C29.42675,5 33.734875,7.31775 37.1795,11.888875 C40.650625,16.495125 43.104125,23.269 44.275125,31.478 C44.497875,33.0395 44.711,34.57475 44.917125,36.0595 C45.063625,37.11475 45.20725,38.149 45.35,39.162125 C43.717625,43.58125 41.66425,47.76425 39.081375,51.224 C38.255375,52.330375 38.48275,53.896875 39.589125,54.722875 C40.038125,55.058 40.562625,55.21975 41.08275,55.21975 C41.84475,55.21975 42.597125,54.87275 43.088,54.215125 C44.40725,52.448 45.6385,50.47625 46.78075,48.3055 C47.234,50.7685 47.729875,52.990625 48.313,54.923 C48.9905,57.168 51.0525,64 56.94725,64 C60.0985,64 61.781375,62.365375 62.638125,60.99425 C63.54175,59.548 64,57.615375 64,55.25 C64,53.86925 62.88075,52.75 61.5,52.75 Z" id="Path"></path>
            </g>
        </g>
    </g>
</svg>