<?xml version="1.0" encoding="UTF-8"?>
<svg width="46px" height="64px" viewBox="0 0 46 64" version="1.1" xmlns="http://www.w3.org/2000/svg" xmlns:xlink="http://www.w3.org/1999/xlink">
    <title>bank-beta</title>
    <defs>
        <linearGradient x1="0%" y1="50%" x2="100%" y2="50%" id="linearGradient-1">
            <stop stop-color="#EA53D2" offset="0%"></stop>
            <stop stop-color="#93066D" offset="100%"></stop>
        </linearGradient>
    </defs>
    <g id="Icons" stroke="none" stroke-width="1" fill="none" fill-rule="evenodd">
        <g id="Artboard" transform="translate(-84.000000, -175.000000)" fill="url(#linearGradient-1)" fill-rule="nonzero">
            <g id="bank-beta" transform="translate(84.000000, 175.000000)">
                <path d="M35.440125,24.564 C38.277625,21.97875 40.0625,18.257 40.0625,14.125 C40.0625,6.336375 33.726125,0 25.9375,0 C18.167,0 11.841875,6.306625 11.812625,14.070375 L11.752125,15.520875 C11.75075,15.5555 11.75,15.590375 11.75,15.625 L11.75,55.625 C11.75,57.486 10.236,59 8.375,59 C6.514,59 5,57.486 5,55.625 C5,54.24425 3.88075,53.125 2.5,53.125 C1.11925,53.125 0,54.24425 0,55.625 C0,60.243 3.757,64 8.375,64 C12.993,64 16.75,60.243 16.75,55.625 L16.75,51.9775 C19.8015,55.003125 23.9985,56.875 28.625,56.875 C32.899875,56.875 36.978125,55.273375 40.108375,52.36525 C41.119875,51.4255 41.178125,49.843625 40.238375,48.832125 C39.298625,47.820625 37.71675,47.76225 36.70525,48.702125 C34.502875,50.748125 31.63325,51.875 28.625,51.875 C22.077125,51.875 16.75,46.547875 16.75,40 L16.75,15.677125 L16.810375,14.229125 C16.81175,14.1945 16.8125,14.159625 16.8125,14.125 C16.8125,9.0935 20.906,5 25.9375,5 C30.969,5 35.0625,9.0935 35.0625,14.125 C35.0625,18.88725 31.39575,22.809125 26.737,23.215375 L25.8355,23.252125 C24.47575,23.307625 23.41025,24.4405 23.437875,25.801125 C23.46575,27.1615 24.576625,28.25 25.9375,28.25 C26.311625,28.25 26.681875,28.2355 27.04875,28.206625 L28.943875,28.129375 C35.345,28.299 40.5,33.55875 40.5,40 C40.5,41.38075 41.61925,42.5 43,42.5 C44.38075,42.5 45.5,41.38075 45.5,40 C45.5,33.119125 41.35975,27.18775 35.440125,24.564 Z" id="Path"></path>
            </g>
        </g>
    </g>
</svg>