<?xml version="1.0" encoding="UTF-8"?>
<svg width="64px" height="32px" viewBox="0 0 64 32" version="1.1" xmlns="http://www.w3.org/2000/svg" xmlns:xlink="http://www.w3.org/1999/xlink">
    <title>bank-infinity</title>
    <defs>
        <linearGradient x1="0%" y1="50%" x2="100%" y2="50%" id="linearGradient-1">
            <stop stop-color="#D7BB26" offset="0%"></stop>
            <stop stop-color="#9C830D" offset="100%"></stop>
        </linearGradient>
    </defs>
    <g id="Icons" stroke="none" stroke-width="1" fill="none" fill-rule="evenodd">
        <g id="Artboard" transform="translate(-78.000000, -421.000000)" fill="url(#linearGradient-1)" fill-rule="nonzero">
            <g id="bank-infinity" transform="translate(78.000000, 421.000000)">
                <path d="M59.572625,4.427375 C56.67625,1.531 52.6745,0 48,0 C38.453875,0 33.825,7.8575 29.740875,14.79 C25.88125,21.34175 22.547875,27 16,27 C9.215,27 5,22.785 5,16 C5,9.215 9.215,5 16,5 C18.90125,5 21.524625,6.16275 24.02,8.55475 C25.01675,9.510125 26.59925,9.476875 27.55475,8.48 C28.51025,7.48325 28.47675,5.90075 27.48,4.94525 C24.05675,1.663875 20.194375,0 16,0 C11.325625,0 7.323875,1.531 4.427375,4.427375 C1.531,7.323875 0,11.325625 0,16 C0,20.674375 1.531,24.676125 4.427375,27.572625 C7.323875,30.469 11.325625,32 16,32 C23.68775,32 28.1595,26.792125 31.748875,21.1345 C32.33125,22.1225 33.038,23.201375 33.876,24.282 C37.791375,29.331125 42.675375,32 48,32 C49.837875,32 51.5945,31.758125 53.220875,31.28125 C54.545875,30.892875 55.305,29.50375 54.9165,28.178875 C54.528,26.853875 53.139,26.094875 51.814125,26.48325 C50.64475,26.826125 49.3615,27 48,27 C40.423,27 36.066625,18.95775 34.764375,16.11625 C38.373375,10.030375 41.72375,5 48,5 C54.785,5 59,9.215 59,16 C59,17.52625 58.786625,18.944 58.366125,20.213875 C57.932,21.5245 58.6425,22.939 59.953125,23.373125 C61.264125,23.8075 62.67825,23.096625 63.112375,21.786125 C63.701375,20.008125 64,18.0615 64,16 C64,11.3255 62.469,7.323875 59.572625,4.427375 Z" id="Path"></path>
            </g>
        </g>
    </g>
</svg>