<?xml version="1.0" encoding="UTF-8"?>
<svg viewBox="0 0 40 40" version="1.1" xmlns="http://www.w3.org/2000/svg" xmlns:xlink="http://www.w3.org/1999/xlink">
    <title>loantype-home-improvement</title>
    <g id="Icons" stroke-width="1" fill-rule="evenodd">
        <g id="Artboard" transform="translate(-86.000000, -337.000000)" fill-rule="nonzero">
            <g id="loantype-home-improvement" transform="translate(86.000000, 337.000000)">
                <path d="M39.5373535,19.8590088 C39.2327881,20.1617431 38.8342285,20.3131103 38.4362793,20.3131103 C38.034668,20.3131103 37.6333618,20.1593017 37.3278809,19.8519898 L36.0925293,18.6083984 L36.0925293,24.6881103 C36.0925293,25.5508423 35.3930664,26.2503052 34.5300293,26.2503052 L32.3428345,26.2503052 C31.4797973,26.2503052 30.7803345,25.5508423 30.7803345,24.6881103 C30.7803345,23.8250733 31.4797973,23.1256103 32.3428345,23.1256103 L32.9678345,23.1256103 L32.9678345,15.4629516 L21.0845947,3.50158688 C20.5014038,3.00201414 19.6429444,3.00018313 19.0576172,3.49731445 L7.02880859,15.5026245 C7.02911375,15.5175781 7.03094484,15.5325317 7.03094484,15.5477905 L7.03094484,23.1256103 L7.73406984,23.1256103 C8.59710695,23.1256103 9.29656984,23.8250733 9.29656984,24.6881103 C9.29656984,25.5508423 8.59710695,26.2503052 7.73406984,26.2503052 L5.46875,26.2503052 C4.60571289,26.2503052 3.90625,25.5508423 3.90625,24.6881103 L3.90625,18.6190796 L2.66632078,19.8565673 C2.05535891,20.4660034 1.06628422,20.465393 0.456542969,19.8544312 C-0.152893047,19.2437744 -0.1519775,18.2543945 0.458679219,17.6446533 L16.887207,1.2487793 C16.9082641,1.22772219 16.9296265,1.20758055 16.9519043,1.18774414 C18.7362671,-0.401000937 21.4227295,-0.395202656 23.2003784,1.20086672 C23.2223511,1.22070313 23.2440186,1.24114992 23.2647705,1.26220703 L39.5446777,17.6495361 C40.152893,18.2617188 40.1495361,19.2507934 39.5373535,19.8590088 L39.5373535,19.8590088 Z M34.5300293,29.3753052 C33.6672973,29.3753052 32.9678345,30.074768 32.9678345,30.9378052 L32.9678345,36.875 L32.3428345,36.875 C31.4797973,36.875 30.7803345,37.5744629 30.7803345,38.4375 C30.7803345,39.3005371 31.4797973,40 32.3428345,40 L34.5300293,40 C35.3930664,40 36.0925293,39.3005371 36.0925293,38.4375 L36.0925293,30.9378052 C36.0925293,30.074768 35.3930664,29.3753052 34.5300293,29.3753052 Z M7.73406984,36.875 L7.03094484,36.875 L7.03094484,30.9378052 C7.03094484,30.074768 6.33148195,29.3753052 5.46875,29.3753052 C4.60571289,29.3753052 3.90625,30.074768 3.90625,30.9378052 L3.90625,38.4375 C3.90625,39.3005371 4.60571289,40 5.46875,40 L7.73406984,40 C8.59710695,40 9.29656984,39.3005371 9.29656984,38.4375 C9.29656984,37.5744629 8.59710695,36.875 7.73406984,36.875 Z M19.9993897,36.875 C19.1363525,36.875 18.4368897,37.5744629 18.4368897,38.4375 C18.4368897,39.3005371 19.1363525,40 19.9993897,40 C20.8624267,40 21.5618897,39.3005371 21.5618897,38.4375 C21.5618897,37.5744629 20.8624267,36.875 19.9993897,36.875 L19.9993897,36.875 Z M26.0928345,36.875 C25.2301025,36.875 24.5303345,37.5744629 24.5303345,38.4375 C24.5303345,39.3005371 25.2301025,40 26.0928345,40 C26.9558716,40 27.6553345,39.3005371 27.6553345,38.4375 C27.6553345,37.5744629 26.9558716,36.875 26.0928345,36.875 Z M13.9059448,36.875 C13.0429077,36.875 12.3434448,37.5744629 12.3434448,38.4375 C12.3434448,39.3005371 13.0429077,40 13.9059448,40 C14.7686767,40 15.4681397,39.3005371 15.4681397,38.4375 C15.4681397,37.5744629 14.7686767,36.875 13.9059448,36.875 Z M19.9993897,23.1256103 C19.1363525,23.1256103 18.4368897,23.8250733 18.4368897,24.6881103 C18.4368897,25.5508423 19.1363525,26.2503052 19.9993897,26.2503052 C20.8624267,26.2503052 21.5618897,25.5508423 21.5618897,24.6881103 C21.5618897,23.8250733 20.8624267,23.1256103 19.9993897,23.1256103 L19.9993897,23.1256103 Z M26.0928345,23.1256103 C25.2301025,23.1256103 24.5303345,23.8250733 24.5303345,24.6881103 C24.5303345,25.5508423 25.2301025,26.2503052 26.0928345,26.2503052 C26.9558716,26.2503052 27.6553345,25.5508423 27.6553345,24.6881103 C27.6553345,23.8250733 26.9558716,23.1256103 26.0928345,23.1256103 L26.0928345,23.1256103 Z M13.9059448,23.1256103 C13.0429077,23.1256103 12.3434448,23.8250733 12.3434448,24.6881103 C12.3434448,25.5508423 13.0429077,26.2503052 13.9059448,26.2503052 C14.7686767,26.2503052 15.4681397,25.5508423 15.4681397,24.6881103 C15.4681397,23.8250733 14.7686767,23.1256103 13.9059448,23.1256103 L13.9059448,23.1256103 Z" id="Shape"></path>
            </g>
        </g>
    </g>
</svg>