<?xml version="1.0" encoding="UTF-8"?>
<svg width="40px" height="40px" viewBox="0 0 40 40" version="1.1" xmlns="http://www.w3.org/2000/svg" xmlns:xlink="http://www.w3.org/1999/xlink">
    <title>loantype-car</title>
    <g id="Icons" stroke-width="1" fill-rule="evenodd">
        <g id="Artboard" transform="translate(-86.000000, -248.000000)" fill-rule="nonzero">
            <g id="loantype-car" transform="translate(86.000000, 248.000000)">
                <path d="M36.8713379,15.4580688 C36.8713379,14.4134522 36.3531494,13.442688 35.4849243,12.8616333 L21.7364502,3.65692141 C20.6802368,2.9501343 19.3157959,2.9501343 18.2595825,3.65692141 L4.51110844,12.8616333 C3.64318844,13.442688 3.12469484,14.4134522 3.12469484,15.4580688 L3.12469484,38.4378052 C3.12469484,39.3005371 2.42523195,40 1.5625,40 C0.699462891,40 4.4408921e-15,39.3005371 4.4408921e-15,38.4378052 L4.4408921e-15,15.4580688 C4.4408921e-15,13.3688355 1.03668211,11.4276123 2.77252195,10.2651977 L16.5213013,1.06048586 C18.6331177,-0.353393594 21.362915,-0.353393594 23.4747314,1.06048586 L37.2232055,10.2651977 C38.9596558,11.4276123 39.9960327,13.3688355 39.9960327,15.4580688 C39.9960327,16.3208008 39.2965698,17.0202637 38.4335327,17.0202637 C37.5708008,17.0202637 36.8713379,16.3208008 36.8713379,15.4580688 Z M38.4335327,21.7047119 C37.5708008,21.7047119 36.8713379,22.4041748 36.8713379,23.2669067 L36.8713379,38.4378052 C36.8713379,39.3005371 37.5708008,40 38.4335327,40 C39.2965698,40 39.9960327,39.3005371 39.9960327,38.4378052 L39.9960327,23.2669067 C39.9960327,22.4041748 39.2965698,21.7047119 38.4335327,21.7047119 L38.4335327,21.7047119 Z M32.203064,26.1386109 C33.2006836,27.1789551 33.746643,28.5061645 33.746643,29.9230957 L33.746643,38.4378052 C33.746643,39.3005371 33.0471802,40 32.184143,40 L28.0532837,40 C27.1905517,40 26.4910889,39.3005371 26.4910889,38.4378052 L26.4910889,37.6565552 L13.5049438,37.6565552 L13.5049438,38.4378052 C13.5049438,39.3005371 12.8054809,40 11.9427491,40 L7.81188969,40 C6.9488525,40 6.24938969,39.3005371 6.24938969,38.4378052 L6.24938969,29.9591064 C6.24938969,28.5220337 6.82037352,27.2079468 7.76031492,26.1999512 C7.78320312,26.1444092 7.80883789,26.0894775 7.83874516,26.0354614 L10.7733155,20.7461548 C11.8679809,18.7915039 14.013977,17.5805664 16.3772583,17.5805664 L23.616333,17.5805664 C25.9814453,17.5805664 28.1286621,18.7930298 29.2193603,20.7446289 L32.1762085,26.0833741 C32.1859741,26.1013794 32.1939087,26.1203003 32.203064,26.1386109 Z M13.5028077,22.2674561 L12.4191284,24.2202759 L27.5726319,24.2202759 L26.4889527,22.2637939 C25.9609985,21.3189697 24.8321533,20.7052613 23.616333,20.7052613 L16.3772583,20.7052613 C15.1623535,20.7052613 14.0341187,21.3183594 13.5028077,22.2674561 Z M30.6219483,29.9227905 C30.6219483,28.5015869 29.2611695,27.3449707 27.5888062,27.3449707 L12.4075317,27.3449707 C10.7348633,27.3449707 9.37408445,28.5177613 9.37408445,29.9591064 L9.37408445,34.5318603 L15.1968384,34.5318603 L16.4959717,32.633667 C16.7871094,32.208252 17.2695923,31.9540405 17.7853394,31.9540405 L22.2729492,31.9540405 C22.7737427,31.9540405 23.2440186,32.1939087 23.5379028,32.5991821 L24.9389648,34.5318603 L30.6219483,34.5318603 L30.6219483,29.9227905 Z M26.9503784,29.4543457 C26.0876465,29.4543457 25.3881836,30.1538086 25.3881836,31.0165405 C25.3881836,31.8795777 26.0876465,32.5790405 26.9503784,32.5790405 C27.8134155,32.5790405 28.5128784,31.8795777 28.5128784,31.0165405 C28.5128784,30.1538086 27.8134155,29.4543457 26.9503784,29.4543457 L26.9503784,29.4543457 Z M12.9675293,29.4543457 C12.1044922,29.4543457 11.4050293,30.1538086 11.4050293,31.0165405 C11.4050293,31.8795777 12.1044922,32.5790405 12.9675293,32.5790405 C13.8302612,32.5790405 14.5297241,31.8795777 14.5297241,31.0165405 C14.5297241,30.1538086 13.8302612,29.4543457 12.9675293,29.4543457 L12.9675293,29.4543457 Z" id="Shape"></path>
            </g>
        </g>
    </g>
</svg>