<?xml version="1.0" encoding="UTF-8"?>
<svg width="40px" height="40px" viewBox="0 0 40 40" version="1.1" xmlns="http://www.w3.org/2000/svg" xmlns:xlink="http://www.w3.org/1999/xlink">
    <title>loantype-other</title>
    <g id="Icons" stroke="none" stroke-width="1" fill="none" fill-rule="evenodd">
        <g id="Artboard" transform="translate(-86.000000, -39.000000)" fill="#000000" fill-rule="nonzero">
            <g id="loantype-other" transform="translate(86.000000, 39.000000)">
                <path d="M20,40 C14.657898,40 9.63531492,37.9196167 5.85784914,34.1421509 C2.08038328,30.3646851 0,25.342102 0,20 C0,14.657898 2.08038328,9.63531492 5.85784914,5.85784914 C9.63531492,2.08038328 14.657898,0 20,0 C25.342102,0 30.3646851,2.08038328 34.1421509,5.85784914 C37.9196167,9.63531492 40,14.657898 40,20 C40,23.9477539 38.8284302,27.7871704 36.6113281,31.1029053 C36.131897,31.8200684 35.161438,32.0129395 34.4439697,31.5332031 C33.7268066,31.053772 33.5339355,30.083313 34.0136719,29.3658447 C35.8856202,26.565857 36.875,23.3273316 36.875,20 C36.875,10.6951905 29.3048095,3.125 20,3.125 C10.6951905,3.125 3.125,10.6951905 3.125,20 C3.125,29.3048095 10.6951905,36.875 20,36.875 C23.0862427,36.875 26.1050415,36.0345459 28.7295532,34.4448852 C29.4674683,33.9978027 30.4281616,34.2333984 30.8755493,34.9716187 C31.3226319,35.7098389 31.0867309,36.6705322 30.3485108,37.1176148 C27.2357178,39.0032959 23.6572266,40 20,40 Z M27.1884155,30.262146 C28.2751465,29.4680786 28.7075805,28.1298828 28.2897949,26.8527222 L26.9573975,22.7786255 L30.4492188,20.2581787 C31.5298462,19.4781494 31.9784546,18.0957031 31.5655517,16.8185425 C31.1471558,15.5239868 30.0039673,14.6875 28.6526489,14.6875 L24.3115234,14.6875 L22.9904175,10.6225586 C22.5717163,9.34265141 21.4285278,8.515625 20.078125,8.515625 C18.7277222,8.515625 17.5845337,9.34265141 17.164917,10.6256103 L15.8447266,14.6875 L11.5036011,14.6875 C10.1522827,14.6875 9.00909422,15.5239868 8.59069828,16.8182373 C8.17779539,18.0957031 8.62640383,19.4781494 9.70703125,20.2581787 L13.1988525,22.7783203 L11.8664551,26.8527222 C11.4486695,28.1298828 11.8811035,29.4680786 12.9678345,30.2618408 C14.0615845,31.060791 15.4776001,31.0647583 16.5753173,30.2722168 L20.078125,27.7432251 L23.5809327,30.2722168 C24.1275024,30.6668091 24.7525024,30.8639527 25.3778077,30.8639527 C26.0083008,30.8639527 26.6390991,30.663147 27.1884155,30.262146 Z M15.8734131,17.8125 C17.2116089,17.8125 18.381958,16.9836426 18.7866211,15.7467652 L20.0784302,11.7724609 L21.3705445,15.7495117 C21.774292,16.9836426 22.9446411,17.8125 24.2828369,17.8125 L28.4979248,17.8125 L25.0851441,20.2758789 C24.0039063,21.0562134 23.555603,22.4304199 23.9694214,23.6953735 L25.2548218,27.6263428 L21.8746948,25.1861572 C21.3485718,24.8065186 20.7272339,24.6057129 20.078125,24.6057129 C19.4287109,24.6057129 18.807373,24.8062134 18.28125,25.1861572 L14.901123,27.626648 L16.1868286,23.6956788 C16.600647,22.4304199 16.1520386,21.0562134 15.0711059,20.2758789 L11.6586304,17.8125 L15.8734131,17.8125 Z" id="Shape"></path>
            </g>
        </g>
    </g>
</svg>