<?xml version="1.0" encoding="UTF-8"?>
<svg width="40px" height="40px" viewBox="0 0 40 40" version="1.1" xmlns="http://www.w3.org/2000/svg" xmlns:xlink="http://www.w3.org/1999/xlink">
    <title>loantype-holiday</title>
    <g id="Icons" stroke-width="1" fill-rule="evenodd">
        <g id="Artboard" transform="translate(-86.000000, -409.000000)" fill-rule="nonzero">
            <g id="loantype-holiday" transform="translate(86.000000, 409.000000)">
                <path d="M4.68757812,20.0000781 C7.27226563,20.0000781 9.37507812,17.8972656 9.37507812,15.3125781 C9.37507812,12.7278906 7.27226563,10.6250781 4.68757812,10.6250781 C2.10289062,10.6250781 7.8125e-05,12.7278906 7.8125e-05,15.3125781 C7.8125e-05,17.8972656 2.10289062,20.0000781 4.68757812,20.0000781 Z M4.68757812,13.7500781 C5.54914063,13.7500781 6.25007813,14.4510156 6.25007813,15.3125781 C6.25007813,16.1741406 5.54914063,16.8750781 4.68757813,16.8750781 C3.82601563,16.8750781 3.12507813,16.1741406 3.12507813,15.3125781 C3.12507813,14.4510156 3.82609375,13.7500781 4.68757812,13.7500781 Z M40.0002064,33.9844531 C40.0002064,34.8474219 39.3005469,35.5469531 38.4375781,35.5469531 L35.5051563,35.5469531 L36.5732031,37.7579687 C37.074375,38.7954687 36.3185156,40.0000781 35.16625,40.0000781 C34.5667188,40.0000781 34.0200781,39.6570312 33.7592969,39.1171875 L32.0346875,35.5469531 L15.056875,35.5298437 L13.3241406,39.1171875 C13.0633594,39.6570313 12.5167187,40.0000781 11.9171875,40.0000781 C10.765,40.0000781 10.0090625,38.7954687 10.5102344,37.7579687 L11.9501562,34.7770312 C11.3933594,34.5292969 10.8588281,34.2244531 10.3545312,33.8623437 L0.651171875,26.8942187 C-0.049765625,26.3908594 -0.209921875,25.4146094 0.2934375,24.7136719 C0.79671875,24.0126562 1.77296875,23.8525 2.47398437,24.3559375 L12.1772656,31.3240625 C13.1774219,32.0423438 14.3569531,32.4219531 15.5883594,32.4219531 L21.3107031,32.4219531 C20.6611719,32.3284375 20.0242187,32.098125 19.445625,31.72375 L11.1927344,26.3842969 C8.98789062,25.0692187 8.2496875,22.2094531 9.54929687,19.9900781 C10.1819531,18.9096094 11.1975,18.1402344 12.4089062,17.8235937 C13.6201562,17.5070312 14.8824219,17.6810156 15.9629687,18.3136719 C15.9857812,18.3270312 16.0082812,18.3409375 16.0303125,18.3554687 L22.2632812,22.4434375 C22.9848437,22.9167187 23.1861719,23.8853906 22.7128906,24.6069531 C22.2396094,25.3285156 21.2709375,25.5298437 20.549375,25.0565625 L14.3552344,20.9939844 C14.0015625,20.7964844 13.5923437,20.7442187 13.1992187,20.8470312 C12.7954687,20.9525781 12.4569531,21.2090625 12.2460156,21.5692188 C11.810625,22.3127344 12.0613281,23.2717188 12.8048437,23.7071094 C12.8248437,23.7188281 12.8445312,23.7310156 12.8640625,23.7435937 L21.1432031,29.1000781 C21.7942187,29.5211719 22.6673437,29.3964062 23.1742969,28.8096875 L28.1735156,23.0713281 C28.8799219,22.2604687 29.9090625,21.796875 31.0004687,21.796875 C31.0090625,21.796875 31.0175781,21.796875 31.0261719,21.7969531 C32.1204688,21.8042969 33.1496875,22.2778125 33.8500781,23.0961719 L39.6247656,29.8434375 C40.1858594,30.4990625 40.1092969,31.4853906 39.4536719,32.0464844 C38.798125,32.6076562 37.8117187,32.5310156 37.250625,31.8753906 L31.4759375,25.128125 C31.3314062,24.9592969 31.1402344,24.9228125 31.0053125,24.921875 C30.8717187,24.9210156 30.676875,24.9552344 30.5298437,25.1239844 L25.5348437,30.8575 C24.775625,31.73625 23.7395312,32.2675 22.649375,32.421875 L38.4376563,32.421875 C39.3005469,32.4219531 40.0002064,33.1214844 40.0002064,33.9844531 Z M23.8282031,10.3125781 L25.0798438,10.3125781 C25.2215625,10.8857031 25.4428906,11.4273438 25.7307812,11.92625 L24.8351563,12.8217969 C24.2249219,13.4320312 24.2249219,14.4213281 24.8351563,15.0315625 C25.1403125,15.3367187 25.5400781,15.4892187 25.9400781,15.4892187 C26.3399219,15.4892187 26.7398438,15.3366406 27.0449219,15.0315625 L27.9154688,14.1610937 C28.4355469,14.4764844 29.0051562,14.7178906 29.6094531,14.8713281 L29.6094531,16.0157812 C29.6094531,16.87875 30.3089844,17.5782812 31.1719531,17.5782812 C32.0349219,17.5782812 32.7344531,16.87875 32.7344531,16.0157812 L32.7344531,14.8582031 C33.3133594,14.7060156 33.8596094,14.4728125 34.3604688,14.17125 L35.1655469,14.9763281 C35.470625,15.2814062 35.8704688,15.4339844 36.2703906,15.4339844 C36.6703125,15.4339844 37.0701563,15.2814062 37.3752344,14.9763281 C37.9854688,14.3660937 37.9854688,13.3767969 37.3752344,12.7666406 L36.5525,11.9439062 C36.8453906,11.4401562 37.0702344,10.8924219 37.2135938,10.3125781 L38.4375,10.3125781 C39.3004688,10.3125781 40,9.61304687 40,8.75007812 C40,7.88710937 39.3004688,7.18757812 38.4375,7.18757812 L37.1810156,7.18757812 C37.026875,6.61609375 36.7946875,6.07632812 36.4946875,5.58171875 L37.3752344,4.70109375 C37.9854687,4.09085937 37.9854687,3.1015625 37.3752344,2.49140625 C36.765,1.88117187 35.775625,1.88117187 35.1655469,2.49140625 L34.2599219,3.39710937 C33.7877344,3.12460937 33.2774219,2.91117187 32.7382031,2.7690625 L32.7382031,1.56257812 C32.7382031,0.699609375 32.0386719,7.8125e-05 31.1757031,7.8125e-05 C30.3127344,7.8125e-05 29.6132031,0.699609375 29.6132031,1.56257812 L29.6132031,2.7540625 C29.0471875,2.89742187 28.5123437,3.1190625 28.019375,3.4053125 L27.1580469,2.5440625 C26.5478125,1.93390625 25.5585156,1.93390625 24.9482812,2.5440625 C24.338125,3.15429687 24.338125,4.14359375 24.9482812,4.75382812 L25.7905469,5.59601562 C25.4946875,6.08679687 25.2650781,6.62148437 25.1124219,7.18757812 L23.828125,7.18757812 C22.9651562,7.18757812 22.265625,7.88710937 22.265625,8.75007812 C22.265625,9.61304687 22.9653125,10.3125781 23.8282031,10.3125781 L23.8282031,10.3125781 Z M31.1467969,5.688125 C32.8699219,5.688125 34.2717969,7.09 34.2717969,8.813125 C34.2717969,10.53625 32.8699219,11.938125 31.1467969,11.938125 C29.4236719,11.938125 28.0217969,10.53625 28.0217969,8.813125 C28.0217969,7.09 29.4236719,5.688125 31.1467969,5.688125 Z" id="Shape"></path>
            </g>
        </g>
    </g>
</svg>