<?xml version="1.0" encoding="UTF-8"?>
<svg width="51px" height="64px" viewBox="0 0 51 64" version="1.1" xmlns="http://www.w3.org/2000/svg" xmlns:xlink="http://www.w3.org/1999/xlink">
    <title>bank-sigma</title>
    <defs>
        <linearGradient x1="4.81332095e-05%" y1="50%" x2="99.5247436%" y2="50%" id="linearGradient-1">
            <stop stop-color="#41DF6F" offset="0%"></stop>
            <stop stop-color="#097805" offset="100%"></stop>
        </linearGradient>
    </defs>
    <g id="Icons" stroke="none" stroke-width="1" fill="none" fill-rule="evenodd">
        <g id="Artboard" transform="translate(-84.000000, -298.000000)" fill="url(#linearGradient-1)" fill-rule="nonzero">
            <g id="bank-sigma" transform="translate(84.000000, 298.000000)">
                <path d="M20.748,42.5 C20.11125,42.5 19.474625,42.2585 18.987125,41.774625 C18.007,40.802125 18.00075,39.21925 18.973375,38.239125 L24.625625,32.542625 L1.399875,8.4665 C0.00575,7.013375 -0.3835,4.884875 0.403625,3.038875 C1.19075,1.19275 2.99625,0 5.003,0 L40.498,0 C46.012,0 50.498,4.486 50.498,10 C50.498,11.38075 49.37875,12.5 47.998,12.5 C46.61725,12.5 45.498,11.38075 45.498,10 C45.498,7.243 43.255,5 40.498,5 L5.003,5 L29.92225,30.8315 C30.866,31.809875 30.855125,33.363125 29.897625,34.328125 L22.522625,41.760875 C22.034,42.253375 21.391,42.5 20.748,42.5 Z M50.498,54 C50.498,52.61925 49.37875,51.5 47.998,51.5 C46.61725,51.5 45.498,52.61925 45.498,54 C45.498,56.757 43.255,59 40.498,59 L5.253125,59 C5.255375,58.99775 5.25775,58.995125 5.260625,58.992375 L13.401,50.7575 C14.37175,49.775625 14.3625,48.19275 13.380625,47.222 C12.39875,46.251375 10.815875,46.260625 9.845125,47.2425 L1.71225,55.46975 C0.2805,56.90575 -0.142375,59.043875 0.635125,60.916875 C1.4125,62.78975 3.22525,64 5.253,64 L40.498,64 C46.012,64 50.498,59.514 50.498,54 Z" id="Shape"></path>
            </g>
        </g>
    </g>
</svg>