<svg xmlns="http://www.w3.org/2000/svg" xmlns:xlink="http://www.w3.org/1999/xlink" viewBox="0 0 63 65" fill="#fff" fill-rule="evenodd" stroke="#000" stroke-linecap="round" stroke-linejoin="round"><use xlink:href="#A" x=".5" y=".5"/><symbol id="A" overflow="visible"><path d="M47.516 4.495c-.913-.56-1.857-1.07-2.828-1.525-7.992 15.33-22.5 33.56-41.74 43.93a28.91 28.91 0 0 0 4.168 6.728C23.64 42.264 38.945 23.262 47.52 4.5m-3.558-1.847C40 .922 35.534 0 30.675 0 12.698 0 0 13.877 0 32.144a39.17 39.17 0 0 0 .95 8.7C19.343 33.348 35.683 16.82 43.97 2.642m4.238 2.286C38.778 28.122 27.28 44.54 12.594 58.66 17.556 62.105 23.73 64 30.678 64c17.98 0 30.68-13.972 30.68-32.243 0-12.1-5.017-21.498-13.152-26.83" stroke="none" fill="#1287d9" fill-rule="nonzero"/></symbol></svg>