<svg width="221px" height="48px" viewBox="0 0 221 48" version="1.1" xmlns="http://www.w3.org/2000/svg" xmlns:xlink="http://www.w3.org/1999/xlink">
    <!-- Generator: Sketch 51.1 (57501) - http://www.bohemiancoding.com/sketch -->
    <desc>Created with Sketch.</desc>
    <defs></defs>
    <g id="TIBCO-NOW-VD-v2" stroke="none" stroke-width="1" fill="none" fill-rule="evenodd">
        <g id="TIBCO-BPME-Instance---Loan-App_v2-01" transform="translate(-97.000000, -463.000000)" fill="#FFFFFF">
            <g id="Group-2" transform="translate(38.000000, 385.000000)">
                <g id="Group" transform="translate(59.000000, 75.000000)">
                    <g id="TIBCO-BPM-Enterprise-logo" transform="translate(0.000000, 28.000000)" fill-rule="nonzero">
                        <g id="TIBCO-BPM-log" transform="translate(0.468750, 0.000000)">
                            <g id="globalNavBar_logo">
                                <g id="ic-tibco">
                                    <path d="M60.160301,2.88134818 C57.9626766,7.88365986 54.0387762,12.9483835 49.8016444,15.9763995 C49.37633,15.4448584 49.0170644,14.8457044 48.7328544,14.1830984 C53.6604967,11.4182523 57.3852499,6.55948794 59.4347648,2.4746308 C59.6859504,2.59633395 59.9281294,2.73259987 60.160301,2.88134818 Z M59.2486272,2.38725417 C57.1240568,6.16629314 52.9349604,10.570491 48.2194749,12.5687112 C48.0603573,11.8457736 47.9762952,11.0718664 47.9762952,10.2501101 C47.9762952,5.38094372 51.2337029,1.6830402 55.8431099,1.6830402 C57.0880302,1.6830402 58.2358786,1.9295671 59.2486272,2.38725417 Z M60.337432,2.99576995 C62.4239742,4.41668027 63.708924,6.91939642 63.708924,10.1460903 C63.708924,15.0152566 60.452517,18.7391651 55.8431099,18.7391651 C54.0617933,18.7391651 52.4786231,18.2346692 51.206683,17.3161743 C54.9714656,13.5537786 57.9186441,9.17766605 60.337432,2.99576995 Z" id="tibco-bug"></path>
                                    <path d="M46.5632507,5.0959295 C45.1832307,4.15663079 43.9042853,3.71350649 42.2730796,3.71350649 C38.8605572,3.71350649 36.57787,6.16525294 36.57787,10.207462 C36.57787,14.249671 38.8855757,16.8314422 42.3231166,16.8314422 C44.0043593,16.8314422 45.6605835,16.1272282 46.7633987,15.2409796 L47.1146583,17.4576413 C45.8357129,18.29188 44.0293777,18.8130192 42.2730796,18.8130192 C37.6816859,18.8130192 34.4192744,15.5020693 34.4192744,10.3114818 C34.4192744,5.12193445 37.7067044,1.73088931 42.2730796,1.73088931 C44.0543962,1.73088931 45.9608054,2.25306865 47.2407515,3.08834755 L46.5632507,5.0959295" id="C"></path>
                                    <path d="M32.6589733,13.8075868 C32.6589733,16.5703526 30.8786574,18.4219047 26.8386712,18.4219047 L21.4947212,18.4219047 L21.4947212,2.12304391 L26.6885602,2.12304391 C30.4773607,2.12304391 32.1576027,3.89658133 32.1576027,6.45234755 C32.1576027,8.12082498 31.2289162,9.3472183 29.4736189,10.0254273 C31.5561581,10.5725714 32.6589733,11.9809994 32.6589733,13.8075868 Z M26.8636897,4.15663079 L23.6272975,4.15663079 L23.6272975,9.26816326 L26.5374486,9.26816326 C28.7951173,9.26816326 30.0250264,8.22588497 30.0250264,6.63438219 C30.0250264,5.06992455 28.9212105,4.15663079 26.8636897,4.15663079 Z M26.7135787,11.2767854 L23.6272975,11.2767854 L23.6272975,16.3883179 L27.0398198,16.3883179 C29.3725441,16.3883179 30.5273977,15.5280742 30.5273977,13.8325516 C30.5273977,11.9549944 28.9212105,11.2767854 26.7135787,11.2767854 Z" id="B"></path>
                                    <polygon id="I" points="15.6794227 2.12304391 17.7869806 2.12304391 17.7869806 18.4219047 15.6794227 18.4219047"></polygon>
                                    <polyline id="T" points="7.67650739 4.20968089 7.67650739 18.4219047 5.56894958 18.4219047 5.56894958 4.20968089 0.0738878784 4.20968089 0.0738878784 2.12304391 13.1715691 2.12304391 13.1715691 4.20968089 7.67650739 4.20968089"></polyline>
                                    <path d="M63.708924,2.45590724 L63.708924,2.44342486 C63.708924,1.29504638 64.604586,0.32662214 65.7334204,0.32662214 C66.8742637,0.32662214 67.7589175,1.28256401 67.7589175,2.43198269 L67.7589175,2.44342486 C67.7589175,3.59284354 66.8622548,4.56126778 65.7334204,4.56126778 C64.5935779,4.56126778 63.708924,3.60532591 63.708924,2.45590724 Z M67.5257452,2.44342486 L67.5257452,2.43198269 C67.5257452,1.40322697 66.7581778,0.556505875 65.7334204,0.556505875 C64.7206718,0.556505875 63.9410957,1.41570934 63.9410957,2.44342486 L63.9410957,2.45590724 C63.9410957,3.48362275 64.7096637,4.33138404 65.7334204,4.33138404 C66.746169,4.33138404 67.5257452,3.47218058 67.5257452,2.44342486 Z M64.9418354,1.33145331 L65.873524,1.33145331 C66.326859,1.33145331 66.6651091,1.56029684 66.6651091,2.00758195 C66.6651091,2.35916883 66.4669627,2.57657019 66.1867555,2.66186642 L66.7341601,3.47218058 L66.2578081,3.47218058 L65.7684464,2.73468027 L65.3381282,2.73468027 L65.3381282,3.47218058 L64.9418354,3.47218058 L64.9418354,1.33145331 Z M65.8384981,2.39557576 C66.1066963,2.39557576 66.2578081,2.25098825 66.2578081,2.04502907 C66.2578081,1.81514533 66.1066963,1.69448237 65.8384981,1.69448237 L65.3381282,1.69448237 L65.3381282,2.39557576 L65.8384981,2.39557576 Z" id="registered"></path>
                                </g>
                            </g>
                        </g>
                        <path d="M77.869039,18.602537 C79.5229889,18.602537 80.8026614,18.2078929 81.7080564,17.4186047 C82.6134513,16.6293164 83.0661488,15.5440451 83.0661488,14.1627907 C83.0661488,13.260747 82.8219774,12.4837914 82.3336344,11.8319239 C81.8452914,11.1800564 81.1805034,10.7378436 80.3392702,10.5052854 C81.0521797,10.2022551 81.6153781,9.77413672 82.0288656,9.22093023 C82.4423531,8.66772375 82.6490968,8.03171247 82.6490968,7.31289641 C82.6490968,5.95983087 82.2231334,4.9379845 81.3712066,4.24735729 C80.5192799,3.55673009 79.2485188,3.21141649 77.5589234,3.21141649 L72.46875,3.21141649 L72.46875,18.602537 L77.869039,18.602537 Z M77.6230853,9.77589852 L74.5219292,9.77589852 L74.5219292,4.88160677 L77.5589234,4.88160677 C78.5783839,4.88160677 79.3376325,5.07364341 79.8366691,5.4577167 C80.3357057,5.84178999 80.585224,6.45665962 80.585224,7.30232558 C80.585224,8.06342495 80.3161007,8.66596195 79.777854,9.10993658 C79.2396074,9.55391121 78.5213512,9.77589852 77.6230853,9.77589852 Z M77.9118136,16.9429175 L74.5219292,16.9429175 L74.5219292,11.4038055 L77.9438945,11.4038055 C79.9828155,11.4038055 81.002276,12.3305144 81.002276,14.1839323 C81.002276,15.0436927 80.7260236,15.7184637 80.1735188,16.2082452 C79.621014,16.6980268 78.8671122,16.9429175 77.9118136,16.9429175 Z M88.1563223,18.602537 L88.1563223,12.577167 L91.8242413,12.577167 C93.5851276,12.577167 94.9378733,12.1737139 95.8824783,11.3668076 C96.8270833,10.5599013 97.2993858,9.40944327 97.2993858,7.9154334 C97.2993858,6.49894292 96.8163897,5.36081748 95.8503974,4.50105708 C94.8844051,3.64129669 93.5494822,3.21141649 91.8456286,3.21141649 L86.1031431,3.21141649 L86.1031431,18.602537 L88.1563223,18.602537 Z M91.8456286,10.9175476 L88.1563223,10.9175476 L88.1563223,4.88160677 L91.9632587,4.88160677 C92.9827192,4.90274841 93.7847423,5.18816068 94.369328,5.73784355 C94.9539138,6.28752643 95.2462066,7.02043693 95.2462066,7.93657505 C95.2462066,8.90204369 94.9539138,9.64023961 94.369328,10.1511628 C93.7847423,10.662086 92.9435092,10.9175476 91.8456286,10.9175476 Z M101.972507,18.602537 L101.972507,12.6088795 L101.769328,6.17124736 L106.870195,18.602537 L108.44216,18.602537 L113.553721,6.13953488 L113.361236,12.6088795 L113.361236,18.602537 L115.414415,18.602537 L115.414415,3.21141649 L112.751698,3.21141649 L107.661525,15.769556 L102.571351,3.21141649 L99.919328,3.21141649 L99.919328,18.602537 L101.972507,18.602537 Z M134.352854,18.602537 L134.352854,16.9429175 L126.514415,16.9429175 L126.514415,11.4883721 L133.262103,11.4883721 L133.262103,9.82875264 L126.514415,9.82875264 L126.514415,4.88160677 L134.245918,4.88160677 L134.245918,3.21141649 L124.461236,3.21141649 L124.461236,18.602537 L134.352854,18.602537 Z M138.576842,18.602537 L138.576842,10.4524313 C138.847748,9.90274841 139.22559,9.45877378 139.710368,9.1205074 C140.195147,8.78224101 140.758345,8.61310782 141.399964,8.61310782 C142.191293,8.61310782 142.774097,8.81042988 143.148374,9.205074 C143.522652,9.59971811 143.713355,10.2093023 143.720484,11.0338266 L143.720484,18.602537 L145.698808,18.602537 L145.698808,11.0443975 C145.677421,8.31712474 144.444087,6.95348837 141.998808,6.95348837 C140.572989,6.95348837 139.418076,7.50317125 138.534068,8.602537 L138.469906,7.16490486 L136.598519,7.16490486 L136.598519,18.602537 L138.576842,18.602537 Z M152.061525,18.8139535 C152.553432,18.8139535 153.059598,18.7434813 153.580022,18.602537 L153.580022,17.0169133 C153.180792,17.1014799 152.867112,17.1437632 152.638981,17.1437632 C152.17559,17.1437632 151.847652,17.0292459 151.655166,16.8002114 C151.462681,16.5711769 151.366438,16.2276251 151.366438,15.769556 L151.366438,8.67653277 L153.526553,8.67653277 L153.526553,7.16490486 L151.366438,7.16490486 L151.366438,4.39534884 L149.388114,4.39534884 L149.388114,7.16490486 L147.281467,7.16490486 L147.281467,8.67653277 L149.388114,8.67653277 L149.388114,15.769556 C149.388114,16.7420719 149.612681,17.4926004 150.061814,18.0211416 C150.510947,18.5496829 151.177517,18.8139535 152.061525,18.8139535 Z M160.637825,18.8139535 C162.576939,18.8139535 164.031274,18.0775194 165.000831,16.6046512 L163.792449,15.6744186 C163.428866,16.1395349 163.004684,16.5130374 162.519906,16.794926 C162.035128,17.0768147 161.443413,17.217759 160.744762,17.217759 C159.760947,17.217759 158.950012,16.8706836 158.311958,16.1765328 C157.673904,15.482382 157.340619,14.5715292 157.312103,13.4439746 L165.150542,13.4439746 L165.150542,12.6300211 C165.150542,10.8047921 164.73349,9.40239605 163.899386,8.42283298 C163.065282,7.44326991 161.89611,6.95348837 160.391871,6.95348837 C159.472218,6.95348837 158.618509,7.20542636 157.830744,7.70930233 C157.042979,8.21317829 156.429877,8.91085271 155.991438,9.80232558 C155.552999,10.6937984 155.333779,11.7068358 155.333779,12.8414376 L155.333779,13.2008457 C155.333779,14.906272 155.825686,16.2681466 156.809501,17.2864693 C157.793316,18.3047921 159.069424,18.8139535 160.637825,18.8139535 Z M163.172218,11.8372093 L157.376264,11.8372093 C157.504588,10.8012685 157.839656,9.99612403 158.381467,9.4217759 C158.923278,8.84742777 159.593413,8.5602537 160.391871,8.5602537 C161.218846,8.5602537 161.874723,8.83333333 162.359501,9.3794926 C162.84428,9.92565187 163.115185,10.6955603 163.172218,11.6892178 L163.172218,11.8372093 Z M169.417305,18.602537 L169.417305,10.4841438 C169.880696,9.39182523 170.761139,8.84566596 172.058634,8.84566596 C172.40796,8.84566596 172.732334,8.87033122 173.031756,8.91966173 L173.031756,7.10147992 C172.832141,7.00281889 172.539848,6.95348837 172.154877,6.95348837 C170.964318,6.95348837 170.044665,7.46441156 169.395918,8.48625793 L169.363837,7.16490486 L167.438981,7.16490486 L167.438981,18.602537 L169.417305,18.602537 Z M176.827999,23 L176.827999,17.4926004 C177.633586,18.3735025 178.738596,18.8139535 180.143027,18.8139535 C181.518943,18.8139535 182.609694,18.2818887 183.415282,17.217759 C184.220869,16.1536293 184.623663,14.7512333 184.623663,13.0105708 L184.623663,12.8308668 C184.623663,10.9844961 184.219087,9.54334038 183.409935,8.50739958 C182.600783,7.47145877 181.50112,6.95348837 180.110947,6.95348837 C178.677999,6.95348837 177.558731,7.44679352 176.753143,8.43340381 L176.6569,7.16490486 L174.849675,7.16490486 L174.849675,23 L176.827999,23 Z M179.544184,17.217759 C178.325108,17.217759 177.419713,16.696265 176.827999,15.653277 L176.827999,10.1881607 C177.426842,9.13812544 178.325108,8.61310782 179.522796,8.61310782 C180.492353,8.61310782 181.255166,8.98661029 181.811236,9.73361522 C182.367305,10.4806202 182.64534,11.4989429 182.64534,12.7885835 C182.64534,14.2544045 182.365523,15.3590557 181.805889,16.102537 C181.246255,16.8460183 180.492353,17.217759 179.544184,17.217759 Z M189.114993,18.602537 L189.114993,10.4841438 C189.578384,9.39182523 190.458827,8.84566596 191.756322,8.84566596 C192.105648,8.84566596 192.430022,8.87033122 192.729444,8.91966173 L192.729444,7.10147992 C192.529829,7.00281889 192.237536,6.95348837 191.852565,6.95348837 C190.662006,6.95348837 189.742353,7.46441156 189.093605,8.48625793 L189.061525,7.16490486 L187.136669,7.16490486 L187.136669,18.602537 L189.114993,18.602537 Z M195.723663,5.2410148 C196.108634,5.2410148 196.400927,5.13530655 196.600542,4.92389006 C196.800157,4.71247357 196.899964,4.44820296 196.899964,4.13107822 C196.899964,3.81395349 196.800157,3.54615927 196.600542,3.32769556 C196.400927,3.10923185 196.108634,3 195.723663,3 C195.338692,3 195.048182,3.10923185 194.852132,3.32769556 C194.656081,3.54615927 194.558056,3.81395349 194.558056,4.13107822 C194.558056,4.44820296 194.656081,4.71247357 194.852132,4.92389006 C195.048182,5.13530655 195.338692,5.2410148 195.723663,5.2410148 Z M196.696785,18.602537 L196.696785,7.16490486 L194.718461,7.16490486 L194.718461,18.602537 L196.696785,18.602537 Z M204.118172,18.8139535 C205.437054,18.8139535 206.509983,18.5056378 207.336958,17.8890063 C208.163933,17.2723749 208.577421,16.453136 208.577421,15.4312896 C208.577421,14.8181818 208.429492,14.2984496 208.133634,13.872093 C207.837777,13.4457364 207.383297,13.081043 206.770195,12.7780127 C206.157093,12.4749824 205.356852,12.2142354 204.369473,11.9957717 C203.382093,11.777308 202.699482,11.5482734 202.32164,11.3086681 C201.943798,11.0690627 201.754877,10.7131783 201.754877,10.2410148 C201.754877,9.74066244 201.958056,9.3354475 202.364415,9.02536998 C202.770773,8.71529246 203.333972,8.5602537 204.05401,8.5602537 C204.752661,8.5602537 205.3319,8.75405215 205.791727,9.14164905 C206.251553,9.52924595 206.481467,9.99083862 206.481467,10.5264271 L208.470484,10.5264271 C208.470484,9.48343904 208.062343,8.62720226 207.246062,7.9577167 C206.429781,7.28823115 205.365763,6.95348837 204.05401,6.95348837 C202.806419,6.95348837 201.781611,7.27766032 200.979588,7.92600423 C200.177565,8.57434813 199.776553,9.36715997 199.776553,10.3044397 C199.776553,10.8682171 199.917353,11.354475 200.198952,11.7632135 C200.480552,12.1719521 200.915426,12.5243129 201.503577,12.820296 C202.091727,13.1162791 202.886621,13.3699789 203.888259,13.5813953 C204.889896,13.7928118 205.592112,14.0447498 205.994906,14.3372093 C206.3977,14.6296688 206.599097,15.0401691 206.599097,15.5687104 C206.599097,16.0690627 206.372748,16.4689922 205.920051,16.7684989 C205.467353,17.0680056 204.866727,17.217759 204.118172,17.217759 C203.305455,17.217759 202.651361,17.0257223 202.155889,16.641649 C201.660417,16.2575758 201.394858,15.7378436 201.359212,15.0824524 L199.380889,15.0824524 C199.380889,15.7589852 199.582286,16.3879493 199.985079,16.9693446 C200.387873,17.55074 200.945725,18.0035236 201.658634,18.3276956 C202.371544,18.6518675 203.19139,18.8139535 204.118172,18.8139535 Z M215.956033,18.8139535 C217.895147,18.8139535 219.349482,18.0775194 220.319039,16.6046512 L219.110658,15.6744186 C218.747074,16.1395349 218.322893,16.5130374 217.838114,16.794926 C217.353336,17.0768147 216.761621,17.217759 216.06297,17.217759 C215.079155,17.217759 214.26822,16.8706836 213.630166,16.1765328 C212.992112,15.482382 212.658827,14.5715292 212.630311,13.4439746 L220.46875,13.4439746 L220.46875,12.6300211 C220.46875,10.8047921 220.051698,9.40239605 219.217594,8.42283298 C218.38349,7.44326991 217.214318,6.95348837 215.710079,6.95348837 C214.790426,6.95348837 213.936717,7.20542636 213.148952,7.70930233 C212.361187,8.21317829 211.748085,8.91085271 211.309646,9.80232558 C210.871207,10.6937984 210.651987,11.7068358 210.651987,12.8414376 L210.651987,13.2008457 C210.651987,14.906272 211.143895,16.2681466 212.12771,17.2864693 C213.111525,18.3047921 214.387632,18.8139535 215.956033,18.8139535 Z M218.490426,11.8372093 L212.694473,11.8372093 C212.822796,10.8012685 213.157864,9.99612403 213.699675,9.4217759 C214.241486,8.84742777 214.911621,8.5602537 215.710079,8.5602537 C216.537054,8.5602537 217.192931,8.83333333 217.67771,9.3794926 C218.162488,9.92565187 218.433394,10.6955603 218.490426,11.6892178 L218.490426,11.8372093 Z" id="BPMEnterprise"></path>
                    </g>
                    <text id="Powered-by" font-family="Montserrat-Light, Montserrat" font-size="14" font-weight="300">
                        <tspan x="69.064" y="14">Powered by</tspan>
                    </text>
                </g>
            </g>
        </g>
    </g>
</svg>

