<?xml version="1.0" encoding="UTF-8"?>
<svg width="64px" height="64px" viewBox="0 0 64 64" version="1.1" xmlns="http://www.w3.org/2000/svg" xmlns:xlink="http://www.w3.org/1999/xlink">
    <title>icon-my-accounts</title>
    <g id="Icons" stroke-width="1" fill-rule="evenodd">
        <g id="Artboard" transform="translate(-341.000000, -216.000000)" fill-rule="nonzero">
            <g id="icon-my-accounts" transform="translate(341.000000, 216.000000)">
                <circle id="Oval" cx="32" cy="13.25" r="2.5"></circle>
                <path d="M61.5,58.5 L2.5,58.5 C1.11925,58.5 0,59.61925 0,61 C0,62.38075 1.11925,63.5 2.5,63.5 L61.5,63.5 C62.88075,63.5 64,62.38075 64,61 C64,59.61925 62.88075,58.5 61.5,58.5 Z" id="Path"></path>
                <path d="M64,15.625 C64,14.636625 63.41775,13.741125 62.514375,13.34 L32.951875,0.215 C32.3045,-0.0725 31.566,-0.071625 30.919375,0.216625 L1.481875,13.341625 C0.580625,13.7435 0,14.638125 0,15.625 L0,22.25 C0,22.271125 0.002625,22.2915 0.003125,22.3125 C0.002625,22.3335 0,22.353875 0,22.375 C0,23.75575 1.11925,24.875 2.5,24.875 C3.967875,24.875 4.625,26.130625 4.625,27.375 L4.625,50.6895 C4.625,50.741875 4.62975,50.793125 4.632875,50.84475 C4.629625,50.896375 4.625,50.947625 4.625,51 C4.625,52.38075 5.74425,53.5 7.125,53.5 L57.125,53.5 C58.50575,53.5 59.625,52.38075 59.625,51 C59.625,49.61925 58.50575,48.5 57.125,48.5 L49.625,48.5 L49.625,27.375 C49.625,25.9965 50.7465,24.875 52.125,24.875 C53.5035,24.875 54.625,25.9965 54.625,27.375 L54.625,38.439625 C54.625,39.820375 55.74425,40.939625 57.125,40.939625 C58.50575,40.939625 59.625,39.820375 59.625,38.439625 L59.625,27.375 C59.625,26.7885 59.76025,24.875 61.5,24.875 C62.88075,24.875 64,23.75575 64,22.375 C64,22.353875 63.997375,22.3335 63.996875,22.3125 C63.997375,22.2915 64,22.271125 64,22.25 L64,15.625 Z M14.625,48.5 L9.625,48.5 L9.625,27.375 C9.625,25.9965 10.7465,24.875 12.125,24.875 C13.5035,24.875 14.625,25.9965 14.625,27.375 L14.625,48.5 Z M24.625,48.5 L19.625,48.5 L19.625,27.375 C19.625,25.9965 20.7465,24.875 22.125,24.875 C23.5035,24.875 24.625,25.9965 24.625,27.375 L24.625,48.5 Z M34.625,48.5 L29.625,48.5 L29.625,27.375 C29.625,25.9965 30.7465,24.875 32.125,24.875 C33.5035,24.875 34.625,25.9965 34.625,27.375 L34.625,48.5 Z M44.625,48.5 L39.625,48.5 L39.625,27.375 C39.625,25.9965 40.7465,24.875 42.125,24.875 C43.5035,24.875 44.625,25.9965 44.625,27.375 L44.625,48.5 Z M59,19.75 L5,19.75 L5,17.247625 L31.93975,5.23625 L59,17.250375 L59,19.75 Z" id="Shape"></path>
            </g>
        </g>
    </g>
</svg>