<?xml version="1.0" encoding="UTF-8"?>
<svg width="64px" height="64px" viewBox="0 0 64 64" version="1.1" xmlns="http://www.w3.org/2000/svg" xmlns:xlink="http://www.w3.org/1999/xlink">
    <title>icon-profile</title>
    <g id="Icons" stroke-width="1" fill-rule="evenodd">
        <g id="Artboard" transform="translate(-341.000000, -317.000000)"  fill-rule="nonzero">
            <g id="icon-profile" transform="translate(341.000000, 317.000000)">
                <path d="M63.83775,54.84025 C63.556375,53.488625 62.23225,52.621125 60.88075,52.902375 C59.528875,53.183875 58.66125,54.50775 58.94275,55.8595 C59.104875,56.638 58.911875,57.436125 58.41325,58.04925 C58.124375,58.40425 57.480625,59 56.413375,59 L45.125,59 C43.74425,59 42.625,60.11925 42.625,61.5 C42.625,62.88075 43.74425,64 45.125,64 L56.413375,64 C58.7045,64 60.84725,62.980875 62.292375,61.203875 C63.744625,59.418 64.308,57.098625 63.83775,54.84025 Z" id="Path"></path>
                <path d="M34.53825,34.096125 C42.751625,34.852625 50.222875,39.25475 54.876125,46.194625 C55.644875,47.341375 57.198125,47.647875 58.34475,46.878875 C59.491625,46.109875 59.797875,44.556875 59.029,43.410125 C54.92675,37.291875 48.969625,32.843875 42.1775,30.608625 C46.316875,27.505 49,22.56 49,17 C49,7.626125 41.37375,0 32,0 C22.62625,0 15,7.626125 15,17 C15,22.563625 17.6865,27.5115 21.830375,30.614625 C18.034,31.864375 14.4715,33.808 11.35375,36.372375 C5.63725,41.0745 1.662625,47.63325 0.16225,54.84025 C-0.308,57.098625 0.255375,59.418 1.707625,61.203875 C3.152625,62.980875 5.2955,64 7.586625,64 L18.5,64 C19.88075,64 21,62.88075 21,61.5 C21,60.11925 19.88075,59 18.5,59 L7.586375,59 C6.519125,59 5.875375,58.404375 5.5865,58.04925 C5.087875,57.436 4.894875,56.638 5.057,55.859375 C7.505,44.100875 17.4295,35.334125 29.205375,34.12375 L24.43275,55.837375 C24.249875,56.67025 24.503875,57.538875 25.10675,58.14175 L30.107,63.142625 C30.57575,63.611625 31.21175,63.875 31.875,63.875 C32.538125,63.875 33.174,63.6115 33.642875,63.142625 L38.642625,58.14175 C39.2455,57.53875 39.4995,56.67025 39.3165,55.8375 L34.53825,34.096125 Z M20,17 C20,10.383125 25.383125,5 32,5 C38.616875,5 44,10.383125 44,17 C44,23.417125 38.936875,28.673625 32.595625,28.98525 C32.397375,28.981625 32.198875,28.97925 32,28.97925 C31.804875,28.97925 31.61,28.982125 31.415125,28.985625 C25.068875,28.6795 20,23.42075 20,17 Z M31.874875,57.839125 L29.61025,55.574125 L31.874875,45.271 L34.13925,55.57425 L31.874875,57.839125 Z" id="Shape"></path>
            </g>
        </g>
    </g>
</svg>