<?xml version="1.0" encoding="UTF-8"?>
<svg viewBox="0 0 64 62" version="1.1" xmlns="http://www.w3.org/2000/svg" xmlns:xlink="http://www.w3.org/1999/xlink">
    <title>icon-home</title>
    <g id="Icons" stroke-width="1" fill-rule="evenodd">
        <g id="Artboard" transform="translate(-341.000000, -21.000000)" fill-rule="nonzero">
            <g id="icon-home" transform="translate(341.000000, 21.000000)">
                <path d="M63.2735,28.301625 L37.22475,2.08125 C37.191375,2.0475 37.15675,2.01475 37.1215,1.983 C34.277125,-0.570875 29.979,-0.58 27.12375,1.961875 C27.08825,1.9935 27.05375,2.026125 27.020125,2.059625 L0.734,28.294 C-0.24325,29.2695 -0.244875,30.852375 0.7305,31.829625 C1.706,32.806875 3.288875,32.808375 4.266,31.833125 L6.25,29.853 L6.25,51.4385 C6.25,56.9525 10.736,61.4385 16.25,61.4385 L25.25,61.4385 C26.63075,61.4385 27.75,60.31925 27.75,58.9385 L27.75,38.5635 L36.5,38.5635 L36.5,58.9385 C36.5,60.31925 37.61925,61.4385 39,61.4385 L47.75,61.4385 C53.264,61.4385 57.75,56.9525 57.75,51.4385 C57.75,50.05775 56.63075,48.9385 55.25,48.9385 C53.86925,48.9385 52.75,50.05775 52.75,51.4385 C52.75,54.1955 50.507,56.4385 47.75,56.4385 L41.5,56.4385 L41.5,36.0635 C41.5,34.68275 40.38075,33.5635 39,33.5635 L25.25,33.5635 C23.86925,33.5635 22.75,34.68275 22.75,36.0635 L22.75,56.4385 L16.25,56.4385 C13.493,56.4385 11.25,54.1955 11.25,51.4385 L11.25,24.9385 C11.25,24.9135 11.249625,24.888625 11.248875,24.863875 L30.49325,5.6575 C31.429875,4.862125 32.803625,4.865125 33.736625,5.664375 L52.75,24.803125 L52.75,38.9385 C52.75,40.31925 53.86925,41.4385 55.25,41.4385 C56.63075,41.4385 57.75,40.31925 57.75,38.9385 L57.75,29.836 L59.7265,31.825625 C60.215125,32.3175 60.857375,32.563625 61.5,32.563625 C62.137125,32.563625 62.774375,32.3215 63.262,31.837125 C64.2415,30.864 64.24675,29.281125 63.2735,28.301625 Z" id="Path"></path>
            </g>
        </g>
    </g>
</svg>