<?xml version="1.0" encoding="UTF-8"?>
<svg width="64px" height="64px" viewBox="0 0 64 64" version="1.1" xmlns="http://www.w3.org/2000/svg" xmlns:xlink="http://www.w3.org/1999/xlink">
    <title>icon-my-loans</title>
    <g id="Icons" stroke-width="1" fill-rule="evenodd">
        <g id="Artboard" transform="translate(-341.000000, -115.000000)"  fill-rule="nonzero">
            <g id="icon-my-loans" transform="translate(341.000000, 115.000000)">
                <path d="M59.775125,28.256375 C57.593125,24.9055 54.574,21.732875 50.8015,18.8265 C46.663375,15.638375 42.554375,13.485625 40.1335,12.349375 L43.497,3.64375 C43.60775,3.357 43.664625,3.052 43.664625,2.7445 L43.664625,2.495 C43.664625,1.675375 43.262,0.908125 42.58775,0.44225 C41.9135,-0.023625 41.053375,-0.128625 40.28675,0.16125 C34.66675,2.286875 29.204625,2.28725 23.588875,0.161375 C22.82225,-0.128625 21.962,-0.023875 21.2875,0.442 C20.613125,0.907875 20.2105,1.675375 20.2105,2.495 L20.2105,2.7445 C20.2105,3.052 20.267375,3.356875 20.378125,3.64375 L23.74325,12.3535 C21.333375,13.49075 17.2465,15.643375 13.131125,18.83025 C9.37725,21.737125 6.373125,24.910125 4.202125,28.26125 C1.413875,32.565375 0,37.16025 0,41.918125 C0,48.444375 1.976375,53.972125 5.7155,57.90375 C9.364375,61.740625 14.447875,63.846125 20.416125,63.9925 C20.43625,63.993 20.45625,63.99325 20.4765,63.99325 L42.977125,64 C42.995125,64 43.013,64 43.031,64 C50.298625,63.844375 56.346125,60.852625 60.059875,55.57525 C60.852875,54.448375 60.582125,52.891875 59.455125,52.09875 C58.328125,51.305625 56.77175,51.57625 55.978625,52.703375 C53.2055,56.644125 48.58,58.883125 42.950875,59.00975 L20.509125,59.003 C10.936125,58.755 4.99025,52.211 4.99025,41.918125 C4.99025,35.000125 8.725875,28.584 16.093125,22.8485 C20.947375,19.069375 25.88775,16.828375 27.31825,16.2185 L35.34875,16.2185 C35.38575,16.25075 35.424,16.284 35.4635,16.318375 C44.2995,24.00525 48.77975,31.820875 48.77975,39.547875 C48.77975,40.925875 49.896875,42.043 51.274875,42.043 C52.652875,42.043 53.77,40.925875 53.77,39.547875 C53.77,34.118125 52.0105,28.69325 48.53675,23.397375 C53.915625,27.732 59.00975,33.942375 59.00975,41.918125 C59.00975,43.296125 60.126875,44.41325 61.504875,44.41325 C62.882875,44.41325 64,43.296125 64,41.918125 C64,37.158125 62.5785,32.561625 59.775125,28.256375 Z M35.217,11.228 L28.658125,11.228 L26.727125,6.23 C30.195875,6.901375 33.6785,6.901125 37.148125,6.229375 L35.217,11.228 Z" id="Shape"></path>
                <path d="M31.935125,55.0175 C33.313125,55.0175 34.43025,53.900375 34.43025,52.522375 L34.43025,51.077375 C37.8625,50.597875 40.421,47.774875 40.421,44.25725 L40.421,43.644875 C40.421,41.7595 39.683125,39.99825 38.343,38.68575 C37.021625,37.391375 35.262125,36.6785 33.389,36.6785 L31.102625,36.6785 C30.003375,36.6785 29.074875,35.70725 29.074875,34.557625 L29.074875,33.647625 C29.074875,32.5305 29.946625,31.68825 31.102625,31.68825 L33.26475,31.68825 C33.900125,31.68825 34.5575,32.113625 34.5575,32.8255 C34.5575,34.2035 35.674625,35.320625 37.052625,35.320625 C38.430625,35.320625 39.54775,34.2035 39.54775,32.8255 C39.54775,29.83525 37.339625,27.34 34.43025,26.805375 L34.43025,25.200875 C34.43025,23.822875 33.313125,22.70575 31.935125,22.70575 C30.557125,22.70575 29.44,23.822875 29.44,25.200875 L29.44,26.891125 C28.205,27.182625 27.073875,27.798375 26.1565,28.696 C24.820375,30.0035 24.0845,31.762 24.0845,33.64775 L24.0845,34.55775 C24.0845,38.478875 27.23275,41.668875 31.1025,41.668875 L33.388875,41.668875 C34.533875,41.668875 35.430625,42.536875 35.430625,43.645 L35.430625,44.257375 C35.430625,45.342 34.552875,46.16 33.388875,46.16 L29.673,46.16 C29.059875,46.16 28.439125,45.774375 28.439125,45.03725 C28.439125,43.65925 27.322,42.542125 25.944,42.542125 C24.566,42.542125 23.448875,43.65925 23.448875,45.03725 C23.448875,48.38825 26.062,51.027875 29.439625,51.14475 L29.439625,52.522625 C29.44,53.9005 30.557125,55.0175 31.935125,55.0175 Z" id="Path"></path>
            </g>
        </g>
    </g>
</svg>