<?xml version="1.0" encoding="UTF-8"?>
<svg width="60px" height="60px" viewBox="0 0 60 60" version="1.1" xmlns="http://www.w3.org/2000/svg" xmlns:xlink="http://www.w3.org/1999/xlink">
    <title>loader</title>
    <g id="Icons" stroke="none" stroke-width="1" fill="none" fill-rule="evenodd">
        <g id="Artboard" transform="translate(-177.000000, -96.000000)" fill="#65DDB9" fill-rule="nonzero">
            <g id="loader" transform="translate(177.000000, 96.000000)">
                <path d="M35.7516797,0.558632812 L33.1033594,10.5827344 C31.0747266,10.2651563 29.0078906,10.2651563 26.9792578,10.5827344 L24.2896875,0.558632812 C28.0883203,-0.186210938 31.9945312,-0.186210938 35.7931641,0.558632812 C35.7930469,0.558632812 35.7516797,0.558632812 35.7516797,0.558632812 Z" id="Path"></path>
                <path d="M22.9448438,11.6586328 C21.0248437,12.4034766 19.2372656,13.4513672 17.6483203,14.7621094 L10.3448438,7.37589844 C13.2558984,4.82894531 16.6365234,2.87484375 20.2965234,1.62421875 L22.9448438,11.6586328 Z" id="Path"></path>
                <path d="M14.7207422,17.6483203 C13.41,19.2372656 12.3621094,21.0248437 11.6172656,22.9448438 L1.58273437,20.2551562 C2.85105469,16.6065234 4.81863281,13.2403125 7.37578125,10.3448438 L14.7207422,17.6483203 Z" id="Path"></path>
                <path d="M10.3448437,30 C10.3427344,31.0386328 10.4224219,32.0772656 10.5827344,33.1034766 L0.558632812,35.7931641 C-0.186210938,31.9945312 -0.186210938,28.0883203 0.558632812,24.2896875 L10.5827344,26.8966406 C10.4224219,27.9237891 10.3427344,28.9613672 10.3448437,30 Z" id="Path"></path>
                <path d="M14.7207422,42.3517969 L7.37589844,49.6552734 C4.82894531,46.7442187 2.87484375,43.3635937 1.62421875,39.7035937 L11.65875,37.0139062 C12.3869531,38.9451562 13.4213672,40.7483203 14.7207422,42.3517969 Z" id="Path"></path>
                <path d="M22.9448438,48.3413672 L20.2551562,58.3758984 C16.6096875,57.12 13.2434766,55.1658984 10.3448438,52.6242187 L17.6896875,45.279375 C19.2683203,46.5713672 21.0424219,47.6048437 22.9448438,48.3413672 Z" id="Path"></path>
                <path d="M35.7516797,59.4413672 C31.9530469,60.1862109 28.0468359,60.1862109 24.2482031,59.4413672 L26.8965234,49.4172656 C28.9251563,49.7348437 30.9919922,49.7348437 33.020625,49.4172656 L35.7516797,59.4413672 Z" id="Path"></path>
                <path d="M49.6551563,52.6242188 C46.7441016,55.1711719 43.3634766,57.1252734 39.7034766,58.3758984 L37.0137891,48.3413672 C38.9337891,47.5965234 40.7213672,46.5486328 42.3103125,45.2378906 L49.6551563,52.6242188 Z" id="Path"></path>
                <path d="M58.3758984,39.7448438 C57.12,43.3903125 55.1658984,46.7565234 52.6242188,49.6551563 L45.279375,42.3103125 C46.5901172,40.7213672 47.6380078,38.9337891 48.3828516,37.0137891 L58.3758984,39.7448438 Z" id="Path"></path>
                <path d="M60.000066,30 C60.0041016,31.9313672 59.8169531,33.8575781 59.4413672,35.7516797 L49.4172656,33.1033594 C49.7348437,31.0747266 49.7348437,29.0078906 49.4172656,26.9792578 L59.4413672,24.2895703 C59.8137891,26.1704297 60.0010547,28.0831641 60.000066,30 Z" id="Path"></path>
                <path d="M58.3758984,20.2551562 L48.3413672,22.9448438 C47.5965234,21.0248437 46.5486328,19.2372656 45.2378906,17.6483203 L52.5827344,10.3034766 C55.1441016,13.2113672 57.1127344,16.5921094 58.3758984,20.2551562 Z" id="Path"></path>
                <path d="M49.6551563,7.37589844 L42.3103125,14.7207422 C40.7213672,13.41 38.9337891,12.3621094 37.0137891,11.6172656 L39.7034766,1.58273437 C43.3665234,2.84695312 46.7472656,4.81453125 49.6551563,7.37589844 Z" id="Path"></path>
            </g>
        </g>
    </g>
</svg>