<?xml version="1.0" encoding="UTF-8"?>
<svg width="40px" height="40px" viewBox="0 0 40 40" version="1.1" xmlns="http://www.w3.org/2000/svg" xmlns:xlink="http://www.w3.org/1999/xlink">
    <title>loantype-furniture</title>
    <g id="Icons" stroke="none" stroke-width="1" fill="none" fill-rule="evenodd">
        <g id="Artboard" transform="translate(-86.000000, -116.000000)" fill="#000000" fill-rule="nonzero">
            <g id="loantype-furniture" transform="translate(86.000000, 116.000000)">
                <path d="M38.4161377,22.019043 C39.2788696,22.019043 39.9777222,21.3198852 39.9777222,20.4574585 L39.9777222,17.9586792 C39.9777222,15.3756714 37.8762817,13.2739258 35.2929688,13.2739258 C34.7454834,13.2739258 34.2199707,13.3691406 33.7313843,13.5424805 L33.7313843,8.97949219 C33.7313843,4.02801516 29.703064,-2.22044605e-15 24.7518921,-2.22044605e-15 L15.2258301,-2.22044605e-15 C10.2746582,-2.22044605e-15 6.24664305,4.02801516 6.24664305,8.97949219 L6.24664305,13.5424805 C5.75775148,13.3691406 5.23223875,13.2739258 4.68505859,13.2739258 C2.10174562,13.2739258 -2.22044605e-15,15.3756714 -2.22044605e-15,17.9586792 L-2.22044605e-15,28.265686 C-2.22044605e-15,31.7098999 2.80212406,34.5120239 6.24664305,34.5120239 L6.64855953,34.5120239 L5.60913086,37.9910278 C5.36224367,38.8174438 5.83190922,39.6875 6.65832516,39.9343872 C6.80755617,39.9789429 6.95800781,40 7.10601805,40 C7.77832031,40 8.39935305,39.562378 8.60168453,38.8851929 L9.90844727,34.5120239 L30.1477051,34.5120239 L31.4541626,38.8851929 C31.6567993,39.562378 32.2775269,40 32.9498291,40 C33.0981445,40 33.2485962,39.9789429 33.3978272,39.9343872 C34.223938,39.6871948 34.6939087,38.8171387 34.4470215,37.9910278 L33.4072876,34.5120239 L33.7313843,34.5120239 C37.1755981,34.5120239 39.9777222,31.7098999 39.9777222,28.265686 C39.9777222,27.4029541 39.2788696,26.7037964 38.4161377,26.7037964 C37.5537109,26.7037964 36.8545532,27.4029541 36.8545532,28.265686 C36.8545532,29.987793 35.4534913,31.388855 33.7313843,31.388855 L6.24664305,31.388855 C4.52453609,31.388855 3.12316891,29.987793 3.12316891,28.265686 L3.12316891,17.9586792 C3.12316891,17.0977783 3.8238525,16.3970947 4.68505859,16.3970947 C5.54595945,16.3970947 6.24664305,17.0977783 6.24664305,17.9586792 L6.24664305,26.7037964 C6.24664305,27.5665283 6.94580078,28.265686 7.8082275,28.265686 C8.6706543,28.265686 9.36981203,27.5665283 9.36981203,26.7037964 L9.36981203,25.3100586 C11.4953613,24.8757934 16.0592652,24.0490723 19.9890137,24.0490723 C23.9123535,24.0490723 28.480835,24.8764038 30.6079102,25.3103637 L30.6079102,26.7037964 C30.6079102,27.5665283 31.3070679,28.265686 32.1697998,28.265686 C33.0322266,28.265686 33.7313843,27.5665283 33.7313843,26.7037964 L33.7313843,17.9586792 C33.7313843,17.0977783 34.4317627,16.3970947 35.2929688,16.3970947 C36.1541748,16.3970947 36.8545532,17.0977783 36.8545532,17.9586792 L36.8545532,20.4574585 C36.8545532,21.3198852 37.5537109,22.019043 38.4161377,22.019043 Z M19.9890137,20.9259033 C16.1123657,20.9259033 11.7953491,21.6470337 9.36981203,22.1228027 L9.36981203,8.97949219 C9.36981203,5.75042727 11.9967652,3.12316891 15.2258301,3.12316891 L24.7518921,3.12316891 C27.980957,3.12316891 30.6079102,5.75042727 30.6079102,8.97949219 L30.6079102,22.1228027 C28.1826782,21.6470337 23.8653564,20.9259033 19.9890137,20.9259033 Z M27.7972413,12.0245361 C27.7972413,12.8869629 27.0980835,13.5861206 26.2353516,13.5861206 C25.3729248,13.5861206 24.6737671,12.8869629 24.6737671,12.0245361 C24.6737671,11.1621094 25.3729248,10.4629516 26.2353516,10.4629516 C27.0980835,10.4629516 27.7972413,11.1621094 27.7972413,12.0245361 Z M15.3039551,11.9464111 C15.3039551,12.8088379 14.6047973,13.5079956 13.7423706,13.5079956 C12.8799438,13.5079956 12.1807861,12.8088379 12.1807861,11.9464111 C12.1807861,11.0839844 12.8799438,10.3848266 13.7423706,10.3848266 C14.6047973,10.3848266 15.3039551,11.0839844 15.3039551,11.9464111 Z M21.5505981,16.2408447 C21.5505981,17.1035766 20.8514405,17.8027344 19.9890137,17.8027344 C19.1265869,17.8027344 18.4274292,17.1035766 18.4274292,16.2408447 C18.4274292,15.378418 19.1265869,14.6792602 19.9890137,14.6792602 C20.8514405,14.6792602 21.5505981,15.378418 21.5505981,16.2408447 Z M21.5505981,7.6519775 C21.5505981,8.5144043 20.8514405,9.21356203 19.9890137,9.21356203 C19.1265869,9.21356203 18.4274292,8.5144043 18.4274292,7.6519775 C18.4274292,6.78955078 19.1265869,6.09039305 19.9890137,6.09039305 C20.8514405,6.09039305 21.5505981,6.78955078 21.5505981,7.6519775 Z" id="Shape"></path>
            </g>
        </g>
    </g>
</svg>